<svg xmlns="http://www.w3.org/2000/svg" xmlns:xlink="http://www.w3.org/1999/xlink" viewBox="0 0 1903.49 1189.48"><defs><style>.cls-1{isolation:isolate;}.cls-2{opacity:0.47;}.cls-10,.cls-100,.cls-101,.cls-11,.cls-122,.cls-129,.cls-13,.cls-130,.cls-131,.cls-133,.cls-134,.cls-135,.cls-137,.cls-139,.cls-140,.cls-141,.cls-143,.cls-144,.cls-145,.cls-146,.cls-16,.cls-17,.cls-19,.cls-20,.cls-21,.cls-3,.cls-4,.cls-41,.cls-42,.cls-5,.cls-6,.cls-62,.cls-63,.cls-64,.cls-65,.cls-7,.cls-73,.cls-74,.cls-76,.cls-77,.cls-85,.cls-9,.cls-93,.cls-95,.cls-96,.cls-97,.cls-98,.cls-99{opacity:0.41;}.cls-10,.cls-100,.cls-101,.cls-102,.cls-103,.cls-104,.cls-105,.cls-106,.cls-107,.cls-108,.cls-109,.cls-11,.cls-110,.cls-111,.cls-112,.cls-113,.cls-114,.cls-115,.cls-116,.cls-117,.cls-118,.cls-119,.cls-12,.cls-120,.cls-121,.cls-122,.cls-123,.cls-124,.cls-125,.cls-126,.cls-127,.cls-128,.cls-129,.cls-13,.cls-130,.cls-131,.cls-132,.cls-133,.cls-134,.cls-135,.cls-136,.cls-137,.cls-138,.cls-139,.cls-14,.cls-140,.cls-141,.cls-142,.cls-143,.cls-144,.cls-145,.cls-146,.cls-147,.cls-148,.cls-149,.cls-15,.cls-150,.cls-151,.cls-152,.cls-153,.cls-154,.cls-155,.cls-156,.cls-157,.cls-158,.cls-159,.cls-16,.cls-17,.cls-18,.cls-19,.cls-20,.cls-21,.cls-22,.cls-23,.cls-24,.cls-25,.cls-26,.cls-27,.cls-28,.cls-29,.cls-3,.cls-30,.cls-31,.cls-32,.cls-33,.cls-34,.cls-35,.cls-36,.cls-37,.cls-38,.cls-39,.cls-4,.cls-40,.cls-41,.cls-42,.cls-43,.cls-44,.cls-45,.cls-46,.cls-47,.cls-48,.cls-49,.cls-5,.cls-50,.cls-51,.cls-52,.cls-53,.cls-54,.cls-55,.cls-56,.cls-57,.cls-58,.cls-59,.cls-6,.cls-60,.cls-61,.cls-62,.cls-63,.cls-64,.cls-65,.cls-66,.cls-67,.cls-68,.cls-69,.cls-7,.cls-70,.cls-71,.cls-72,.cls-73,.cls-75,.cls-76,.cls-77,.cls-78,.cls-79,.cls-8,.cls-80,.cls-82,.cls-83,.cls-84,.cls-85,.cls-86,.cls-87,.cls-88,.cls-89,.cls-9,.cls-90,.cls-91,.cls-92,.cls-93,.cls-95,.cls-96,.cls-97,.cls-99{mix-blend-mode:screen;}.cls-3{fill:url(#radial-gradient);}.cls-4{fill:url(#radial-gradient-2);}.cls-5{fill:url(#radial-gradient-3);}.cls-6{fill:url(#radial-gradient-4);}.cls-7{fill:url(#radial-gradient-5);}.cls-8{fill:url(#radial-gradient-6);}.cls-9{fill:url(#radial-gradient-7);}.cls-10{fill:url(#radial-gradient-8);}.cls-11{fill:url(#radial-gradient-9);}.cls-12{fill:url(#radial-gradient-10);}.cls-13{fill:url(#radial-gradient-11);}.cls-14{fill:url(#radial-gradient-12);}.cls-136,.cls-138,.cls-15{opacity:0.2;}.cls-15{fill:url(#radial-gradient-13);}.cls-16{fill:url(#radial-gradient-14);}.cls-17{fill:url(#radial-gradient-15);}.cls-18{fill:url(#radial-gradient-16);}.cls-19{fill:url(#radial-gradient-17);}.cls-20{fill:url(#radial-gradient-18);}.cls-21{fill:url(#radial-gradient-19);}.cls-22{fill:url(#radial-gradient-20);}.cls-23{fill:url(#radial-gradient-21);}.cls-24{fill:url(#radial-gradient-22);}.cls-25{fill:url(#radial-gradient-23);}.cls-26{fill:url(#radial-gradient-24);}.cls-27{fill:url(#radial-gradient-25);}.cls-28{fill:url(#radial-gradient-26);}.cls-29{fill:url(#radial-gradient-27);}.cls-30{fill:url(#radial-gradient-28);}.cls-31{fill:url(#radial-gradient-29);}.cls-32{fill:url(#radial-gradient-30);}.cls-33{fill:url(#radial-gradient-31);}.cls-34{fill:url(#radial-gradient-32);}.cls-35{fill:url(#radial-gradient-33);}.cls-36{fill:url(#radial-gradient-34);}.cls-37{fill:url(#radial-gradient-35);}.cls-38{fill:url(#radial-gradient-36);}.cls-39{fill:url(#radial-gradient-37);}.cls-40{fill:url(#radial-gradient-38);}.cls-41{fill:url(#radial-gradient-39);}.cls-42{fill:url(#radial-gradient-40);}.cls-43{fill:url(#radial-gradient-41);}.cls-44{fill:url(#radial-gradient-42);}.cls-45{fill:url(#radial-gradient-43);}.cls-46{fill:url(#radial-gradient-44);}.cls-47{fill:url(#radial-gradient-45);}.cls-48{fill:url(#radial-gradient-46);}.cls-49{fill:url(#radial-gradient-47);}.cls-50{fill:url(#radial-gradient-48);}.cls-51{fill:url(#radial-gradient-49);}.cls-52{fill:url(#radial-gradient-50);}.cls-53{fill:url(#radial-gradient-51);}.cls-54{fill:url(#radial-gradient-52);}.cls-55{fill:url(#radial-gradient-53);}.cls-56{fill:url(#radial-gradient-54);}.cls-57{fill:url(#radial-gradient-55);}.cls-58{fill:url(#radial-gradient-56);}.cls-59{fill:url(#radial-gradient-57);}.cls-60{fill:url(#radial-gradient-58);}.cls-61{fill:url(#radial-gradient-59);}.cls-62{fill:url(#radial-gradient-60);}.cls-63{fill:url(#radial-gradient-61);}.cls-64{fill:url(#radial-gradient-62);}.cls-65{fill:url(#radial-gradient-63);}.cls-66{fill:url(#radial-gradient-64);}.cls-67{fill:url(#radial-gradient-65);}.cls-68{fill:url(#radial-gradient-66);}.cls-69{fill:url(#radial-gradient-67);}.cls-70{fill:url(#radial-gradient-68);}.cls-71{fill:url(#radial-gradient-69);}.cls-72{fill:url(#radial-gradient-70);}.cls-73{fill:url(#radial-gradient-71);}.cls-74{fill:url(#radial-gradient-72);}.cls-75{fill:url(#radial-gradient-73);}.cls-76{fill:url(#radial-gradient-74);}.cls-77{fill:url(#radial-gradient-75);}.cls-78{fill:url(#radial-gradient-76);}.cls-79{fill:url(#radial-gradient-77);}.cls-80{fill:url(#radial-gradient-78);}.cls-81{fill:url(#radial-gradient-79);}.cls-82{fill:url(#radial-gradient-80);}.cls-83{fill:url(#radial-gradient-81);}.cls-84{fill:url(#radial-gradient-82);}.cls-85{fill:url(#radial-gradient-83);}.cls-86{fill:url(#radial-gradient-84);}.cls-87{fill:url(#radial-gradient-85);}.cls-88{fill:url(#radial-gradient-86);}.cls-89{fill:url(#radial-gradient-87);}.cls-90{fill:url(#radial-gradient-88);}.cls-91{fill:url(#radial-gradient-89);}.cls-92{fill:url(#radial-gradient-90);}.cls-93{fill:url(#radial-gradient-91);}.cls-94{fill:url(#radial-gradient-92);}.cls-95{fill:url(#radial-gradient-93);}.cls-96{fill:url(#radial-gradient-94);}.cls-97{fill:url(#radial-gradient-95);}.cls-98{fill:url(#radial-gradient-96);}.cls-99{fill:url(#radial-gradient-97);}.cls-100{fill:url(#radial-gradient-98);}.cls-101{fill:url(#radial-gradient-99);}.cls-102,.cls-103,.cls-104,.cls-105{opacity:0.32;}.cls-102{fill:url(#radial-gradient-100);}.cls-103{fill:url(#radial-gradient-101);}.cls-104{fill:url(#radial-gradient-102);}.cls-105{fill:url(#radial-gradient-103);}.cls-106{fill:url(#radial-gradient-104);}.cls-107{fill:url(#radial-gradient-105);}.cls-108,.cls-109,.cls-110,.cls-111,.cls-112,.cls-113{opacity:0.5;}.cls-108{fill:url(#radial-gradient-106);}.cls-109{fill:url(#radial-gradient-107);}.cls-110{fill:url(#radial-gradient-108);}.cls-111{fill:url(#radial-gradient-109);}.cls-112{fill:url(#radial-gradient-110);}.cls-113{fill:url(#radial-gradient-111);}.cls-114{fill:url(#radial-gradient-112);}.cls-115{fill:url(#radial-gradient-113);}.cls-116{fill:url(#radial-gradient-114);}.cls-117,.cls-127{opacity:0.34;}.cls-117{fill:url(#radial-gradient-115);}.cls-118{fill:url(#radial-gradient-116);}.cls-119{fill:url(#radial-gradient-117);}.cls-120{fill:url(#radial-gradient-118);}.cls-121{fill:url(#radial-gradient-119);}.cls-122{fill:url(#radial-gradient-120);}.cls-123{fill:url(#radial-gradient-121);}.cls-124{fill:url(#radial-gradient-122);}.cls-125{fill:url(#radial-gradient-123);}.cls-126{fill:url(#radial-gradient-124);}.cls-127{fill:url(#radial-gradient-125);}.cls-128{fill:url(#radial-gradient-126);}.cls-129{fill:url(#radial-gradient-127);}.cls-130{fill:url(#radial-gradient-128);}.cls-131{fill:url(#radial-gradient-129);}.cls-132{fill:url(#radial-gradient-130);}.cls-133{fill:url(#radial-gradient-131);}.cls-134{fill:url(#radial-gradient-132);}.cls-135{fill:url(#radial-gradient-133);}.cls-136{fill:url(#radial-gradient-134);}.cls-137{fill:url(#radial-gradient-135);}.cls-138{fill:url(#radial-gradient-136);}.cls-139{fill:url(#radial-gradient-137);}.cls-140{fill:url(#radial-gradient-138);}.cls-141{fill:url(#radial-gradient-139);}.cls-142{fill:url(#radial-gradient-140);}.cls-143{fill:url(#radial-gradient-141);}.cls-144{fill:url(#radial-gradient-142);}.cls-145{fill:url(#radial-gradient-143);}.cls-146{fill:url(#radial-gradient-144);}.cls-147{fill:url(#radial-gradient-145);}.cls-148{fill:url(#radial-gradient-146);}.cls-149{fill:url(#radial-gradient-147);}.cls-150{opacity:0.25;fill:url(#radial-gradient-148);}.cls-151{fill:url(#radial-gradient-149);}.cls-152{fill:url(#radial-gradient-150);}.cls-153{fill:url(#radial-gradient-151);}.cls-154{fill:url(#radial-gradient-152);}.cls-155{fill:url(#radial-gradient-153);}.cls-156{fill:url(#radial-gradient-154);}.cls-157{fill:url(#radial-gradient-155);}.cls-158{fill:url(#radial-gradient-156);}.cls-159{fill:url(#radial-gradient-157);}</style><radialGradient id="radial-gradient" cx="-2829.55" cy="909.26" r="10.89" gradientTransform="matrix(-1, 0, 0, 1, -2693.62, 0)" gradientUnits="userSpaceOnUse"><stop offset="0.06" stop-color="#e47e99"/><stop offset="0.53" stop-color="#e43d99"/><stop offset="0.99" stop-color="#b30058"/></radialGradient><radialGradient id="radial-gradient-2" cx="-3236.56" cy="813.7" r="18.15" xlink:href="#radial-gradient"/><radialGradient id="radial-gradient-3" cx="-2762.97" cy="1084.79" r="18.15" xlink:href="#radial-gradient"/><radialGradient id="radial-gradient-4" cx="-979.12" cy="-6913.13" r="475.02" gradientTransform="matrix(1, 0, 0, -1, 1291.25, -6134.92)" gradientUnits="userSpaceOnUse"><stop offset="0.06" stop-color="#0a1656"/><stop offset="0.89" stop-color="#4478ad"/></radialGradient><radialGradient id="radial-gradient-5" cx="-1179.48" cy="-7150.87" r="37.28" xlink:href="#radial-gradient-4"/><radialGradient id="radial-gradient-6" cx="-2830.21" cy="104.93" r="10.89" xlink:href="#radial-gradient"/><radialGradient id="radial-gradient-7" cx="-2860.47" cy="360.36" r="10.89" xlink:href="#radial-gradient"/><radialGradient id="radial-gradient-8" cx="-3189.7" cy="144.07" r="10.89" xlink:href="#radial-gradient"/><radialGradient id="radial-gradient-9" cx="-3215.17" cy="258.67" r="18.15" xlink:href="#radial-gradient"/><radialGradient id="radial-gradient-10" cx="-3145.5" cy="46.51" r="18.15" xlink:href="#radial-gradient"/><radialGradient id="radial-gradient-11" cx="-2763.63" cy="280.46" r="18.15" xlink:href="#radial-gradient"/><radialGradient id="radial-gradient-12" cx="-978.46" cy="-6108.8" r="475.01" xlink:href="#radial-gradient-4"/><radialGradient id="radial-gradient-13" cx="-978.46" cy="-6108.8" r="475.02" xlink:href="#radial-gradient-4"/><radialGradient id="radial-gradient-14" cx="-978.46" cy="-6108.8" r="475.02" xlink:href="#radial-gradient-4"/><radialGradient id="radial-gradient-15" cx="-978.46" cy="-6108.8" r="475.02" xlink:href="#radial-gradient-4"/><radialGradient id="radial-gradient-16" cx="-978.46" cy="-6108.8" r="475.02" xlink:href="#radial-gradient-4"/><radialGradient id="radial-gradient-17" cx="-978.46" cy="-6108.8" r="475.02" xlink:href="#radial-gradient-4"/><radialGradient id="radial-gradient-18" cx="-1178.82" cy="-6346.54" r="37.28" xlink:href="#radial-gradient-4"/><radialGradient id="radial-gradient-19" cx="-809.2" cy="-6484.53" r="38.23" xlink:href="#radial-gradient-4"/><radialGradient id="radial-gradient-20" cx="-4489.26" cy="240.45" r="7.94" xlink:href="#radial-gradient"/><radialGradient id="radial-gradient-21" cx="-5379.37" cy="-1099.6" r="7.94" gradientTransform="matrix(-0.94, -0.34, -0.34, 0.94, -3712.9, -748.14)" xlink:href="#radial-gradient"/><radialGradient id="radial-gradient-22" cx="-5077.31" cy="-398.95" r="7.94" gradientTransform="matrix(-0.96, -0.29, -0.29, 0.96, -3514.57, -561.01)" xlink:href="#radial-gradient"/><radialGradient id="radial-gradient-23" cx="-4836.38" cy="-665.41" r="25.5" gradientTransform="matrix(-0.96, -0.28, -0.28, 0.96, -3516.73, -532.75)" xlink:href="#radial-gradient"/><radialGradient id="radial-gradient-24" cx="-5070.15" cy="-357.13" r="13.24" gradientTransform="matrix(-0.96, -0.29, -0.29, 0.96, -3514.57, -561.01)" xlink:href="#radial-gradient"/><radialGradient id="radial-gradient-25" cx="-4498.68" cy="97.59" r="13.24" xlink:href="#radial-gradient"/><radialGradient id="radial-gradient-26" cx="-2914.88" cy="1372.75" r="362.26" gradientTransform="matrix(-0.96, 0.29, 0.29, 0.96, -1524.06, 89.21)" xlink:href="#radial-gradient-4"/><radialGradient id="radial-gradient-27" cx="-2914.88" cy="1372.75" r="362.26" gradientTransform="matrix(-0.96, 0.29, 0.29, 0.96, -1524.06, 89.21)" xlink:href="#radial-gradient-4"/><radialGradient id="radial-gradient-28" cx="-2960.18" cy="1253.61" r="475.02" gradientTransform="matrix(-0.96, 0.29, 0.29, 0.96, -1524.06, 89.21)" xlink:href="#radial-gradient-4"/><radialGradient id="radial-gradient-29" cx="-2914.87" cy="1372.75" r="362.25" gradientTransform="matrix(-0.96, 0.29, 0.29, 0.96, -1524.06, 89.21)" xlink:href="#radial-gradient-4"/><radialGradient id="radial-gradient-30" cx="-2996.03" cy="1215.25" r="362.25" gradientTransform="matrix(-0.96, 0.29, 0.29, 0.96, -1524.06, 89.21)" xlink:href="#radial-gradient-4"/><radialGradient id="radial-gradient-31" cx="-2996.02" cy="1215.25" r="362.26" gradientTransform="matrix(-0.96, 0.29, 0.29, 0.96, -1524.06, 89.21)" xlink:href="#radial-gradient-4"/><radialGradient id="radial-gradient-32" cx="502.66" cy="-6298.22" r="28.66" xlink:href="#radial-gradient-4"/><radialGradient id="radial-gradient-33" cx="-5066.96" cy="-1220.06" r="9.9" gradientTransform="matrix(-0.92, -0.39, -0.39, 0.92, -3835.37, -814.41)" xlink:href="#radial-gradient"/><radialGradient id="radial-gradient-34" cx="-4832.85" cy="-1039.54" r="16.5" gradientTransform="matrix(-0.93, -0.36, -0.36, 0.93, -3762.42, -716.25)" xlink:href="#radial-gradient"/><radialGradient id="radial-gradient-35" cx="2249.87" cy="-2378.79" r="475.03" gradientTransform="matrix(0.42, 0.91, 0.91, -0.42, 2724.89, -2902.5)" xlink:href="#radial-gradient-4"/><radialGradient id="radial-gradient-36" cx="-5762.15" cy="-4401.34" r="28.66" gradientTransform="matrix(-0.13, -0.99, -0.99, 0.13, -3819.52, -4861.76)" xlink:href="#radial-gradient-4"/><radialGradient id="radial-gradient-37" cx="-759.69" cy="-6571.23" r="457.04" gradientTransform="matrix(0.94, -0.34, -0.34, -0.94, 204.07, -6594.17)" xlink:href="#radial-gradient-4"/><radialGradient id="radial-gradient-38" cx="-3887.18" cy="549.94" r="36.16" gradientTransform="matrix(-1, 0.05, 0.05, 1, -2301.55, -239.82)" xlink:href="#radial-gradient-4"/><radialGradient id="radial-gradient-39" cx="-4384" cy="386.8" r="599.31" gradientTransform="matrix(-0.92, -0.39, -0.39, 0.92, -4167.73, -1136.33)" xlink:href="#radial-gradient-4"/><radialGradient id="radial-gradient-40" cx="1651.86" cy="-4960.5" r="47.42" gradientTransform="matrix(0.76, 0.65, 0.65, -0.76, 1998.5, -4073.92)" xlink:href="#radial-gradient-4"/><radialGradient id="radial-gradient-41" cx="1260.04" cy="-4640.95" r="599.25" gradientTransform="matrix(0.81, 0.58, 0.58, -0.81, 2861.31, -4570.2)" xlink:href="#radial-gradient-4"/><radialGradient id="radial-gradient-42" cx="-5216.15" cy="-1803.47" r="47.42" gradientTransform="matrix(-0.61, -0.79, -0.79, 0.61, -3792.73, -3024.41)" xlink:href="#radial-gradient-4"/><radialGradient id="radial-gradient-43" cx="-5216.15" cy="-1803.47" r="47.42" gradientTransform="matrix(-0.61, -0.79, -0.79, 0.61, -3792.73, -3024.41)" xlink:href="#radial-gradient-4"/><radialGradient id="radial-gradient-44" cx="102.87" cy="-6243.25" r="36.98" xlink:href="#radial-gradient-4"/><radialGradient id="radial-gradient-45" cx="-4521.99" cy="940.56" r="10.41" xlink:href="#radial-gradient"/><radialGradient id="radial-gradient-46" cx="-4405.84" cy="812.3" r="7.94" xlink:href="#radial-gradient"/><radialGradient id="radial-gradient-47" cx="-3500.44" cy="1110.8" r="10.41" xlink:href="#radial-gradient"/><radialGradient id="radial-gradient-48" cx="-4409.83" cy="295.67" r="17.36" gradientTransform="matrix(-0.96, -0.26, -0.26, 0.96, -3425.7, -442.45)" xlink:href="#radial-gradient"/><radialGradient id="radial-gradient-49" cx="-5117.54" cy="-85.18" r="17.36" gradientTransform="matrix(-0.95, -0.3, -0.3, 0.95, -3514.44, -579.74)" xlink:href="#radial-gradient"/><radialGradient id="radial-gradient-50" cx="-4494.29" cy="848.98" r="13.24" xlink:href="#radial-gradient"/><radialGradient id="radial-gradient-51" cx="-2780.79" cy="1925.44" r="475.02" gradientTransform="matrix(-0.96, 0.29, 0.29, 0.96, -1524.06, 89.21)" xlink:href="#radial-gradient-4"/><radialGradient id="radial-gradient-52" cx="-3083.94" cy="1821.32" r="362.26" gradientTransform="matrix(-0.96, 0.29, 0.29, 0.96, -1524.06, 89.21)" xlink:href="#radial-gradient-4"/><radialGradient id="radial-gradient-53" cx="-2773" cy="1987.6" r="475.02" gradientTransform="matrix(-0.96, 0.29, 0.29, 0.96, -1524.06, 89.21)" xlink:href="#radial-gradient-4"/><radialGradient id="radial-gradient-54" cx="-2113.6" cy="1828.68" r="475.02" gradientTransform="matrix(-0.96, 0.29, 0.29, 0.96, -1524.06, 89.21)" xlink:href="#radial-gradient-4"/><radialGradient id="radial-gradient-55" cx="-2780.79" cy="1925.44" r="475.03" gradientTransform="matrix(-0.96, 0.29, 0.29, 0.96, -1524.06, 89.21)" xlink:href="#radial-gradient-4"/><radialGradient id="radial-gradient-56" cx="-2772.12" cy="1932.52" r="362.27" gradientTransform="matrix(-0.96, 0.29, 0.29, 0.96, -1524.06, 89.21)" xlink:href="#radial-gradient-4"/><radialGradient id="radial-gradient-57" cx="305.31" cy="-6809.32" r="28.66" xlink:href="#radial-gradient-4"/><radialGradient id="radial-gradient-58" cx="-3955.88" cy="913.83" r="10.82" xlink:href="#radial-gradient"/><radialGradient id="radial-gradient-59" cx="-3998.42" cy="1135.42" r="10.82" xlink:href="#radial-gradient"/><radialGradient id="radial-gradient-60" cx="-3823.97" cy="959.79" r="18.03" xlink:href="#radial-gradient"/><radialGradient id="radial-gradient-61" cx="-5.09" cy="-6633.16" r="475.04" gradientTransform="matrix(0.99, -0.12, -0.12, -0.99, 646.52, -5709.43)" xlink:href="#radial-gradient-4"/><radialGradient id="radial-gradient-62" cx="-44.94" cy="-6374.24" r="475.04" gradientTransform="matrix(0.99, -0.12, -0.12, -0.99, 646.52, -5709.43)" xlink:href="#radial-gradient-4"/><radialGradient id="radial-gradient-63" cx="-129.71" cy="-7018.76" r="37.15" xlink:href="#radial-gradient-4"/><radialGradient id="radial-gradient-64" cx="-4533.38" cy="375.27" r="8.25" xlink:href="#radial-gradient"/><radialGradient id="radial-gradient-65" cx="-4500.14" cy="744.13" r="8.25" xlink:href="#radial-gradient"/><radialGradient id="radial-gradient-66" cx="-4488.12" cy="659.3" r="13.75" xlink:href="#radial-gradient"/><radialGradient id="radial-gradient-67" cx="571.53" cy="-6080.19" r="362.27" gradientTransform="matrix(0.99, -0.12, -0.12, -0.99, 646.52, -5709.43)" xlink:href="#radial-gradient-4"/><radialGradient id="radial-gradient-68" cx="520.12" cy="-6249.76" r="362.27" gradientTransform="matrix(0.99, -0.12, -0.12, -0.99, 646.52, -5709.43)" xlink:href="#radial-gradient-4"/><radialGradient id="radial-gradient-69" cx="537.28" cy="-6591.09" r="28.33" xlink:href="#radial-gradient-4"/><radialGradient id="radial-gradient-70" cx="-3864.87" cy="201.83" r="10.82" xlink:href="#radial-gradient"/><radialGradient id="radial-gradient-71" cx="-3524.47" cy="421.23" r="10.82" xlink:href="#radial-gradient"/><radialGradient id="radial-gradient-72" cx="-565.8" cy="-6487.95" r="18.03" gradientTransform="matrix(1, 0, 0, -1, 1291.25, -6134.92)" gradientUnits="userSpaceOnUse"><stop offset="0.06" stop-color="#66b0d8"/><stop offset="1" stop-color="#3f1f7d"/></radialGradient><radialGradient id="radial-gradient-73" cx="16.43" cy="-5801.55" r="475.04" gradientTransform="matrix(0.99, -0.12, -0.12, -0.99, 646.52, -5709.43)" xlink:href="#radial-gradient-4"/><radialGradient id="radial-gradient-74" cx="-377.26" cy="-5724.83" r="475.05" gradientTransform="matrix(0.99, -0.12, -0.12, -0.99, 646.52, -5709.43)" xlink:href="#radial-gradient-4"/><radialGradient id="radial-gradient-75" cx="-534.61" cy="-6411.99" r="37.15" xlink:href="#radial-gradient-4"/><radialGradient id="radial-gradient-76" cx="372.63" cy="-6890.83" r="28.2" xlink:href="#radial-gradient-4"/><radialGradient id="radial-gradient-77" cx="-2836.82" cy="2247.61" r="475.02" gradientTransform="matrix(-0.96, 0.29, 0.29, 0.96, -1524.06, 89.21)" xlink:href="#radial-gradient-4"/><radialGradient id="radial-gradient-78" cx="-4447.45" cy="1079.51" r="10.82" xlink:href="#radial-gradient"/><radialGradient id="radial-gradient-79" cx="357.18" cy="-7146.23" r="18.03" xlink:href="#radial-gradient-72"/><radialGradient id="radial-gradient-80" cx="463.77" cy="-6485.11" r="475.04" gradientTransform="matrix(0.99, -0.12, -0.12, -0.99, 646.52, -5709.43)" xlink:href="#radial-gradient-4"/><radialGradient id="radial-gradient-81" cx="275.54" cy="-7229.88" r="36.98" xlink:href="#radial-gradient-4"/><radialGradient id="radial-gradient-82" cx="-4280.1" cy="-6215.85" r="17.36" gradientTransform="matrix(0.25, -0.97, -0.97, -0.25, -3930.25, -5246.25)" xlink:href="#radial-gradient"/><radialGradient id="radial-gradient-83" cx="-5510.96" cy="-3916.21" r="475.03" gradientTransform="matrix(-0.29, -0.96, -0.96, 0.29, -4467.07, -3362.29)" xlink:href="#radial-gradient-4"/><radialGradient id="radial-gradient-84" cx="-5503.17" cy="-3854.05" r="475.02" gradientTransform="matrix(-0.29, -0.96, -0.96, 0.29, -4467.07, -3362.29)" xlink:href="#radial-gradient-4"/><radialGradient id="radial-gradient-85" cx="-4833.11" cy="-5354.49" r="10.82" gradientTransform="matrix(0, -1, -1, 0, -4377.86, -4531.84)" xlink:href="#radial-gradient"/><radialGradient id="radial-gradient-86" cx="-4806.61" cy="-5240.32" r="10.82" gradientTransform="matrix(0, -1, -1, 0, -4377.86, -4531.84)" xlink:href="#radial-gradient"/><radialGradient id="radial-gradient-87" cx="-4701.2" cy="-5308.53" r="18.03" gradientTransform="matrix(0, -1, -1, 0, -4377.86, -4531.84)" xlink:href="#radial-gradient"/><radialGradient id="radial-gradient-88" cx="1618.4" cy="-393.55" r="475.04" gradientTransform="matrix(0.12, 0.99, 0.99, -0.12, 1331.57, -1191.71)" xlink:href="#radial-gradient-4"/><radialGradient id="radial-gradient-89" cx="1548.65" cy="-248.46" r="475.04" gradientTransform="matrix(0.12, 0.99, 0.99, -0.12, 1331.57, -1191.71)" xlink:href="#radial-gradient-4"/><radialGradient id="radial-gradient-90" cx="-4732.38" cy="-5384.48" r="37.15" gradientTransform="matrix(0, -1, -1, 0, -4377.86, -4531.84)" xlink:href="#radial-gradient-4"/><radialGradient id="radial-gradient-91" cx="-5566.99" cy="-3594.03" r="475.02" gradientTransform="matrix(-0.29, -0.96, -0.96, 0.29, -4467.07, -3362.29)" xlink:href="#radial-gradient-4"/><radialGradient id="radial-gradient-92" cx="1250.53" cy="-739.59" r="18.03" gradientTransform="matrix(0, 1, 1, 0, 1757.06, -546.98)" xlink:href="#radial-gradient-72"/><radialGradient id="radial-gradient-93" cx="2096.14" cy="-246.69" r="475.04" gradientTransform="matrix(0.12, 0.99, 0.99, -0.12, 1331.57, -1191.71)" xlink:href="#radial-gradient-4"/><radialGradient id="radial-gradient-94" cx="-5163.17" cy="-5289.71" r="36.98" gradientTransform="matrix(0, -1, -1, 0, -4377.86, -4531.84)" xlink:href="#radial-gradient-4"/><radialGradient id="radial-gradient-95" cx="-2859.51" cy="601.58" r="10.41" xlink:href="#radial-gradient"/><radialGradient id="radial-gradient-96" cx="-345.69" cy="-6020.24" r="17.36" gradientTransform="matrix(0.97, 0.26, 0.26, -0.97, 1974.81, -5283.55)" xlink:href="#radial-gradient-72"/><radialGradient id="radial-gradient-97" cx="-4406.16" cy="197.93" r="17.36" gradientTransform="matrix(-0.97, -0.24, -0.24, 0.97, -3378.72, -406.05)" xlink:href="#radial-gradient"/><radialGradient id="radial-gradient-98" cx="-1649.58" cy="1154.31" r="475.02" gradientTransform="matrix(-0.96, 0.29, 0.29, 0.96, -1524.06, 89.21)" xlink:href="#radial-gradient-4"/><radialGradient id="radial-gradient-99" cx="-2036.55" cy="1319.51" r="475.02" gradientTransform="matrix(-0.96, 0.29, 0.29, 0.96, -1524.06, 89.21)" xlink:href="#radial-gradient-4"/><radialGradient id="radial-gradient-100" cx="-4061.03" cy="265.86" r="8.31" xlink:href="#radial-gradient"/><radialGradient id="radial-gradient-101" cx="-4084.11" cy="460.66" r="8.3" xlink:href="#radial-gradient"/><radialGradient id="radial-gradient-102" cx="-4335.19" cy="295.71" r="8.3" xlink:href="#radial-gradient"/><radialGradient id="radial-gradient-103" cx="-4354.61" cy="383.11" r="13.84" xlink:href="#radial-gradient"/><radialGradient id="radial-gradient-104" cx="-4364.77" cy="218.78" r="13.84" xlink:href="#radial-gradient"/><radialGradient id="radial-gradient-105" cx="-4010.26" cy="399.72" r="13.84" xlink:href="#radial-gradient"/><radialGradient id="radial-gradient-106" cx="210.54" cy="-6300.84" r="362.26" xlink:href="#radial-gradient-4"/><radialGradient id="radial-gradient-107" cx="210.54" cy="-6300.85" r="362.25" xlink:href="#radial-gradient-4"/><radialGradient id="radial-gradient-108" cx="210.53" cy="-6300.85" r="362.26" xlink:href="#radial-gradient-4"/><radialGradient id="radial-gradient-109" cx="210.54" cy="-6300.84" r="362.26" xlink:href="#radial-gradient-4"/><radialGradient id="radial-gradient-110" cx="210.54" cy="-6300.84" r="362.27" xlink:href="#radial-gradient-4"/><radialGradient id="radial-gradient-111" cx="210.54" cy="-6300.85" r="362.25" xlink:href="#radial-gradient-4"/><radialGradient id="radial-gradient-112" cx="57.74" cy="-6482.15" r="28.43" xlink:href="#radial-gradient-4"/><radialGradient id="radial-gradient-113" cx="339.63" cy="-6587.38" r="29.16" xlink:href="#radial-gradient-4"/><radialGradient id="radial-gradient-114" cx="-5246.48" cy="-5668.44" r="10.89" gradientTransform="matrix(0, -1, -1, 0, -4252.06, -4491.62)" xlink:href="#radial-gradient"/><radialGradient id="radial-gradient-115" cx="-5276.91" cy="-5421.97" r="10.89" gradientTransform="matrix(0, -1, -1, 0, -4252.06, -4491.62)" xlink:href="#radial-gradient"/><radialGradient id="radial-gradient-116" cx="-5489.46" cy="-5645.89" r="10.89" gradientTransform="matrix(0, -1, -1, 0, -4252.06, -4491.62)" xlink:href="#radial-gradient"/><radialGradient id="radial-gradient-117" cx="-5528.24" cy="-5746.77" r="18.15" gradientTransform="matrix(0, -1, -1, 0, -4252.06, -4491.62)" xlink:href="#radial-gradient"/><radialGradient id="radial-gradient-118" cx="-5180.07" cy="-5501.87" r="18.15" gradientTransform="matrix(0, -1, -1, 0, -4252.06, -4491.62)" xlink:href="#radial-gradient"/><radialGradient id="radial-gradient-119" cx="1321.3" cy="-318.84" r="475.01" gradientTransform="matrix(0, 1, 1, 0, 1882.86, -506.76)" xlink:href="#radial-gradient-4"/><radialGradient id="radial-gradient-120" cx="1321.46" cy="-309.89" r="475.02" gradientTransform="matrix(0, 1, 1, 0, 1882.86, -506.76)" xlink:href="#radial-gradient-4"/><radialGradient id="radial-gradient-121" cx="1321.46" cy="-309.89" r="475.02" gradientTransform="matrix(0, 1, 1, 0, 1882.86, -506.76)" xlink:href="#radial-gradient-4"/><radialGradient id="radial-gradient-122" cx="1444.28" cy="-314.04" r="362.27" gradientTransform="matrix(0, 1, 1, 0, 1882.86, -506.76)" xlink:href="#radial-gradient-4"/><radialGradient id="radial-gradient-123" cx="1437.98" cy="-326.48" r="475.02" gradientTransform="matrix(0, 1, 1, 0, 1882.86, -506.76)" xlink:href="#radial-gradient-4"/><radialGradient id="radial-gradient-124" cx="-5222.31" cy="-5561.76" r="37.28" gradientTransform="matrix(0, -1, -1, 0, -4252.06, -4491.62)" xlink:href="#radial-gradient-4"/><radialGradient id="radial-gradient-125" cx="-5591.28" cy="-5432.97" r="4.04" gradientTransform="matrix(0, -1, -1, 0, -4252.06, -4491.62)" xlink:href="#radial-gradient-4"/><radialGradient id="radial-gradient-126" cx="-3076.75" cy="1794.94" r="362.27" gradientTransform="matrix(-0.96, 0.29, 0.29, 0.96, -1524.06, 89.21)" xlink:href="#radial-gradient-4"/><radialGradient id="radial-gradient-127" cx="-1649.57" cy="1154.31" r="475.02" gradientTransform="matrix(-0.96, 0.29, 0.29, 0.96, -1524.06, 89.21)" xlink:href="#radial-gradient-4"/><radialGradient id="radial-gradient-128" cx="-1649.58" cy="1154.31" r="475.02" gradientTransform="matrix(-0.96, 0.29, 0.29, 0.96, -1524.06, 89.21)" xlink:href="#radial-gradient-4"/><radialGradient id="radial-gradient-129" cx="-1179.5" cy="-6531.51" r="36.98" xlink:href="#radial-gradient-4"/><radialGradient id="radial-gradient-130" cx="971.91" cy="507.52" r="10.89" gradientTransform="translate(-266.85)" xlink:href="#radial-gradient"/><radialGradient id="radial-gradient-131" cx="941.65" cy="762.95" r="10.89" gradientTransform="translate(-266.85)" xlink:href="#radial-gradient"/><radialGradient id="radial-gradient-132" cx="612.42" cy="546.67" r="10.89" gradientTransform="translate(-266.85)" xlink:href="#radial-gradient"/><radialGradient id="radial-gradient-133" cx="604.5" cy="683.49" r="18.15" gradientTransform="translate(-266.85)" xlink:href="#radial-gradient"/><radialGradient id="radial-gradient-134" cx="656.62" cy="449.1" r="18.15" gradientTransform="translate(-266.85)" xlink:href="#radial-gradient"/><radialGradient id="radial-gradient-135" cx="1038.5" cy="683.06" r="18.15" gradientTransform="translate(-266.85)" xlink:href="#radial-gradient"/><radialGradient id="radial-gradient-136" cx="-4780.58" cy="-6511.4" r="475.01" gradientTransform="translate(-4251.72 -6134.92) rotate(180)" xlink:href="#radial-gradient-4"/><radialGradient id="radial-gradient-137" cx="-4780.59" cy="-6511.4" r="475.02" gradientTransform="translate(-4251.72 -6134.92) rotate(180)" xlink:href="#radial-gradient-4"/><radialGradient id="radial-gradient-138" cx="-4780.59" cy="-6511.4" r="475.02" gradientTransform="translate(-4251.72 -6134.92) rotate(180)" xlink:href="#radial-gradient-4"/><radialGradient id="radial-gradient-139" cx="-4780.58" cy="-6511.4" r="475.02" gradientTransform="translate(-4251.72 -6134.92) rotate(180)" xlink:href="#radial-gradient-4"/><radialGradient id="radial-gradient-140" cx="-4780.58" cy="-6511.4" r="475.02" gradientTransform="translate(-4251.72 -6134.92) rotate(180)" xlink:href="#radial-gradient-4"/><radialGradient id="radial-gradient-141" cx="-4780.58" cy="-6511.4" r="475.02" gradientTransform="translate(-4251.72 -6134.92) rotate(180)" xlink:href="#radial-gradient-4"/><radialGradient id="radial-gradient-142" cx="-4980.95" cy="-6749.14" r="37.28" gradientTransform="translate(-4251.72 -6134.92) rotate(180)" xlink:href="#radial-gradient-4"/><radialGradient id="radial-gradient-143" cx="-4611.32" cy="-6887.13" r="38.23" gradientTransform="translate(-4251.72 -6134.92) rotate(180)" xlink:href="#radial-gradient-4"/><radialGradient id="radial-gradient-144" cx="-4981.62" cy="-6934.11" r="36.98" gradientTransform="translate(-4251.72 -6134.92) rotate(180)" xlink:href="#radial-gradient-4"/><radialGradient id="radial-gradient-145" cx="-2859.82" cy="1164.69" r="10.89" xlink:href="#radial-gradient"/><radialGradient id="radial-gradient-146" cx="-3189.05" cy="948.4" r="10.89" xlink:href="#radial-gradient"/><radialGradient id="radial-gradient-147" cx="-3214.51" cy="1063" r="18.15" xlink:href="#radial-gradient"/><radialGradient id="radial-gradient-148" cx="317.92" cy="942.81" r="475.03" gradientTransform="matrix(1, 0, 0, 1, 0, 0)" xlink:href="#radial-gradient-4"/><radialGradient id="radial-gradient-149" cx="-979.12" cy="-6913.14" r="475.02" xlink:href="#radial-gradient-4"/><radialGradient id="radial-gradient-150" cx="-979.12" cy="-6913.13" r="475.03" xlink:href="#radial-gradient-4"/><radialGradient id="radial-gradient-151" cx="-979.12" cy="-6913.13" r="475.03" xlink:href="#radial-gradient-4"/><radialGradient id="radial-gradient-152" cx="-809.85" cy="-7288.87" r="38.23" xlink:href="#radial-gradient-4"/><radialGradient id="radial-gradient-153" cx="-5555.13" cy="-5336.05" r="18.15" gradientTransform="matrix(0, -1, -1, 0, -4252.06, -4491.62)" xlink:href="#radial-gradient"/><radialGradient id="radial-gradient-154" cx="1321.46" cy="-309.89" r="475.02" gradientTransform="matrix(0, 1, 1, 0, 1882.86, -506.76)" xlink:href="#radial-gradient-4"/><radialGradient id="radial-gradient-155" cx="-3840.09" cy="1114.98" r="2.02" gradientTransform="matrix(-1, 0, 0, 1, -2693.62, 0)" xlink:href="#radial-gradient-4"/><radialGradient id="radial-gradient-156" cx="-3822.85" cy="1087.14" r="8.09" gradientTransform="matrix(-1, 0, 0, 1, -2693.62, 0)" xlink:href="#radial-gradient-4"/><radialGradient id="radial-gradient-157" cx="-3811.53" cy="1156.51" r="4.04" gradientTransform="matrix(-1, 0, 0, 1, -2693.62, 0)" xlink:href="#radial-gradient-4"/></defs><title>estrelas</title><g class="cls-1"><g id="Camada_2" data-name="Camada 2"><g id="Layer_1" data-name="Layer 1"><g class="cls-2"><path class="cls-3" d="M135.93,920.15s2.44-5.62,3.85-7,7-3.85,7-3.85-5.62-2.43-7-3.85-3.85-7-3.85-7-2.43,5.62-3.85,7-7,3.85-7,3.85,5.63,2.43,7,3.85S135.93,920.15,135.93,920.15Z"/><path class="cls-4" d="M542.94,831.85s4-9.37,6.42-11.74,11.73-6.41,11.73-6.41-9.37-4.06-11.73-6.42-6.42-11.74-6.42-11.74-4.05,9.37-6.42,11.74-11.73,6.42-11.73,6.42,9.37,4,11.73,6.41S542.94,831.85,542.94,831.85Z"/><path class="cls-5" d="M69.35,1103s4.06-9.37,6.42-11.74,11.74-6.42,11.74-6.42-9.37-4-11.74-6.41-6.42-11.74-6.42-11.74-4,9.37-6.42,11.74-11.73,6.41-11.73,6.41,9.37,4.06,11.73,6.42S69.35,1103,69.35,1103Z"/><path class="cls-6" d="M86.37,828.22a20.89,20.89,0,0,0,2.13,3.91,20.49,20.49,0,0,0,3.91,2.14,20.49,20.49,0,0,0-3.91,2.14,20.89,20.89,0,0,0-2.13,3.91,20.49,20.49,0,0,0-2.14-3.91,20.49,20.49,0,0,0-3.91-2.14,20.49,20.49,0,0,0,3.91-2.14A20.49,20.49,0,0,0,86.37,828.22Z"/><path class="cls-7" d="M118.5,1013.93a2,2,0,1,1,2-2A2,2,0,0,1,118.5,1013.93Zm22.24,31a4,4,0,1,0-4,4A4,4,0,0,0,140.74,1044.92Zm12.13-52.55a8.09,8.09,0,1,0-8.09,8.08A8.09,8.09,0,0,0,152.87,992.37ZM78.75,987a4,4,0,1,0-4,4A4,4,0,0,0,78.75,987Z"/></g><path class="cls-8" d="M136.59,115.82s2.43-5.62,3.85-7,7-3.85,7-3.85-5.62-2.43-7-3.85-3.85-7-3.85-7-2.43,5.62-3.85,7-7,3.85-7,3.85,5.62,2.43,7,3.85S136.59,115.82,136.59,115.82Z"/><path class="cls-9" d="M166.85,371.25s2.44-5.62,3.85-7,7-3.85,7-3.85-5.62-2.43-7-3.85-3.85-7-3.85-7-2.43,5.62-3.85,7-7,3.85-7,3.85,5.62,2.43,7,3.85S166.85,371.25,166.85,371.25Z"/><path class="cls-10" d="M496.08,155s2.44-5.62,3.85-7,7-3.85,7-3.85-5.62-2.43-7-3.85-3.85-7-3.85-7-2.43,5.62-3.85,7-7,3.85-7,3.85,5.63,2.43,7,3.85S496.08,155,496.08,155Z"/><path class="cls-11" d="M521.55,276.82s4.05-9.37,6.42-11.73,11.73-6.42,11.73-6.42-9.37-4.05-11.73-6.42-6.42-11.73-6.42-11.73-4,9.37-6.42,11.73-11.73,6.42-11.73,6.42,9.37,4.05,11.73,6.42S521.55,276.82,521.55,276.82Z"/><path class="cls-12" d="M451.88,64.66s4.06-9.37,6.42-11.73S470,46.51,470,46.51s-9.37-4.06-11.74-6.42-6.42-11.73-6.42-11.73-4.05,9.37-6.42,11.73-11.73,6.42-11.73,6.42,9.37,4.05,11.73,6.42S451.88,64.66,451.88,64.66Z"/><path class="cls-13" d="M70,298.61s4-9.37,6.42-11.73,11.73-6.42,11.73-6.42-9.37-4-11.73-6.42S70,262.31,70,262.31,66,271.68,63.59,274s-11.74,6.42-11.74,6.42,9.38,4.05,11.74,6.42S70,298.61,70,298.61Z"/><path class="cls-14" d="M479.41,74.77a6.08,6.08,0,1,1-6.07,6.08A6.08,6.08,0,0,1,479.41,74.77Z"/><path class="cls-15" d="M380.62,407.64a20.49,20.49,0,0,0,2.14,3.91,20.49,20.49,0,0,0,3.91,2.14,20.49,20.49,0,0,0-3.91,2.14,20.19,20.19,0,0,0-2.14,3.91,20.19,20.19,0,0,0-2.14-3.91,20.19,20.19,0,0,0-3.91-2.14,20.19,20.19,0,0,0,3.91-2.14A20.49,20.49,0,0,0,380.62,407.64Z"/><path class="cls-16" d="M547.68,291.43a20.18,20.18,0,0,0,2.14,3.9,20.49,20.49,0,0,0,3.91,2.14,20.49,20.49,0,0,0-3.91,2.14,20.49,20.49,0,0,0-2.14,3.91,20.49,20.49,0,0,0-2.14-3.91,20.19,20.19,0,0,0-3.91-2.14,20.19,20.19,0,0,0,3.91-2.14A20.18,20.18,0,0,0,547.68,291.43Z"/><path class="cls-17" d="M464.43,208.82a21.08,21.08,0,0,0,2.14,3.91,20.49,20.49,0,0,0,3.91,2.14,20.89,20.89,0,0,0-3.91,2.13,21.08,21.08,0,0,0-2.14,3.91A20.89,20.89,0,0,0,462.3,217a20.89,20.89,0,0,0-3.91-2.13,20.49,20.49,0,0,0,3.91-2.14A20.89,20.89,0,0,0,464.43,208.82Z"/><path class="cls-18" d="M87,23.89a20.49,20.49,0,0,0,2.14,3.91,20.49,20.49,0,0,0,3.91,2.14,20.49,20.49,0,0,0-3.91,2.14A20.19,20.19,0,0,0,87,36a20.19,20.19,0,0,0-2.14-3.91A20.49,20.49,0,0,0,81,29.94a20.49,20.49,0,0,0,3.91-2.14A20.49,20.49,0,0,0,87,23.89Z"/><path class="cls-19" d="M157.17,297.41a20.19,20.19,0,0,0,2.14,3.91,20.19,20.19,0,0,0,3.91,2.14,20.19,20.19,0,0,0-3.91,2.14,20.49,20.49,0,0,0-2.14,3.91A20.49,20.49,0,0,0,155,305.6a20.49,20.49,0,0,0-3.91-2.14,20.49,20.49,0,0,0,3.91-2.14A20.19,20.19,0,0,0,157.17,297.41Z"/><path class="cls-20" d="M119.16,209.6a2,2,0,1,1,2-2A2,2,0,0,1,119.16,209.6Zm22.23,31a4,4,0,1,0-4,4A4,4,0,0,0,141.39,240.59ZM153.52,188a8.09,8.09,0,1,0-8.08,8.08A8.09,8.09,0,0,0,153.52,188Zm-74.11-5.4a4,4,0,1,0-4,4.05A4,4,0,0,0,79.41,182.64Z"/><path class="cls-21" d="M477.4,350.54a2,2,0,1,1-2.18,1.84A2,2,0,0,1,477.4,350.54Zm-19.52-32.77a4,4,0,1,0,4.37-3.68A4,4,0,0,0,457.88,317.77Zm-16.55,51.34a8.09,8.09,0,1,0,8.75-7.37A8.1,8.1,0,0,0,441.33,369.11Zm73.4,11.65a4,4,0,1,0,4.37-3.68A4,4,0,0,0,514.73,380.76Z"/><path class="cls-22" d="M1793.22,232.51s-.52,4.64-1.24,6-4.28,4.38-4.28,4.38,4.64.52,6,1.24,4.37,4.27,4.37,4.27.52-4.64,1.24-6,4.28-4.38,4.28-4.38-4.65-.52-6-1.23S1793.22,232.51,1793.22,232.51Z"/><path class="cls-23" d="M1716.2,65.65s-2.08,4.18-3.22,5.2-5.53,2.63-5.53,2.63,4.18,2.09,5.2,3.23,2.64,5.52,2.64,5.52,2.09-4.18,3.23-5.2S1724,74.4,1724,74.4s-4.18-2.09-5.2-3.23S1716.2,65.65,1716.2,65.65Z"/><path class="cls-24" d="M1465.67,495.33s-1.82,4.3-2.9,5.39-5.34,3-5.34,3,4.3,1.83,5.39,2.9,3,5.35,3,5.35,1.82-4.31,2.89-5.4,5.35-3,5.35-3-4.3-1.82-5.39-2.9S1465.67,495.33,1465.67,495.33Z"/><path class="cls-25" d="M1315.68,132.31s-5.71,13.87-9.12,17.41-17.07,9.73-17.07,9.73,13.87,5.71,17.4,9.12,9.73,17.06,9.73,17.06,5.71-13.86,9.12-17.4,17.07-9.73,17.07-9.73-13.87-5.71-17.4-9.12S1315.68,132.31,1315.68,132.31Z"/><path class="cls-26" d="M1446.85,527.83s-3,7.17-4.83,9-8.91,5-8.91,5,7.17,3,9,4.83,5,8.91,5,8.91,3-7.17,4.82-9,8.92-5,8.92-5-7.17-3-9-4.83S1446.85,527.83,1446.85,527.83Z"/><path class="cls-27" d="M1801,84.35s-.87,7.74-2.06,10-7.13,7.3-7.13,7.3,7.74.86,10,2.06,7.3,7.13,7.3,7.13.86-7.74,2.06-10,7.13-7.3,7.13-7.3-7.74-.86-10-2.06S1801,84.35,1801,84.35Z"/><path class="cls-28" d="M1520.8,513.24a4.63,4.63,0,1,1,3.08-5.78A4.63,4.63,0,0,1,1520.8,513.24Z"/><path class="cls-29" d="M1518.63,248.45a15.88,15.88,0,0,0-2.44-2.37,15.56,15.56,0,0,0-3.32-.69,15.71,15.71,0,0,0,2.37-2.43,15.62,15.62,0,0,0,.69-3.33,15.66,15.66,0,0,0,2.43,2.38,16.11,16.11,0,0,0,3.33.68,15.66,15.66,0,0,0-2.38,2.43A15.45,15.45,0,0,0,1518.63,248.45Z"/><path class="cls-30" d="M1355.83,187.49a20.42,20.42,0,0,0-3.18-3.11,20.79,20.79,0,0,0-4.37-.9,20.6,20.6,0,0,0,3.11-3.19,20.15,20.15,0,0,0,.91-4.36,20.42,20.42,0,0,0,3.18,3.11,20.79,20.79,0,0,0,4.37.9,21,21,0,0,0-3.12,3.19A20.61,20.61,0,0,0,1355.83,187.49Z"/><path class="cls-31" d="M1501.84,412.14a15.26,15.26,0,0,0-2.43-2.37,15.74,15.74,0,0,0-3.33-.69,15.71,15.71,0,0,0,2.37-2.43,15.62,15.62,0,0,0,.69-3.33,6.06,6.06,0,0,0,5.76,3.06,15.66,15.66,0,0,0-2.38,2.43A15.45,15.45,0,0,0,1501.84,412.14Z"/><path class="cls-32" d="M1849.87,288.5a15.84,15.84,0,0,0-2.44-2.38,16,16,0,0,0-3.32-.68,15.71,15.71,0,0,0,2.37-2.43,15.62,15.62,0,0,0,.69-3.33,6.06,6.06,0,0,0,5.76,3.06,15.66,15.66,0,0,0-2.38,2.43A15.45,15.45,0,0,0,1849.87,288.5Z"/><path class="cls-33" d="M1737.71,104.66a15.71,15.71,0,0,0-2.43-2.37,15.62,15.62,0,0,0-3.33-.69,15.66,15.66,0,0,0,2.38-2.43,15.62,15.62,0,0,0,.69-3.33,15.66,15.66,0,0,0,2.43,2.38,16.11,16.11,0,0,0,3.33.68,15.66,15.66,0,0,0-2.38,2.43A15.62,15.62,0,0,0,1737.71,104.66Z"/><path class="cls-34" d="M1785,160.23a1.54,1.54,0,1,1-1,1.93A1.54,1.54,0,0,1,1785,160.23Zm-23.13-17.64a3.09,3.09,0,1,0,2-3.85A3.08,3.08,0,0,0,1761.89,142.59Zm2.87,41a6.17,6.17,0,1,0,4.1-7.7A6.17,6.17,0,0,0,1764.76,183.62ZM1820,171a3.08,3.08,0,1,0,2-3.85A3.08,3.08,0,0,0,1820,171Z"/><path class="cls-35" d="M1299.89,11.27s5.71,2.23,7.17,3.6,4.1,6.9,4.1,6.9,2.23-5.71,3.6-7.17,6.9-4.1,6.9-4.1-5.7-2.23-7.17-3.6-4.1-6.9-4.1-6.9-2.23,5.7-3.6,7.17S1299.89,11.27,1299.89,11.27Z"/><path class="cls-36" d="M1104.33,43.39s9.61,3.44,12.12,5.65,7.16,11.3,7.16,11.3,3.44-9.62,5.65-12.13,11.3-7.16,11.3-7.16-9.62-3.44-12.13-5.65-7.16-11.29-7.16-11.29-3.44,9.61-5.65,12.12S1104.33,43.39,1104.33,43.39Z"/><path class="cls-37" d="M1143.41,128.5a20.54,20.54,0,0,0-2.66,3.58,20.25,20.25,0,0,0-.31,4.44,20.78,20.78,0,0,0-3.57-2.66,21,21,0,0,0-4.45-.31,20.78,20.78,0,0,0,2.66-3.57,20.36,20.36,0,0,0,.31-4.45,20,20,0,0,0,3.58,2.66A20.25,20.25,0,0,0,1143.41,128.5Z"/><path class="cls-38" d="M1309.47,271.18a1.54,1.54,0,1,1,2,.76A1.54,1.54,0,0,1,1309.47,271.18Zm-14.4,25.27a3.08,3.08,0,1,0-4.09-1.51A3.07,3.07,0,0,0,1295.07,296.45Zm40.28-8.32a6.17,6.17,0,1,0-8.18-3A6.17,6.17,0,0,0,1335.35,288.13Zm-19.85-53.08a3.08,3.08,0,1,0-4.09-1.51A3.09,3.09,0,0,0,1315.5,235.05Z"/><path class="cls-39" d="M1682.45,188.6a19.92,19.92,0,0,0,3.21,2.84,20.16,20.16,0,0,0,4.24.66,19.92,19.92,0,0,0-2.84,3.21,19.44,19.44,0,0,0-.66,4.23,19.92,19.92,0,0,0-3.21-2.84A20.16,20.16,0,0,0,1679,196a19.45,19.45,0,0,0,2.84-3.21A19.44,19.44,0,0,0,1682.45,188.6Z"/><path class="cls-40" d="M1619.4,121.51a1.95,1.95,0,1,1,1.17-2.49A1.94,1.94,0,0,1,1619.4,121.51Zm30.24,20.8a3.89,3.89,0,1,0-2.34,5A3.89,3.89,0,0,0,1649.64,142.31Zm-6.17-51.52a7.78,7.78,0,1,0-4.68,9.95A7.78,7.78,0,0,0,1643.47,90.79Zm-68.84,19.3a3.89,3.89,0,1,0-2.34,5A3.89,3.89,0,0,0,1574.63,110.09Z"/><path class="cls-41" d="M50.93,647.28s0-4.3-.54-5.6-3.47-4.42-3.47-4.42,4.29,0,5.59-.54,4.43-3.47,4.43-3.47,0,4.29.53,5.59S61,643.27,61,643.27s-4.3,0-5.6.53S50.93,647.28,50.93,647.28Z"/><path class="cls-42" d="M51.39,768A2.55,2.55,0,1,1,48,769.34,2.55,2.55,0,0,1,51.39,768ZM41,721a5.1,5.1,0,1,0,6.69-2.68A5.1,5.1,0,0,0,41,721ZM.83,775.93a10.2,10.2,0,1,0,13.39-5.36A10.19,10.19,0,0,0,.83,775.93ZM84.1,819a5.1,5.1,0,1,0,6.7-2.68A5.09,5.09,0,0,0,84.1,819Z"/><path class="cls-43" d="M788.36,155.22s-.9,4.19-.67,5.58,2.44,5.06,2.44,5.06-4.2-.9-5.58-.67-5.07,2.44-5.07,2.44.91-4.19.68-5.58-2.44-5.07-2.44-5.07,4.19.91,5.58.68S788.36,155.22,788.36,155.22Z"/><path class="cls-44" d="M862.55,26.09a10.2,10.2,0,1,1-14.23,2.36A10.2,10.2,0,0,1,862.55,26.09Z"/><path class="cls-45" d="M812.71,78.22a5.1,5.1,0,1,1-7.12,1.18A5.11,5.11,0,0,1,812.71,78.22Z"/><path class="cls-46" d="M1405.76,110.42a2,2,0,1,1,1.55-2.41A2,2,0,0,1,1405.76,110.42ZM1434,136a4,4,0,1,0-3.1,4.8A4,4,0,0,0,1434,136Zm.81-53.93a8.09,8.09,0,1,0-6.21,9.61A8.09,8.09,0,0,0,1434.82,82.11Zm-73.59,10.31a4,4,0,1,0-3.11,4.81A4,4,0,0,0,1361.23,92.42Z"/><path class="cls-47" d="M1825.19,930.15s-.68,6.09-1.62,7.86-5.61,5.74-5.61,5.74,6.09.68,7.86,1.62,5.74,5.61,5.74,5.61.68-6.09,1.62-7.86,5.61-5.74,5.61-5.74-6.09-.68-7.86-1.62S1825.19,930.15,1825.19,930.15Z"/><path class="cls-48" d="M1709.8,804.36s-.52,4.64-1.24,6-4.28,4.38-4.28,4.38,4.65.52,6,1.24,4.37,4.28,4.37,4.28.52-4.65,1.24-6,4.28-4.38,4.28-4.38-4.64-.51-6-1.23S1709.8,804.36,1709.8,804.36Z"/><path class="cls-49" d="M803.64,1100.39s-.68,6.08-1.62,7.86-5.61,5.74-5.61,5.74,6.09.68,7.86,1.62,5.74,5.61,5.74,5.61.68-6.09,1.62-7.86,5.61-5.74,5.61-5.74-6.09-.68-7.86-1.63S803.64,1100.39,803.64,1100.39Z"/><path class="cls-50" d="M748.44,990.51s-3.78,9.49-6.08,11.92-11.54,6.75-11.54,6.75,9.48,3.78,11.92,6.08,6.75,11.54,6.75,11.54,3.78-9.48,6.08-11.91,11.54-6.76,11.54-6.76-9.49-3.78-11.92-6.08S748.44,990.51,748.44,990.51Z"/><path class="cls-51" d="M1396.25,845.31s-4.11,9.35-6.49,11.7-11.77,6.35-11.77,6.35,9.35,4.11,11.7,6.49,6.35,11.77,6.35,11.77,4.11-9.35,6.49-11.7,11.77-6.35,11.77-6.35-9.35-4.11-11.7-6.49S1396.25,845.31,1396.25,845.31Z"/><path class="cls-52" d="M1796.62,835.74s-.86,7.74-2.06,10-7.13,7.29-7.13,7.29,7.74.87,10,2.07,7.3,7.13,7.3,7.13.87-7.74,2.06-10,7.13-7.3,7.13-7.3-7.74-.87-10-2.07S1796.62,835.74,1796.62,835.74Z"/><path class="cls-53" d="M1509.35,1069.64a6.08,6.08,0,1,1,4-7.58A6.07,6.07,0,0,1,1509.35,1069.64Z"/><path class="cls-54" d="M1811.46,628a6.06,6.06,0,0,0-5.76-3.06,6.06,6.06,0,0,0,3.06-5.76,15.66,15.66,0,0,0,2.43,2.38,16.11,16.11,0,0,0,3.33.68,15.26,15.26,0,0,0-2.37,2.43A15.62,15.62,0,0,0,1811.46,628Z"/><path class="cls-55" d="M1391.44,944.14a20.42,20.42,0,0,0-3.18-3.11,20.79,20.79,0,0,0-4.37-.9,20.6,20.6,0,0,0,3.11-3.19,20.15,20.15,0,0,0,.91-4.36,20.42,20.42,0,0,0,3.18,3.11,20.79,20.79,0,0,0,4.37.9,21,21,0,0,0-3.12,3.19A20.61,20.61,0,0,0,1391.44,944.14Z"/><path class="cls-56" d="M818.16,1039.63a8,8,0,0,0-7.55-4,20.42,20.42,0,0,0,3.11-3.18,20.79,20.79,0,0,0,.9-4.37,21,21,0,0,0,3.19,3.12,20.61,20.61,0,0,0,4.36.9,20.14,20.14,0,0,0-3.11,3.19A20.61,20.61,0,0,0,818.16,1039.63Z"/><path class="cls-57" d="M1899.48,1003.57a21,21,0,0,0-3.19-3.12,20.79,20.79,0,0,0-4.37-.9,7.92,7.92,0,0,0,4-7.55,7.93,7.93,0,0,0,7.55,4,20.6,20.6,0,0,0-3.11,3.19A20.16,20.16,0,0,0,1899.48,1003.57Z"/><path class="cls-58" d="M1733.32,856.05a15.66,15.66,0,0,0-2.43-2.38,16,16,0,0,0-3.32-.68,6.06,6.06,0,0,0,3.06-5.76,6.06,6.06,0,0,0,5.76,3.06,6,6,0,0,0-3.07,5.76Z"/><path class="cls-59" d="M1587.67,671.34a1.54,1.54,0,1,1-1,1.92A1.55,1.55,0,0,1,1587.67,671.34Zm-23.12-17.65a3.08,3.08,0,1,0,2-3.85A3.08,3.08,0,0,0,1564.55,653.69Zm2.87,41a6.17,6.17,0,1,0,4.1-7.7A6.17,6.17,0,0,0,1567.42,694.73Zm55.26-12.6a3.08,3.08,0,1,0,2-3.85A3.09,3.09,0,0,0,1622.68,682.13Z"/><path class="cls-60" d="M1263.52,924.64s1.77-5.86,3-7.43,6.54-4.64,6.54-4.64-5.86-1.77-7.43-3S1261,903,1261,903s-1.77,5.86-3,7.44-6.55,4.63-6.55,4.63,5.86,1.77,7.44,3S1263.52,924.64,1263.52,924.64Z"/><path class="cls-61" d="M1306.06,1146.24s1.77-5.87,3-7.44,6.55-4.63,6.55-4.63-5.86-1.77-7.44-3-4.63-6.55-4.63-6.55-1.77,5.87-3,7.44-6.54,4.63-6.54,4.63,5.86,1.77,7.43,3S1306.06,1146.24,1306.06,1146.24Z"/><path class="cls-62" d="M1132.45,977.82s2.94-9.78,5-12.4,10.92-7.73,10.92-7.73-9.78-2.94-12.4-5-7.73-10.92-7.73-10.92-2.94,9.78-5,12.4-10.92,7.73-10.92,7.73,9.78,2.94,12.4,5S1132.45,977.82,1132.45,977.82Z"/><path class="cls-63" d="M1187.1,955.56a8,8,0,0,0,6.71,5.31,7.9,7.9,0,0,0-5.31,6.7,20.74,20.74,0,0,0-2.58-3.63,20.06,20.06,0,0,0-4.13-1.68,7.9,7.9,0,0,0,5.31-6.7Z"/><path class="cls-64" d="M1218.89,966.58a7.9,7.9,0,0,0,6.7,5.31,20.2,20.2,0,0,0-3.63,2.58,20.66,20.66,0,0,0-1.68,4.13,7.9,7.9,0,0,0-6.7-5.31,7.93,7.93,0,0,0,5.31-6.71Z"/><path class="cls-65" d="M1171,883.73a2,2,0,1,1,1.78-2.24A2,2,0,0,1,1171,883.73ZM1196.67,912a4,4,0,1,0-3.55,4.49A4.05,4.05,0,0,0,1196.67,912Zm6-53.6a8.08,8.08,0,1,0-7.1,9A8.08,8.08,0,0,0,1202.66,858.35Zm-74.24,3.19a4,4,0,1,0-3.55,4.48A4,4,0,0,0,1128.42,861.54Z"/><path class="cls-66" d="M1840.72,383.52s1.35-4.47,2.3-5.67,5-3.54,5-3.54-4.47-1.34-5.67-2.29-3.54-5-3.54-5-1.34,4.47-2.29,5.67-5,3.54-5,3.54,4.47,1.35,5.67,2.3S1840.72,383.52,1840.72,383.52Z"/><path class="cls-67" d="M1807.48,752.38s1.35-4.47,2.3-5.67,5-3.54,5-3.54-4.48-1.34-5.67-2.29-3.54-5-3.54-5-1.35,4.47-2.3,5.67-5,3.54-5,3.54,4.47,1.35,5.67,2.3S1807.48,752.38,1807.48,752.38Z"/><path class="cls-68" d="M1796.09,673.06s2.25-7.46,3.83-9.46,8.33-5.89,8.33-5.89-7.46-2.25-9.45-3.83-5.9-8.33-5.9-8.33-2.24,7.46-3.83,9.46-8.32,5.89-8.32,5.89,7.45,2.25,9.45,3.83S1796.09,673.06,1796.09,673.06Z"/><path class="cls-69" d="M1748,321.91a16,16,0,0,0,2,2.77,15.66,15.66,0,0,0,3.15,1.28,15.64,15.64,0,0,0-2.77,2,15.66,15.66,0,0,0-1.28,3.15,16,16,0,0,0-2-2.77A15.66,15.66,0,0,0,1744,327a16,16,0,0,0,2.77-2A15.66,15.66,0,0,0,1748,321.91Z"/><path class="cls-70" d="M1793.66,697.3a16,16,0,0,0,2,2.77,15.66,15.66,0,0,0,3.15,1.28,16,16,0,0,0-2.77,2,15.66,15.66,0,0,0-1.28,3.15,16,16,0,0,0-2-2.77,15.66,15.66,0,0,0-3.15-1.28,6.05,6.05,0,0,0,4.05-5.11Z"/><path class="cls-71" d="M1835.76,456.09a1.54,1.54,0,1,1,1.35-1.71A1.54,1.54,0,0,1,1835.76,456.09Zm19.56,21.53a3.08,3.08,0,1,0-2.7,3.42A3.07,3.07,0,0,0,1855.32,477.62Zm4.57-40.88a6.17,6.17,0,1,0-5.41,6.83A6.17,6.17,0,0,0,1859.89,436.74Zm-56.62,2.43a3.08,3.08,0,1,0-2.7,3.42A3.08,3.08,0,0,0,1803.27,439.17Z"/><path class="cls-72" d="M1172.51,212.64s1.77-5.86,3-7.43,6.54-4.64,6.54-4.64-5.86-1.77-7.43-3S1170,191,1170,191s-1.77,5.86-3,7.43-6.55,4.64-6.55,4.64,5.86,1.77,7.44,3S1172.51,212.64,1172.51,212.64Z"/><path class="cls-73" d="M832.11,432s1.77-5.86,3-7.43,6.55-4.64,6.55-4.64-5.86-1.77-7.43-3-4.64-6.55-4.64-6.55-1.77,5.86-3,7.44-6.55,4.63-6.55,4.63,5.86,1.77,7.43,3S832.11,432,832.11,432Z"/><path class="cls-74" d="M727.54,371.05s3-9.77,5-12.39,10.92-7.73,10.92-7.73-9.78-2.95-12.4-5S723.36,335,723.36,335s-3,9.77-5,12.39-10.92,7.73-10.92,7.73,9.78,2.95,12.4,5S727.54,371.05,727.54,371.05Z"/><path class="cls-75" d="M1112.68,127a20.92,20.92,0,0,0,2.57,3.64,20.72,20.72,0,0,0,4.13,1.67,20.56,20.56,0,0,0-3.63,2.57,20.9,20.9,0,0,0-1.68,4.13,20.56,20.56,0,0,0-2.57-3.63,20.06,20.06,0,0,0-4.13-1.68,20.92,20.92,0,0,0,3.64-2.57A20.48,20.48,0,0,0,1112.68,127Z"/><path class="cls-76" d="M814,359.82a20.2,20.2,0,0,0,2.58,3.63,20.06,20.06,0,0,0,4.13,1.68,20.54,20.54,0,0,0-3.64,2.57,20.9,20.9,0,0,0-1.68,4.13,20.92,20.92,0,0,0-2.57-3.64,20.48,20.48,0,0,0-4.13-1.67,20.54,20.54,0,0,0,3.64-2.57A20.72,20.72,0,0,0,814,359.82Z"/><path class="cls-77" d="M766.11,277a2,2,0,1,1,1.77-2.24A2,2,0,0,1,766.11,277Zm25.65,28.23a4,4,0,1,0-3.55,4.48A4,4,0,0,0,791.76,305.19Zm6-53.6a8.08,8.08,0,1,0-7.09,9A8.07,8.07,0,0,0,797.75,251.59Zm-74.24,3.18a4,4,0,1,0-3.55,4.49A4.05,4.05,0,0,0,723.51,254.77Z"/><path class="cls-78" d="M1672.76,757.5a1.54,1.54,0,1,1,1.18-1.83A1.53,1.53,0,0,1,1672.76,757.5ZM1694.3,777a3.08,3.08,0,1,0-2.36,3.67A3.07,3.07,0,0,0,1694.3,777Zm.62-41.12a6.17,6.17,0,1,0-4.73,7.32A6.18,6.18,0,0,0,1694.92,735.92Zm-56.12,7.86a3.08,3.08,0,1,0-2.37,3.66A3.09,3.09,0,0,0,1638.8,743.78Z"/><path class="cls-79" d="M1528.5,1174.12a20.42,20.42,0,0,0-3.18-3.11,20.79,20.79,0,0,0-4.37-.9,21,21,0,0,0,3.12-3.19,20.61,20.61,0,0,0,.9-4.36,20.14,20.14,0,0,0,3.19,3.11,20.61,20.61,0,0,0,4.36.9,20.6,20.6,0,0,0-3.11,3.19A20.15,20.15,0,0,0,1528.5,1174.12Z"/><path class="cls-80" d="M1755.09,1090.33s1.77-5.86,3-7.44,6.54-4.63,6.54-4.63-5.86-1.77-7.43-3-4.64-6.55-4.64-6.55-1.77,5.86-3,7.43-6.55,4.64-6.55,4.64,5.86,1.77,7.44,3S1755.09,1090.33,1755.09,1090.33Z"/><path class="cls-81" d="M1650.52,1029.34s3-9.77,5-12.4,10.92-7.72,10.92-7.72-9.77-3-12.39-5-7.73-10.91-7.73-10.91-2.95,9.77-5,12.39-10.91,7.73-10.91,7.73,9.77,3,12.39,5S1650.52,1029.34,1650.52,1029.34Z"/><path class="cls-82" d="M1737,1018.1a20.19,20.19,0,0,0,2.58,3.64,20.48,20.48,0,0,0,4.13,1.67A20.73,20.73,0,0,0,1740,1026a20.48,20.48,0,0,0-1.67,4.13,20.19,20.19,0,0,0-2.58-3.64,20.48,20.48,0,0,0-4.13-1.67,20.19,20.19,0,0,0,3.64-2.58A20.48,20.48,0,0,0,1737,1018.1Z"/><path class="cls-83" d="M1578.43,1097a2,2,0,1,1,1.55-2.4A2,2,0,0,1,1578.43,1097Zm28.25,25.63a4,4,0,1,0-3.1,4.8A4,4,0,0,0,1606.68,1122.67Zm.81-53.93a8.09,8.09,0,1,0-6.2,9.61A8.08,8.08,0,0,0,1607.49,1068.74Zm-73.59,10.31a4,4,0,1,0-3.1,4.8A4,4,0,0,0,1533.9,1079.05Z"/><path class="cls-84" d="M1045,443.27s-9.54-3.62-12-5.87-7-11.43-7-11.43-3.62,9.54-5.87,12-11.43,6.95-11.43,6.95,9.54,3.62,12,5.88,7,11.43,7,11.43,3.62-9.55,5.87-12S1045,443.27,1045,443.27Z"/><path class="cls-85" d="M937.16,573.9a6.08,6.08,0,1,1,7.58,4A6.08,6.08,0,0,1,937.16,573.9Z"/><path class="cls-86" d="M1062.66,456a20.6,20.6,0,0,0,3.11-3.19,20,20,0,0,0,.9-4.37,20.56,20.56,0,0,0,3.19,3.12,20.79,20.79,0,0,0,4.37.9,20.55,20.55,0,0,0-3.12,3.19,20.61,20.61,0,0,0-.9,4.36,20.14,20.14,0,0,0-3.19-3.11A20.61,20.61,0,0,0,1062.66,456Z"/><path class="cls-87" d="M965.81,302.52s5.86,1.77,7.43,3,4.64,6.55,4.64,6.55,1.77-5.87,3-7.44,6.55-4.64,6.55-4.64-5.86-1.76-7.44-3-4.63-6.55-4.63-6.55-1.77,5.87-3,7.44S965.81,302.52,965.81,302.52Z"/><path class="cls-88" d="M851.64,276s5.87,1.77,7.44,3,4.63,6.55,4.63,6.55,1.77-5.86,3-7.43,6.55-4.64,6.55-4.64-5.87-1.77-7.44-3S861.2,264,861.2,264s-1.76,5.86-3,7.43S851.64,276,851.64,276Z"/><path class="cls-89" d="M912.63,171.45s9.78,3,12.4,5,7.73,10.92,7.73,10.92,2.94-9.78,5-12.4,10.92-7.72,10.92-7.72-9.78-3-12.4-5-7.73-10.92-7.73-10.92-2.94,9.78-5,12.4S912.63,171.45,912.63,171.45Z"/><path class="cls-90" d="M1051.41,242.69a20.19,20.19,0,0,0-3.64,2.58,20.48,20.48,0,0,0-1.67,4.13,20.19,20.19,0,0,0-2.58-3.64,20.48,20.48,0,0,0-4.13-1.67,20.73,20.73,0,0,0,3.64-2.58,20.66,20.66,0,0,0,1.68-4.13,20.54,20.54,0,0,0,2.57,3.64A20.48,20.48,0,0,0,1051.41,242.69Z"/><path class="cls-91" d="M923.87,257.89a20.19,20.19,0,0,0-3.64,2.58,20.48,20.48,0,0,0-1.67,4.13A20.19,20.19,0,0,0,916,261a20.48,20.48,0,0,0-4.13-1.67,20.73,20.73,0,0,0,3.64-2.58,20.48,20.48,0,0,0,1.67-4.13,20.19,20.19,0,0,0,2.58,3.64A20.48,20.48,0,0,0,923.87,257.89Z"/><path class="cls-92" d="M1006.72,210a2,2,0,1,1,2.24,1.77A2,2,0,0,1,1006.72,210ZM978.5,235.67a4,4,0,1,0-4.49-3.55A4,4,0,0,0,978.5,235.67Zm53.6,6a8.09,8.09,0,1,0-9-7.1A8.1,8.1,0,0,0,1032.1,241.67Zm-3.19-74.25a4,4,0,1,0-4.48-3.55A4,4,0,0,0,1028.91,167.42Z"/><path class="cls-93" d="M832.68,593.05a20.6,20.6,0,0,0,3.11-3.19,20,20,0,0,0,.9-4.36,7.93,7.93,0,0,0,7.56,4,21,21,0,0,0-3.12,3.19,20.61,20.61,0,0,0-.9,4.36A20.14,20.14,0,0,0,837,594,20.61,20.61,0,0,0,832.68,593.05Z"/><path class="cls-94" d="M999.44,705.64s9.78,3,12.4,5,7.73,10.91,7.73,10.91,2.95-9.77,5-12.39,10.92-7.73,10.92-7.73-9.78-3-12.4-5-7.73-10.92-7.73-10.92-2.94,9.78-5,12.4S999.44,705.64,999.44,705.64Z"/><path class="cls-95" d="M988.7,801.51a7.9,7.9,0,0,0-5.31,6.7,7.93,7.93,0,0,0-6.71-5.31,7.9,7.9,0,0,0,5.31-6.7,8,8,0,0,0,6.71,5.31Z"/><path class="cls-96" d="M909.76,643a2,2,0,1,1,2.4,1.55A2,2,0,0,1,909.76,643Zm-25.63,28.25a4,4,0,1,0-4.8-3.1A4,4,0,0,0,884.13,671.22Zm53.93.81a8.09,8.09,0,1,0-9.6-6.2A8.09,8.09,0,0,0,938.06,672Zm-10.31-73.59a4,4,0,1,0-4.8-3.1A4,4,0,0,0,927.75,598.44Z"/><path class="cls-97" d="M162.7,591.17s-.68,6.08-1.62,7.86-5.61,5.74-5.61,5.74,6.09.68,7.86,1.62,5.74,5.61,5.74,5.61.68-6.09,1.63-7.86,5.6-5.74,5.6-5.74-6.08-.68-7.85-1.63S162.7,591.17,162.7,591.17Z"/><path class="cls-98" d="M95.83,428.21s-3.7,9.51-6,12S78.37,447,78.37,447s9.51,3.7,12,6,6.85,11.49,6.85,11.49,3.71-9.52,6-12,11.49-6.85,11.49-6.85-9.52-3.7-12-6S95.83,428.21,95.83,428.21Z"/><path class="cls-99" d="M847.74,833.73s-3.55,9.57-5.79,12-11.38,7-11.38,7,9.57,3.55,12,5.79,7,11.38,7,11.38,3.55-9.57,5.79-12.05,11.38-7,11.38-7-9.57-3.55-12.05-5.79S847.74,833.73,847.74,833.73Z"/><path class="cls-100" d="M202.09,663a6.08,6.08,0,1,1,4-7.59A6.08,6.08,0,0,1,202.09,663Z"/><path class="cls-101" d="M617.6,360.6a20.55,20.55,0,0,0-3.19-3.12,20.61,20.61,0,0,0-4.36-.9,20.14,20.14,0,0,0,3.11-3.19,20.15,20.15,0,0,0,.91-4.36,20.42,20.42,0,0,0,3.18,3.11,20.33,20.33,0,0,0,4.37.91,20.84,20.84,0,0,0-3.12,3.18A20.79,20.79,0,0,0,617.6,360.6Z"/><path class="cls-102" d="M1367.42,274.16s1.85-4.28,2.93-5.36,5.37-2.94,5.37-2.94-4.29-1.86-5.37-2.94-2.93-5.37-2.93-5.37-1.86,4.29-2.94,5.37-5.37,2.94-5.37,2.94,4.29,1.85,5.37,2.94S1367.42,274.16,1367.42,274.16Z"/><path class="cls-103" d="M1390.5,469s1.85-4.29,2.93-5.37,5.37-2.93,5.37-2.93-4.29-1.86-5.37-2.94-2.93-5.37-2.93-5.37-1.86,4.29-2.94,5.37-5.37,2.94-5.37,2.94,4.29,1.85,5.37,2.93S1390.5,469,1390.5,469Z"/><path class="cls-104" d="M1641.57,304s1.86-4.28,2.94-5.36,5.37-2.94,5.37-2.94-4.29-1.85-5.37-2.94-2.94-5.36-2.94-5.36-1.85,4.28-2.93,5.36-5.37,2.94-5.37,2.94,4.29,1.85,5.37,2.94S1641.57,304,1641.57,304Z"/><path class="cls-105" d="M1661,397s3.1-7.15,4.9-8.95,8.95-4.89,8.95-4.89-7.15-3.1-8.95-4.9-4.9-8.95-4.9-8.95-3.09,7.15-4.89,8.95-8.95,4.9-8.95,4.9,7.15,3.09,8.95,4.89S1661,397,1661,397Z"/><path class="cls-106" d="M1671.15,232.62s3.09-7.15,4.9-9,8.94-4.89,8.94-4.89-7.14-3.1-8.94-4.9-4.9-8.95-4.9-8.95-3.09,7.15-4.89,8.95-9,4.9-9,4.9,7.14,3.09,9,4.89S1671.15,232.62,1671.15,232.62Z"/><path class="cls-107" d="M1316.64,413.57s3.09-7.15,4.89-8.95,9-4.9,9-4.9-7.14-3.09-9-4.89-4.89-8.95-4.89-8.95-3.09,7.15-4.9,8.95-8.94,4.89-8.94,4.89,7.14,3.1,8.94,4.9S1316.64,413.57,1316.64,413.57Z"/><path class="cls-108" d="M1628.86,242.86a4.64,4.64,0,1,1-4.63,4.63A4.63,4.63,0,0,1,1628.86,242.86Z"/><path class="cls-109" d="M1553.52,496.71a16,16,0,0,0,1.63,3,15.65,15.65,0,0,0,3,1.63,6,6,0,0,0-4.61,4.61,6,6,0,0,0-4.61-4.61,15.65,15.65,0,0,0,3-1.63A16,16,0,0,0,1553.52,496.71Z"/><path class="cls-110" d="M1680.92,408.09a6,6,0,0,0,4.62,4.61,6,6,0,0,0-4.62,4.61,6,6,0,0,0-4.61-4.61,6,6,0,0,0,4.61-4.61Z"/><path class="cls-111" d="M1617.44,345.09a15.65,15.65,0,0,0,1.63,3,15.65,15.65,0,0,0,3,1.63,15.65,15.65,0,0,0-3,1.63,15.65,15.65,0,0,0-1.63,3,15.65,15.65,0,0,0-1.63-3,15.65,15.65,0,0,0-3-1.63,15.65,15.65,0,0,0,3-1.63A15.65,15.65,0,0,0,1617.44,345.09Z"/><path class="cls-112" d="M1329.61,204.06a15.65,15.65,0,0,0,1.63,3,15.66,15.66,0,0,0,3,1.63,15.66,15.66,0,0,0-3,1.63,15.65,15.65,0,0,0-1.63,3,15.65,15.65,0,0,0-1.63-3,15.65,15.65,0,0,0-3-1.63,15.65,15.65,0,0,0,3-1.63A15.65,15.65,0,0,0,1329.61,204.06Z"/><path class="cls-113" d="M1383.11,412.65a6,6,0,0,0,4.61,4.61,15.27,15.27,0,0,0-3,1.64,15.65,15.65,0,0,0-1.63,3,15.65,15.65,0,0,0-1.63-3,15.27,15.27,0,0,0-3-1.64,6,6,0,0,0,4.61-4.61Z"/><path class="cls-114" d="M1354.12,345.68a1.54,1.54,0,1,1,1.55-1.54A1.54,1.54,0,0,1,1354.12,345.68Zm17,23.64a3.09,3.09,0,1,0-3.08,3.08A3.08,3.08,0,0,0,1371.08,369.32Zm9.25-40.08a6.17,6.17,0,1,0-6.17,6.16A6.17,6.17,0,0,0,1380.33,329.24Zm-56.52-4.11a3.09,3.09,0,1,0-3.09,3.08A3.09,3.09,0,0,0,1323.81,325.13Z"/><path class="cls-115" d="M1627.33,453.17a1.54,1.54,0,1,1-1.67,1.4A1.54,1.54,0,0,1,1627.33,453.17Zm-14.89-25a3.08,3.08,0,1,0,3.33-2.81A3.07,3.07,0,0,0,1612.44,428.18Zm-12.62,39.15a6.17,6.17,0,1,0,6.67-5.62A6.16,6.16,0,0,0,1599.82,467.33Zm56,8.89a3.08,3.08,0,1,0,3.33-2.81A3.08,3.08,0,0,0,1655.79,476.22Z"/><path class="cls-116" d="M1405.49,754.86s5.63,2.43,7,3.85,3.85,7,3.85,7,2.44-5.62,3.85-7,7-3.85,7-3.85-5.62-2.43-7-3.85-3.85-7-3.85-7-2.43,5.62-3.85,7S1405.49,754.86,1405.49,754.86Z"/><path class="cls-117" d="M1159,785.29s5.62,2.43,7,3.85,3.85,7,3.85,7,2.43-5.62,3.85-7,7-3.85,7-3.85-5.62-2.43-7-3.85-3.85-7-3.85-7-2.43,5.62-3.85,7S1159,785.29,1159,785.29Z"/><path class="cls-118" d="M1382.94,997.84s5.62,2.43,7,3.85,3.85,7,3.85,7,2.43-5.62,3.85-7,7-3.85,7-3.85-5.62-2.43-7-3.85-3.85-7-3.85-7-2.43,5.62-3.85,7S1382.94,997.84,1382.94,997.84Z"/><path class="cls-119" d="M1476.56,1036.62s9.37,4.05,11.73,6.42,6.42,11.73,6.42,11.73,4.06-9.37,6.42-11.73,11.74-6.42,11.74-6.42-9.38-4-11.74-6.42-6.42-11.73-6.42-11.73-4,9.37-6.42,11.73S1476.56,1036.62,1476.56,1036.62Z"/><path class="cls-120" d="M1231.65,688.44s9.37,4.06,11.74,6.42,6.42,11.74,6.42,11.74,4-9.37,6.41-11.74,11.74-6.42,11.74-6.42-9.37-4.05-11.74-6.41-6.41-11.74-6.41-11.74-4.06,9.37-6.42,11.74S1231.65,688.44,1231.65,688.44Z"/><path class="cls-121" d="M1463.13,981.17a6.08,6.08,0,1,1-6.07-6.08A6.07,6.07,0,0,1,1463.13,981.17Z"/><path class="cls-122" d="M1139.21,882.54a20.49,20.49,0,0,0-3.91,2.14,20.89,20.89,0,0,0-2.13,3.91,7.94,7.94,0,0,0-6.05-6.05,20.49,20.49,0,0,0,3.91-2.14,20.19,20.19,0,0,0,2.14-3.91,7.91,7.91,0,0,0,6,6Z"/><path class="cls-123" d="M1338,966.35a20.19,20.19,0,0,0-3.91,2.14,20.49,20.49,0,0,0-2.14,3.91,7.94,7.94,0,0,0-6-6,20.49,20.49,0,0,0,3.91-2.14,20.18,20.18,0,0,0,2.14-3.9,7.94,7.94,0,0,0,6,6Z"/><path class="cls-124" d="M1530.68,765.34a6,6,0,0,0-4.61,4.61,6,6,0,0,0-4.61-4.61,6,6,0,0,0,4.61-4.61,6,6,0,0,0,4.61,4.61Z"/><path class="cls-125" d="M1232.85,775.6a7.94,7.94,0,0,0-6,6,7.91,7.91,0,0,0-6-6,7.88,7.88,0,0,0,6-6,7.91,7.91,0,0,0,6,6Z"/><path class="cls-126" d="M1311.72,737.43a2,2,0,1,1,2,2A2,2,0,0,1,1311.72,737.43Zm-31,22.23a4,4,0,1,0-4-4A4,4,0,0,0,1280.72,759.66Zm52.56,12.13a8.09,8.09,0,1,0-8.09-8.08A8.08,8.08,0,0,0,1333.28,771.79Zm5.39-74.11a4,4,0,1,0-4-4A4,4,0,0,0,1338.67,697.68Z"/><path class="cls-127" d="M1181.25,1095.63a4,4,0,1,0,3.69,4.37A4,4,0,0,0,1181.25,1095.63Z"/><path class="cls-128" d="M1796.87,604.85a15.26,15.26,0,0,0-2.43-2.37,15.62,15.62,0,0,0-3.33-.69,6,6,0,0,0,3.07-5.76,6.05,6.05,0,0,0,5.75,3.06,6.06,6.06,0,0,0-3.06,5.76Z"/><path class="cls-129" d="M73.46,475.75a20.14,20.14,0,0,0-3.19-3.11,20.61,20.61,0,0,0-4.36-.9A20.6,20.6,0,0,0,69,468.55a20,20,0,0,0,.9-4.36,20.6,20.6,0,0,0,3.19,3.11,20.79,20.79,0,0,0,4.37.9,21,21,0,0,0-3.12,3.19A20.61,20.61,0,0,0,73.46,475.75Z"/><path class="cls-130" d="M177.22,530.41A20.42,20.42,0,0,0,174,527.3a20.33,20.33,0,0,0-4.37-.91,20.42,20.42,0,0,0,3.11-3.18,20.33,20.33,0,0,0,.91-4.37,20.84,20.84,0,0,0,3.18,3.12,20.79,20.79,0,0,0,4.37.9,20.55,20.55,0,0,0-3.12,3.19A20.61,20.61,0,0,0,177.22,530.41Z"/><path class="cls-131" d="M123.38,398.67a2,2,0,1,1,1.55-2.4A2,2,0,0,1,123.38,398.67Zm28.26,25.63a4,4,0,1,0-3.11,4.8A4,4,0,0,0,151.64,424.3Zm.81-53.93a8.09,8.09,0,1,0-6.21,9.61A8.09,8.09,0,0,0,152.45,370.37Zm-73.6,10.31a4,4,0,1,0-3.1,4.8A4,4,0,0,0,78.85,380.68Z"/><path class="cls-132" d="M705.06,518.41s-2.43-5.62-3.85-7-7-3.85-7-3.85,5.62-2.43,7-3.85,3.85-7,3.85-7,2.43,5.63,3.85,7,7,3.85,7,3.85-5.62,2.44-7,3.85S705.06,518.41,705.06,518.41Z"/><path class="cls-133" d="M674.8,773.84s-2.43-5.62-3.85-7-7-3.85-7-3.85,5.62-2.43,7-3.85,3.85-7,3.85-7,2.43,5.63,3.85,7,7,3.85,7,3.85-5.62,2.44-7,3.85S674.8,773.84,674.8,773.84Z"/><path class="cls-134" d="M345.57,557.56s-2.43-5.62-3.85-7-7-3.85-7-3.85,5.62-2.43,7-3.85,3.85-7,3.85-7,2.43,5.62,3.85,7,7,3.85,7,3.85-5.62,2.43-7,3.85S345.57,557.56,345.57,557.56Z"/><path class="cls-135" d="M337.64,701.64s-4.05-9.37-6.41-11.74-11.74-6.41-11.74-6.41,9.37-4.06,11.74-6.42,6.41-11.74,6.41-11.74,4.06,9.37,6.42,11.74,11.74,6.42,11.74,6.42-9.37,4-11.74,6.41S337.64,701.64,337.64,701.64Z"/><path class="cls-136" d="M389.77,467.26s-4-9.37-6.42-11.74-11.73-6.42-11.73-6.42,9.37-4.05,11.73-6.41S389.77,431,389.77,431s4.05,9.37,6.42,11.74,11.73,6.41,11.73,6.41-9.37,4.06-11.73,6.42S389.77,467.26,389.77,467.26Z"/><path class="cls-137" d="M771.64,701.21s-4-9.37-6.41-11.74-11.74-6.41-11.74-6.41,9.37-4.06,11.74-6.42,6.41-11.74,6.41-11.74,4.06,9.37,6.42,11.74,11.74,6.42,11.74,6.42-9.37,4.05-11.74,6.41S771.64,701.21,771.64,701.21Z"/><path class="cls-138" d="M362.24,477.37a6.08,6.08,0,1,0,6.07,6.07A6.08,6.08,0,0,0,362.24,477.37Z"/><path class="cls-139" d="M461,810.24a20.49,20.49,0,0,1-2.14,3.91,20.89,20.89,0,0,1-3.91,2.13,20.49,20.49,0,0,1,3.91,2.14,20.49,20.49,0,0,1,2.14,3.91,20.49,20.49,0,0,1,2.14-3.91,20.49,20.49,0,0,1,3.91-2.14,20.89,20.89,0,0,1-3.91-2.13A20.49,20.49,0,0,1,461,810.24Z"/><path class="cls-140" d="M294,694a20.49,20.49,0,0,1-2.14,3.91,20.49,20.49,0,0,1-3.91,2.14,20.49,20.49,0,0,1,3.91,2.14,20.49,20.49,0,0,1,2.14,3.91,20.49,20.49,0,0,1,2.14-3.91,20.49,20.49,0,0,1,3.91-2.14,20.49,20.49,0,0,1-3.91-2.14A20.49,20.49,0,0,1,294,694Z"/><path class="cls-141" d="M377.22,611.41a20.19,20.19,0,0,1-2.14,3.91,20.49,20.49,0,0,1-3.91,2.14,20.49,20.49,0,0,1,3.91,2.14,20.49,20.49,0,0,1,2.14,3.91,20.49,20.49,0,0,1,2.14-3.91,20.18,20.18,0,0,1,3.9-2.14,20.18,20.18,0,0,1-3.9-2.14A20.19,20.19,0,0,1,377.22,611.41Z"/><path class="cls-142" d="M754.63,426.49a20.49,20.49,0,0,1-2.14,3.91,20.58,20.58,0,0,1-3.91,2.13,20.19,20.19,0,0,1,3.91,2.14,20.49,20.49,0,0,1,2.14,3.91,20.49,20.49,0,0,1,2.14-3.91,20.49,20.49,0,0,1,3.91-2.14,20.89,20.89,0,0,1-3.91-2.13A20.49,20.49,0,0,1,754.63,426.49Z"/><path class="cls-143" d="M684.48,700a20.49,20.49,0,0,1-2.14,3.91,20.18,20.18,0,0,1-3.9,2.14,7.94,7.94,0,0,1,6,6.05,20.19,20.19,0,0,1,2.14-3.91,20.49,20.49,0,0,1,3.91-2.14,7.94,7.94,0,0,1-6-6Z"/><path class="cls-144" d="M720.47,610.17a2,2,0,1,1,2,2A2,2,0,0,1,720.47,610.17ZM704.3,647.23a4,4,0,1,0-4-4A4,4,0,0,0,704.3,647.23Zm-8.08-48.51a8.09,8.09,0,1,0-8.09-8.09A8.09,8.09,0,0,0,696.22,598.72Zm70.07-9.44a4,4,0,1,0-4-4A4,4,0,0,0,766.29,589.28Z"/><path class="cls-145" d="M366.44,755a2,2,0,1,1-2.19-1.85A2,2,0,0,1,366.44,755Zm13-38.3a4,4,0,1,0,4.38,3.69A4,4,0,0,0,379.4,716.68Zm12.18,47.65a8.08,8.08,0,1,0,8.74,7.37A8.09,8.09,0,0,0,391.58,764.33Zm-69,15.35a4,4,0,1,0,4.37,3.68A4,4,0,0,0,322.56,779.68Z"/><path class="cls-146" d="M716.72,798.87a2,2,0,1,1,1.55,2.4A2,2,0,0,1,716.72,798.87Zm-23.6,32.83a4,4,0,1,0-3.1-4.8A4,4,0,0,0,693.12,831.7Zm2.29-49.13a8.09,8.09,0,1,0-6.2-9.6A8.09,8.09,0,0,0,695.41,782.57Zm70.49,5.51a4,4,0,1,0-3.1-4.8A4,4,0,0,0,765.9,788.08Z"/><path class="cls-147" d="M166.2,1175.58s2.43-5.62,3.85-7,7-3.85,7-3.85-5.62-2.43-7-3.85-3.85-7-3.85-7-2.43,5.62-3.85,7-7,3.85-7,3.85,5.62,2.43,7,3.85S166.2,1175.58,166.2,1175.58Z"/><path class="cls-148" d="M495.43,959.29s2.43-5.62,3.85-7,7-3.85,7-3.85-5.62-2.43-7-3.85-3.85-7-3.85-7-2.43,5.62-3.85,7-7,3.85-7,3.85,5.62,2.44,7,3.85S495.43,959.29,495.43,959.29Z"/><path class="cls-149" d="M520.9,1081.16s4.05-9.37,6.41-11.74,11.74-6.42,11.74-6.42-9.37-4-11.74-6.41-6.41-11.74-6.41-11.74-4.06,9.37-6.42,11.74-11.74,6.41-11.74,6.41,9.37,4.06,11.74,6.42S520.9,1081.16,520.9,1081.16Z"/><path class="cls-150" d="M484.55,829.76a6.08,6.08,0,1,0,6.07,6.08A6.08,6.08,0,0,0,484.55,829.76Z"/><path class="cls-151" d="M547,1095.76a20.89,20.89,0,0,0,2.13,3.91,20.49,20.49,0,0,0,3.91,2.14,7.88,7.88,0,0,0-6,6,20.49,20.49,0,0,0-2.14-3.91,20.89,20.89,0,0,0-3.91-2.13,7.94,7.94,0,0,0,6-6Z"/><path class="cls-152" d="M463.78,1013.15a20.49,20.49,0,0,0,2.14,3.91,20.49,20.49,0,0,0,3.91,2.14,20.49,20.49,0,0,0-3.91,2.14,20.49,20.49,0,0,0-2.14,3.91,20.49,20.49,0,0,0-2.14-3.91,20.49,20.49,0,0,0-3.91-2.14,20.49,20.49,0,0,0,3.91-2.14A20.49,20.49,0,0,0,463.78,1013.15Z"/><path class="cls-153" d="M156.51,1101.75a20.49,20.49,0,0,0,2.14,3.91,20.89,20.89,0,0,0,3.91,2.13,20.49,20.49,0,0,0-3.91,2.14,20.49,20.49,0,0,0-2.14,3.91,20.89,20.89,0,0,0-2.13-3.91,20.49,20.49,0,0,0-3.91-2.14,20.89,20.89,0,0,0,3.91-2.13A20.89,20.89,0,0,0,156.51,1101.75Z"/><path class="cls-154" d="M476.75,1154.87a2,2,0,1,1-2.19,1.84A2,2,0,0,1,476.75,1154.87Zm-19.53-32.77a4,4,0,1,0,4.37-3.68A4,4,0,0,0,457.22,1122.1Zm-16.54,51.34a8.08,8.08,0,1,0,8.74-7.37A8.08,8.08,0,0,0,440.68,1173.44Zm73.39,11.66a4,4,0,1,0,4.37-3.69A4,4,0,0,0,514.07,1185.1Z"/><path class="cls-155" d="M1065.84,1063.51s9.37,4,11.74,6.42,6.41,11.73,6.41,11.73,4.06-9.37,6.42-11.73,11.74-6.42,11.74-6.42-9.37-4.06-11.74-6.42-6.42-11.74-6.42-11.74-4,9.38-6.41,11.74S1065.84,1063.51,1065.84,1063.51Z"/><path class="cls-156" d="M1255.43,1049.6a7.94,7.94,0,0,0-6,6.05,7.94,7.94,0,0,0-6.05-6.05,7.94,7.94,0,0,0,6.05-6,7.94,7.94,0,0,0,6,6Z"/><path class="cls-157" d="M1148.49,1115.16a2,2,0,1,1-1.85-2.19A2,2,0,0,1,1148.49,1115.16Z"/><path class="cls-158" d="M1129.92,1079.09a8.08,8.08,0,1,0,7.37,8.74A8.08,8.08,0,0,0,1129.92,1079.09Z"/><path class="cls-159" d="M1118.26,1152.48a4,4,0,1,0,3.69,4.37A4,4,0,0,0,1118.26,1152.48Z"/></g></g></g></svg>