<svg xmlns="http://www.w3.org/2000/svg" viewBox="0 0 80 30.52"><defs><style>.cls-1{fill:#3838fc;}.cls-2{fill:#ee387f;}.cls-3{fill:#fff;}</style></defs><title>Ativo 2</title><g id="Camada_2" data-name="Camada 2"><g id="Layer_1" data-name="Layer 1"><path class="cls-1" d="M.54,8.51A6.33,6.33,0,0,1,1.07,6a6.74,6.74,0,0,1,1.41-2.1A7,7,0,0,1,4.57,2.42a6.42,6.42,0,0,1,5.11,0,7,7,0,0,1,2.1,1.44A6.8,6.8,0,0,1,13.21,6a6.54,6.54,0,0,1,0,5.11,6.87,6.87,0,0,1-1.43,2.09,6.72,6.72,0,0,1-2.1,1.4,6.36,6.36,0,0,1-2.55.52,6.3,6.3,0,0,1-2.56-.52,6.67,6.67,0,0,1-2.09-1.4,6.82,6.82,0,0,1-1.41-2.09A6.31,6.31,0,0,1,.54,8.51Zm2.18,0a4.49,4.49,0,0,0,.35,1.76A4.41,4.41,0,0,0,4,11.71a4.81,4.81,0,0,0,1.42,1A4.16,4.16,0,0,0,7.18,13a4.16,4.16,0,0,0,1.71-.35,4.71,4.71,0,0,0,1.4-1,4.69,4.69,0,0,0,.93-1.44,4.49,4.49,0,0,0,.35-1.76,4.36,4.36,0,0,0-.36-1.76,4.57,4.57,0,0,0-1-1.44,4.52,4.52,0,0,0-1.41-1A4.3,4.3,0,0,0,7.13,4a4.35,4.35,0,0,0-1.73.35,4.47,4.47,0,0,0-1.4,1,4.69,4.69,0,0,0-.93,1.44A4.53,4.53,0,0,0,2.72,8.51Z"/><path class="cls-1" d="M15.85,2H19.2a8.18,8.18,0,0,1,3.3.6,6.27,6.27,0,0,1,2.2,1.53,5.56,5.56,0,0,1,1.23,2.13,7.94,7.94,0,0,1,.38,2.38,6.24,6.24,0,0,1-.52,2.61,6,6,0,0,1-1.41,2,6.09,6.09,0,0,1-2.06,1.25,7.13,7.13,0,0,1-2.49.44h-4ZM19.5,12.88a5.74,5.74,0,0,0,1.85-.28,4.1,4.1,0,0,0,1.47-.84,3.8,3.8,0,0,0,1-1.36,4.73,4.73,0,0,0,.34-1.87,4.66,4.66,0,0,0-.41-2,4,4,0,0,0-2.47-2.13,5.08,5.08,0,0,0-1.49-.24H18v8.76Z"/><path class="cls-1" d="M28.47,2h2.18V14.94H28.47Z"/><path class="cls-1" d="M41.23,2.76l-.78,1.77A12.71,12.71,0,0,0,39,4.1,6.62,6.62,0,0,0,37.64,4a3,3,0,0,0-1.71.42,1.26,1.26,0,0,0-.63,1.08,1.11,1.11,0,0,0,.47.92A4.81,4.81,0,0,0,37,7q.7.29,1.53.57A8.35,8.35,0,0,1,40,8.33,4.08,4.08,0,0,1,41.18,9.5a3.16,3.16,0,0,1,.47,1.81,3.69,3.69,0,0,1-.31,1.54A3,3,0,0,1,40.41,14a4.38,4.38,0,0,1-1.56.77,7.73,7.73,0,0,1-2.22.28A8.81,8.81,0,0,1,35.21,15a9.68,9.68,0,0,1-1.14-.26,7.88,7.88,0,0,1-.89-.35A6,6,0,0,1,32.5,14l.94-1.9a6.85,6.85,0,0,0,1.59.63,6,6,0,0,0,1.51.22,5.75,5.75,0,0,0,.82-.07,3.74,3.74,0,0,0,1-.26,2.62,2.62,0,0,0,.83-.53,1.18,1.18,0,0,0,.34-.87,1.3,1.3,0,0,0-.47-1,5,5,0,0,0-1.17-.71c-.48-.2-1-.41-1.54-.61a10.7,10.7,0,0,1-1.53-.71,4,4,0,0,1-1.17-1,2.43,2.43,0,0,1-.47-1.55,3.57,3.57,0,0,1,.26-1.32,3.49,3.49,0,0,1,.81-1.16,4.17,4.17,0,0,1,1.34-.83A5.23,5.23,0,0,1,37.48,2a7.23,7.23,0,0,1,1.33.12c.43.08.82.16,1.16.26a7.24,7.24,0,0,1,.85.27Z"/><path class="cls-1" d="M51.33,2.76l-.78,1.77a11.65,11.65,0,0,0-1.47-.43A6.62,6.62,0,0,0,47.74,4,3,3,0,0,0,46,4.37a1.26,1.26,0,0,0-.63,1.08,1.11,1.11,0,0,0,.47.92A5.2,5.2,0,0,0,47.05,7q.71.29,1.53.57a7.76,7.76,0,0,1,1.53.75A4.11,4.11,0,0,1,51.29,9.5a3.24,3.24,0,0,1,.47,1.81,3.85,3.85,0,0,1-.31,1.54A3.21,3.21,0,0,1,50.52,14,4.43,4.43,0,0,1,49,14.8a7.73,7.73,0,0,1-2.22.28A8.59,8.59,0,0,1,45.32,15a9.42,9.42,0,0,1-1.15-.26,8.72,8.72,0,0,1-.89-.35,5.8,5.8,0,0,1-.67-.36l.94-1.9a6.51,6.51,0,0,0,1.59.63,5.13,5.13,0,0,0,2.33.15,3.84,3.84,0,0,0,1-.26,2.58,2.58,0,0,0,.82-.53,1.18,1.18,0,0,0,.35-.87,1.3,1.3,0,0,0-.47-1A5.27,5.27,0,0,0,48,9.49c-.47-.2-1-.41-1.53-.61a9.77,9.77,0,0,1-1.53-.71,4.06,4.06,0,0,1-1.18-1,2.49,2.49,0,0,1-.47-1.55,3.39,3.39,0,0,1,.27-1.32,3.45,3.45,0,0,1,.8-1.16,4.12,4.12,0,0,1,1.35-.83A5.17,5.17,0,0,1,47.58,2a7.34,7.34,0,0,1,1.34.12c.43.08.81.16,1.16.26a7.91,7.91,0,0,1,.85.27Z"/><path class="cls-1" d="M53.83,14.94V2h8.56V4H56V7.47h5.69v2H56v3.44h6.65v2Z"/><path class="cls-1" d="M64.78,2H67V14.94H64.78Z"/><path class="cls-1" d="M77.86,14.94l-.19-.45-.32-.78c-.13-.3-.28-.64-.43-1s-.31-.76-.48-1.16H72l-1.41,3.4H68.44l.34-.79.66-1.56.89-2.07c.32-.76.66-1.54,1-2.33l1-2.32c.32-.77.62-1.46.88-2.07l.67-1.56c.17-.42.29-.68.33-.79.05.11.17.37.35.79s.41.94.67,1.56.56,1.3.89,2.07.65,1.53,1,2.32l1,2.33c.32.76.61,1.45.88,2.07s.49,1.14.66,1.56l.34.79ZM72.74,9.71h2.94L74.41,6.64l-.09-.24c0-.15-.08-.28-.11-.4,0,.12-.06.25-.1.4a1.23,1.23,0,0,0-.07.24Z"/><path class="cls-1" d="M4.19,21.1v4.18H5.46v.62H4.19v3.88H6.14v.62H3.3V20.47H6.14v.63Z"/><path class="cls-1" d="M17.07,23.61h-.9v-2a.52.52,0,0,0-.21-.41,1.18,1.18,0,0,0-.67-.18,1.08,1.08,0,0,0-.66.18.45.45,0,0,0-.19.41,5.82,5.82,0,0,0,.19,1.64,6,6,0,0,0,.48,1.29,8.22,8.22,0,0,0,.64,1.09,3.25,3.25,0,0,0,.28.52,4.93,4.93,0,0,1,.41.9,5.91,5.91,0,0,1,.3,1.05,7.43,7.43,0,0,1,.05,1.29.84.84,0,0,1-.12.45,1.33,1.33,0,0,1-.36.35,2.62,2.62,0,0,1-.56.22,3.74,3.74,0,0,1-.78.08,2.31,2.31,0,0,1-1.28-.3.94.94,0,0,1-.48-.8v-2h.92v2a.58.58,0,0,0,.2.41A1.19,1.19,0,0,0,15,30a1.11,1.11,0,0,0,.66-.16.5.5,0,0,0,.19-.41,5.88,5.88,0,0,0-.19-1.66,7.22,7.22,0,0,0-.48-1.29c-.16-.29-.28-.55-.44-.81l-.48-.8a5.06,5.06,0,0,1-.41-.88,6.28,6.28,0,0,1-.3-1.06,7.44,7.44,0,0,1-.05-1.28.81.81,0,0,1,.12-.47,1.18,1.18,0,0,1,.36-.34,1.77,1.77,0,0,1,.56-.22,3.79,3.79,0,0,1,.78-.09,2.25,2.25,0,0,1,1.27.3.94.94,0,0,1,.48.82Z"/><path class="cls-1" d="M25.73,20.48a2.25,2.25,0,0,1,1.27.3.93.93,0,0,1,.48.81V24.8a.94.94,0,0,1-.48.8,2.25,2.25,0,0,1-1.27.3H25v4.5h-.89V20.48Zm.85,1.11a.5.5,0,0,0-.22-.41,1.27,1.27,0,0,0-.63-.18H25v4.28h.69a1.17,1.17,0,0,0,.63-.17.52.52,0,0,0,.22-.41Z"/><path class="cls-1" d="M37,30.4l-.21-1.7H35.65l-.21,1.7h-.88l1.24-9.93h.88l1.24,9.93Zm-1.29-2.32h1l-.51-4Z"/><path class="cls-1" d="M47.42,26.48h.9v2.83a1,1,0,0,1-.51.79,1.86,1.86,0,0,1-1.15.3,3.36,3.36,0,0,1-.74-.08,1.6,1.6,0,0,1-.53-.22.86.86,0,0,1-.32-.34.74.74,0,0,1-.07-.45V21.5a.78.78,0,0,1,.07-.46.88.88,0,0,1,.32-.35,2.17,2.17,0,0,1,.53-.21,3.36,3.36,0,0,1,.74-.08,1.93,1.93,0,0,1,1.15.29,1,1,0,0,1,.51.81v2.81h-.9V21.5a.46.46,0,0,0-.19-.4.9.9,0,0,0-.59-.17.79.79,0,0,0-.55.17.44.44,0,0,0-.17.4v7.79a.47.47,0,0,0,.17.41.79.79,0,0,0,.55.16.9.9,0,0,0,.59-.16.49.49,0,0,0,.19-.41Z"/><path class="cls-1" d="M55.4,30.4V20.47h.89V30.4Z"/><path class="cls-1" d="M65.84,30.4l-.21-1.7H64.46l-.21,1.7h-.88l1.23-9.93h.89l1.24,9.93Zm-1.29-2.32h1l-.51-4Z"/><path class="cls-1" d="M74.69,29.78H76.6v.62H73.81V20.47h.88Z"/><path class="cls-2" d="M0,7.06A6.32,6.32,0,0,1,.52,4.51a6.77,6.77,0,0,1,1.42-2.1A6.67,6.67,0,0,1,4,1,6.23,6.23,0,0,1,6.58.44,6.3,6.3,0,0,1,9.13,1a6.87,6.87,0,0,1,2.11,1.44,6.77,6.77,0,0,1,1.42,2.1,6.32,6.32,0,0,1,.52,2.55,6.3,6.3,0,0,1-.52,2.56,6.85,6.85,0,0,1-1.42,2.09,6.76,6.76,0,0,1-2.11,1.4,6.29,6.29,0,0,1-2.55.52A6.22,6.22,0,0,1,4,13.11a6.56,6.56,0,0,1-2.09-1.4A6.85,6.85,0,0,1,.52,9.62,6.3,6.3,0,0,1,0,7.06Zm2.18,0a4.49,4.49,0,0,0,.34,1.76,4.29,4.29,0,0,0,1,1.43,4.61,4.61,0,0,0,1.41,1,4.24,4.24,0,0,0,1.75.35,4.08,4.08,0,0,0,1.7-.35,4.34,4.34,0,0,0,1.4-1,4.39,4.39,0,0,0,.94-1.43A4.49,4.49,0,0,0,11,7.06a4.36,4.36,0,0,0-.35-1.76,4.75,4.75,0,0,0-.95-1.44,4.47,4.47,0,0,0-1.41-1,4.35,4.35,0,0,0-1.73-.35,4.3,4.3,0,0,0-1.72.35,4.21,4.21,0,0,0-1.4,1,4.56,4.56,0,0,0-1.28,3.2Z"/><path class="cls-2" d="M15.31.58h3.34a8.11,8.11,0,0,1,3.3.6,6.32,6.32,0,0,1,2.21,1.53,5.83,5.83,0,0,1,1.23,2.13,7.94,7.94,0,0,1,.38,2.38,6.24,6.24,0,0,1-.53,2.61,5.84,5.84,0,0,1-1.4,2,6.09,6.09,0,0,1-2.06,1.25,7.16,7.16,0,0,1-2.49.43h-4ZM19,11.43a5.81,5.81,0,0,0,1.86-.28,4.1,4.1,0,0,0,1.47-.84,3.9,3.9,0,0,0,1-1.36,4.73,4.73,0,0,0,.35-1.87,4.6,4.6,0,0,0-.42-2,3.9,3.9,0,0,0-1.05-1.36,4.07,4.07,0,0,0-1.42-.76,5,5,0,0,0-1.48-.24H17.48v8.76Z"/><path class="cls-2" d="M27.92.58H30.1v12.9H27.92Z"/><path class="cls-2" d="M40.68,1.31l-.77,1.77a12.71,12.71,0,0,0-1.47-.43,6.79,6.79,0,0,0-1.35-.15,3,3,0,0,0-1.71.42A1.25,1.25,0,0,0,34.76,4a1.1,1.1,0,0,0,.46.92,5.2,5.2,0,0,0,1.18.64q.7.29,1.53.57a7.76,7.76,0,0,1,1.53.75,4.11,4.11,0,0,1,1.18,1.17,3.24,3.24,0,0,1,.47,1.81,3.85,3.85,0,0,1-.31,1.54,3.21,3.21,0,0,1-.93,1.18,4.43,4.43,0,0,1-1.57.77,8.1,8.1,0,0,1-2.22.28,8.59,8.59,0,0,1-1.41-.11,7.37,7.37,0,0,1-1.14-.27,6.56,6.56,0,0,1-.9-.34c-.26-.12-.48-.25-.67-.36l.94-1.9a6.94,6.94,0,0,0,1.59.63,6,6,0,0,0,1.5.22,5.76,5.76,0,0,0,.83-.07,4.3,4.3,0,0,0,1-.26,2.58,2.58,0,0,0,.82-.53A1.18,1.18,0,0,0,39,9.77a1.3,1.3,0,0,0-.47-1A5,5,0,0,0,37.32,8c-.47-.2-1-.41-1.53-.61a9.77,9.77,0,0,1-1.53-.71,4.2,4.2,0,0,1-1.18-1,2.49,2.49,0,0,1-.47-1.55,3.39,3.39,0,0,1,.27-1.32,3.45,3.45,0,0,1,.8-1.16A4.12,4.12,0,0,1,35,.83a5.21,5.21,0,0,1,1.9-.32,7.34,7.34,0,0,1,1.34.12c.43.08.81.16,1.16.25s.62.19.85.28Z"/><path class="cls-2" d="M50.79,1.31,50,3.08a12.71,12.71,0,0,0-1.47-.43A6.62,6.62,0,0,0,47.2,2.5a3,3,0,0,0-1.71.42A1.26,1.26,0,0,0,44.86,4a1.11,1.11,0,0,0,.47.92,4.81,4.81,0,0,0,1.18.64q.7.29,1.53.57a7.76,7.76,0,0,1,1.53.75,4.08,4.08,0,0,1,1.17,1.17,3.16,3.16,0,0,1,.47,1.81,3.69,3.69,0,0,1-.31,1.54A3,3,0,0,1,50,12.58a4.38,4.38,0,0,1-1.56.77,8.1,8.1,0,0,1-2.22.28,8.81,8.81,0,0,1-1.42-.11,8,8,0,0,1-1.14-.27,6.4,6.4,0,0,1-.89-.34c-.26-.12-.49-.25-.68-.36l.94-1.9a7.32,7.32,0,0,0,1.59.63,6,6,0,0,0,1.51.22,5.63,5.63,0,0,0,.82-.07,4,4,0,0,0,1-.26,2.62,2.62,0,0,0,.83-.53,1.18,1.18,0,0,0,.34-.87,1.27,1.27,0,0,0-.47-1A5,5,0,0,0,47.43,8c-.48-.2-1-.41-1.53-.61a10.34,10.34,0,0,1-1.54-.71,4,4,0,0,1-1.17-1,2.43,2.43,0,0,1-.47-1.55A3.57,3.57,0,0,1,43,2.82a3.49,3.49,0,0,1,.81-1.16A4.17,4.17,0,0,1,45.13.83,5.27,5.27,0,0,1,47,.51a7.23,7.23,0,0,1,1.33.12c.43.08.82.16,1.16.25s.63.19.85.28Z"/><path class="cls-2" d="M53.28,13.48V.58h8.57v2H55.44V6h5.7V8h-5.7v3.44H62.1v2Z"/><path class="cls-2" d="M64.24.58h2.17v12.9H64.24Z"/><path class="cls-2" d="M77.31,13.48,77.13,13l-.33-.78c-.13-.3-.27-.64-.42-1s-.32-.76-.48-1.16H71.46L70,13.48H67.9c0-.1.16-.36.34-.78s.39-.94.66-1.56.56-1.31.88-2.07l1-2.33c.35-.79.68-1.56,1-2.32s.62-1.46.89-2.08.49-1.13.66-1.55L73.67,0,74,.79c.19.42.41.94.68,1.55s.56,1.31.88,2.08l1,2.32c.34.79.68,1.57,1,2.33l.89,2.07.66,1.56c.18.42.29.68.34.78ZM72.2,8.26h2.94L73.86,5.19A2,2,0,0,1,73.78,5a2.73,2.73,0,0,1-.11-.4,2.73,2.73,0,0,1-.11.4c0,.14-.07.22-.07.24Z"/><path class="cls-2" d="M3.65,19.65v4.18H4.92v.62H3.65v3.88H5.59v.61H2.76V19H5.59v.63Z"/><path class="cls-2" d="M16.53,22.16h-.9v-2a.5.5,0,0,0-.22-.41,1.16,1.16,0,0,0-.67-.18,1.07,1.07,0,0,0-.65.18.44.44,0,0,0-.2.41,5.46,5.46,0,0,0,.2,1.64,6.52,6.52,0,0,0,.47,1.29,9.47,9.47,0,0,0,.64,1.09c.09.19.18.35.28.52a4.51,4.51,0,0,1,.41.89,5.47,5.47,0,0,1,.3,1.06A7.34,7.34,0,0,1,16.25,28a.77.77,0,0,1-.13.45,1.3,1.3,0,0,1-.35.35,2.71,2.71,0,0,1-.57.22,3.67,3.67,0,0,1-.78.08,2.29,2.29,0,0,1-1.27-.3.94.94,0,0,1-.48-.8V26h.92v2a.51.51,0,0,0,.2.4,1.09,1.09,0,0,0,.67.17,1,1,0,0,0,.65-.17.48.48,0,0,0,.2-.4,5.85,5.85,0,0,0-.2-1.66A6,6,0,0,0,14.63,25c-.15-.29-.28-.55-.44-.81l-.48-.8a5.39,5.39,0,0,1-.4-.88,5.47,5.47,0,0,1-.3-1.06A7.38,7.38,0,0,1,13,20.19a.81.81,0,0,1,.13-.47,1.26,1.26,0,0,1,.35-.34,1.93,1.93,0,0,1,.57-.22,3.79,3.79,0,0,1,.78-.09,2.29,2.29,0,0,1,1.27.3,1,1,0,0,1,.48.82Z"/><path class="cls-2" d="M25.18,19a2.26,2.26,0,0,1,1.28.3.92.92,0,0,1,.47.81v3.21a.93.93,0,0,1-.47.8,2.26,2.26,0,0,1-1.28.3h-.69v4.49h-.88V19ZM26,20.14a.52.52,0,0,0-.21-.41,1.28,1.28,0,0,0-.64-.18h-.69v4.28h.69a1.1,1.1,0,0,0,.64-.18.5.5,0,0,0,.21-.4Z"/><path class="cls-2" d="M36.49,28.94l-.21-1.69H35.11l-.21,1.69H34L35.25,19h.89l1.23,9.92ZM35.2,26.63h1l-.52-4Z"/><path class="cls-2" d="M46.88,25h.9v2.82a1,1,0,0,1-.51.8,1.88,1.88,0,0,1-1.15.29,3.42,3.42,0,0,1-.75-.07,1.69,1.69,0,0,1-.53-.22.86.86,0,0,1-.32-.34.85.85,0,0,1-.07-.46v-7.8a.86.86,0,0,1,.07-.46.88.88,0,0,1,.32-.35,2.34,2.34,0,0,1,.53-.21,3.38,3.38,0,0,1,.75-.08,2,2,0,0,1,1.15.29,1,1,0,0,1,.51.81v2.81h-.9V20.05a.47.47,0,0,0-.2-.4.89.89,0,0,0-.58-.17.75.75,0,0,0-.55.17.45.45,0,0,0-.18.4v7.79a.48.48,0,0,0,.18.41.75.75,0,0,0,.55.16.89.89,0,0,0,.58-.16.5.5,0,0,0,.2-.41Z"/><path class="cls-2" d="M54.86,28.94V19h.88v9.92Z"/><path class="cls-2" d="M65.3,28.94l-.21-1.69H63.92l-.21,1.69h-.89L64.06,19H65l1.23,9.92ZM64,26.63h1l-.52-4Z"/><path class="cls-2" d="M74.15,28.33h1.91v.61h-2.8V19h.89Z"/><path class="cls-3" d="M.36,7.79A6.46,6.46,0,0,1,.88,5.24,6.75,6.75,0,0,1,4.39,1.7,6.11,6.11,0,0,1,7,1.17a6.12,6.12,0,0,1,2.54.53A6.73,6.73,0,0,1,11.6,3.13,6.65,6.65,0,0,1,13,5.24a6.4,6.4,0,0,1,0,5.1,6.45,6.45,0,0,1-1.42,2.09,6.51,6.51,0,0,1-2.11,1.41A6.44,6.44,0,0,1,7,14.35a6.43,6.43,0,0,1-2.56-.51A6.53,6.53,0,0,1,2.3,12.43,6.61,6.61,0,0,1,.88,10.34,6.42,6.42,0,0,1,.36,7.79Zm2.18,0a4.52,4.52,0,0,0,.34,1.76,4.39,4.39,0,0,0,1,1.43,4.45,4.45,0,0,0,1.42,1,4.31,4.31,0,0,0,3.45,0,4.22,4.22,0,0,0,1.39-1,4.58,4.58,0,0,0,1.29-3.19A4.3,4.3,0,0,0,11,6a4.73,4.73,0,0,0-.95-1.45,4.49,4.49,0,0,0-1.41-1A4.17,4.17,0,0,0,7,3.26a4.18,4.18,0,0,0-1.73.35,4.45,4.45,0,0,0-1.4,1A4.89,4.89,0,0,0,2.88,6,4.45,4.45,0,0,0,2.54,7.79Z"/><path class="cls-3" d="M15.67,1.31H19a8.29,8.29,0,0,1,3.3.59,6.49,6.49,0,0,1,2.21,1.53,6,6,0,0,1,1.23,2.14A7.89,7.89,0,0,1,26.13,8a6.47,6.47,0,0,1-.52,2.61,6,6,0,0,1-1.41,2,6.26,6.26,0,0,1-2.06,1.25,7.16,7.16,0,0,1-2.49.43h-4Zm3.65,10.85a5.74,5.74,0,0,0,1.85-.29A4,4,0,0,0,22.64,11a3.72,3.72,0,0,0,1-1.36A4.73,4.73,0,0,0,24,7.8a4.66,4.66,0,0,0-.41-2,4,4,0,0,0-2.47-2.12,5.08,5.08,0,0,0-1.49-.24H17.85v8.76Z"/><path class="cls-3" d="M28.29,1.31h2.17v12.9H28.29Z"/><path class="cls-3" d="M41.05,2,40.27,3.8a14.93,14.93,0,0,0-1.47-.42,6.11,6.11,0,0,0-1.35-.16,2.91,2.91,0,0,0-1.7.43,1.25,1.25,0,0,0-.63,1.07,1.07,1.07,0,0,0,.47.92,4.92,4.92,0,0,0,1.17.64l1.53.58a7.09,7.09,0,0,1,1.54.75A4.08,4.08,0,0,1,41,8.78a3.21,3.21,0,0,1,.47,1.8,3.65,3.65,0,0,1-.31,1.54,3.24,3.24,0,0,1-.93,1.19,4.55,4.55,0,0,1-1.56.77,8.23,8.23,0,0,1-2.22.27,8.78,8.78,0,0,1-1.42-.1A8.74,8.74,0,0,1,33.89,14a6.52,6.52,0,0,1-.9-.35,5.8,5.8,0,0,1-.67-.36l.94-1.89a7.32,7.32,0,0,0,1.59.63,6.47,6.47,0,0,0,1.51.22,7.73,7.73,0,0,0,.82-.07,4.19,4.19,0,0,0,1-.27,2.42,2.42,0,0,0,.82-.53,1.15,1.15,0,0,0,.35-.87,1.27,1.27,0,0,0-.47-1,4.29,4.29,0,0,0-1.18-.71c-.47-.21-1-.41-1.53-.61a9,9,0,0,1-1.53-.72,4,4,0,0,1-1.17-1A2.4,2.4,0,0,1,33,4.87a3.57,3.57,0,0,1,.26-1.32,3.39,3.39,0,0,1,.81-1.16,4.17,4.17,0,0,1,1.34-.83,5,5,0,0,1,1.9-.32,8.36,8.36,0,0,1,1.34.11c.43.08.82.17,1.16.26s.62.19.85.27Z"/><path class="cls-3" d="M51.15,2,50.37,3.8a13.51,13.51,0,0,0-1.47-.42,6,6,0,0,0-1.34-.16,3,3,0,0,0-1.71.43,1.25,1.25,0,0,0-.63,1.07,1.1,1.1,0,0,0,.47.92,5,5,0,0,0,1.18.64c.47.19,1,.38,1.53.58a6.8,6.8,0,0,1,1.53.75,4.24,4.24,0,0,1,1.18,1.17,3.21,3.21,0,0,1,.47,1.8,3.81,3.81,0,0,1-.31,1.54,3.24,3.24,0,0,1-.93,1.19,4.7,4.7,0,0,1-1.57.77,8.13,8.13,0,0,1-2.22.27,8.87,8.87,0,0,1-1.42-.1A9.59,9.59,0,0,1,44,14a6.89,6.89,0,0,1-.89-.35,5.8,5.8,0,0,1-.67-.36l.93-1.89A7.2,7.2,0,0,0,45,12a6.32,6.32,0,0,0,1.5.22,7.52,7.52,0,0,0,.82-.07,4.27,4.27,0,0,0,1-.27,2.52,2.52,0,0,0,.82-.53,1.15,1.15,0,0,0,.34-.87,1.26,1.26,0,0,0-.46-1,4.62,4.62,0,0,0-1.18-.71c-.47-.21-1-.41-1.53-.61a9,9,0,0,1-1.53-.72,4.06,4.06,0,0,1-1.18-1,2.46,2.46,0,0,1-.47-1.54,3.39,3.39,0,0,1,.27-1.32,3.23,3.23,0,0,1,.8-1.16,4.12,4.12,0,0,1,1.35-.83,5,5,0,0,1,1.9-.32,8.45,8.45,0,0,1,1.34.11c.43.08.81.17,1.15.26a8.79,8.79,0,0,1,.85.27Z"/><path class="cls-3" d="M53.65,14.21V1.31h8.56v2h-6.4V6.74H61.5v2H55.81v3.43h6.65v2Z"/><path class="cls-3" d="M64.6,1.31h2.18v12.9H64.6Z"/><path class="cls-3" d="M77.68,14.21c0-.08-.1-.23-.19-.44L77.16,13l-.42-1c-.15-.37-.31-.76-.48-1.16H71.82l-1.42,3.4H68.26l.34-.79.66-1.55c.27-.62.56-1.31.89-2.08s.66-1.53,1-2.32l1-2.33L73,3.07l.67-1.56Q74,.88,74,.73c0,.1.16.36.35.78l.67,1.56.88,2.07,1,2.33c.35.79.68,1.56,1,2.32s.62,1.46.89,2.08.49,1.13.66,1.55l.34.79ZM72.56,9H75.5L74.23,5.91a.87.87,0,0,1-.09-.24c0-.15-.08-.28-.11-.4,0,.12-.06.25-.1.4l-.08.24Z"/><path class="cls-3" d="M4,20.38v4.17H5.28v.62H4v3.88H6v.62H3.12V19.75H6v.63Z"/><path class="cls-3" d="M16.89,22.88H16v-2a.54.54,0,0,0-.21-.41,1.22,1.22,0,0,0-.68-.17,1.07,1.07,0,0,0-.65.17.47.47,0,0,0-.2.41,5.87,5.87,0,0,0,.2,1.65,6.15,6.15,0,0,0,.48,1.29,9.68,9.68,0,0,0,.63,1.09c.09.18.18.34.29.52a4.23,4.23,0,0,1,.4.89,5.37,5.37,0,0,1,.3,1,6.53,6.53,0,0,1,.06,1.29.82.82,0,0,1-.13.46,1.17,1.17,0,0,1-.35.35,3.09,3.09,0,0,1-.57.22,3.67,3.67,0,0,1-.77.07,2.4,2.4,0,0,1-1.28-.29,1,1,0,0,1-.48-.81v-2H14v2a.53.53,0,0,0,.2.41,1.19,1.19,0,0,0,.67.16,1.11,1.11,0,0,0,.66-.16.49.49,0,0,0,.19-.41A5.92,5.92,0,0,0,15.48,27,7.52,7.52,0,0,0,15,25.74c-.16-.28-.29-.54-.44-.8l-.48-.81a5.06,5.06,0,0,1-.41-.88,6.44,6.44,0,0,1-.3-1.05,7.56,7.56,0,0,1,0-1.29.85.85,0,0,1,.12-.47,1.23,1.23,0,0,1,.35-.33,2,2,0,0,1,.57-.23,3.81,3.81,0,0,1,.78-.08,2.36,2.36,0,0,1,1.27.29,1,1,0,0,1,.48.82Z"/><path class="cls-3" d="M25.54,19.76a2.26,2.26,0,0,1,1.28.3.91.91,0,0,1,.48.8v3.21a1,1,0,0,1-.48.81,2.35,2.35,0,0,1-1.28.29h-.69v4.5H24V19.76Zm.85,1.1a.51.51,0,0,0-.21-.41,1.18,1.18,0,0,0-.64-.17h-.69v4.27h.69a1.18,1.18,0,0,0,.64-.17.51.51,0,0,0,.21-.41Z"/><path class="cls-3" d="M36.85,29.67,36.64,28H35.47l-.21,1.7h-.89l1.24-9.92h.89l1.24,9.92Zm-1.29-2.32h1l-.51-4Z"/><path class="cls-3" d="M47.24,25.76h.9v2.82a.92.92,0,0,1-.51.79,1.86,1.86,0,0,1-1.15.3,3.38,3.38,0,0,1-.74-.07,1.52,1.52,0,0,1-.53-.23.91.91,0,0,1-.32-.33.79.79,0,0,1-.07-.46V20.77a.73.73,0,0,1,.07-.45.82.82,0,0,1,.32-.35,1.72,1.72,0,0,1,.53-.21,3.33,3.33,0,0,1,.74-.09,1.86,1.86,0,0,1,1.15.3,1,1,0,0,1,.51.8v2.82h-.9V20.77a.44.44,0,0,0-.19-.39.92.92,0,0,0-.59-.17.79.79,0,0,0-.55.17.42.42,0,0,0-.17.39v7.8a.48.48,0,0,0,.17.41.79.79,0,0,0,.55.16.92.92,0,0,0,.59-.16.5.5,0,0,0,.19-.41Z"/><path class="cls-3" d="M55.22,29.67V19.75h.89v9.92Z"/><path class="cls-3" d="M65.66,29.67,65.45,28H64.28l-.21,1.7h-.89l1.24-9.92h.89l1.24,9.92Zm-1.29-2.32h1l-.51-4Z"/><path class="cls-3" d="M74.51,29.05h1.91v.62H73.63V19.75h.88Z"/></g></g></svg>