<svg xmlns="http://www.w3.org/2000/svg" xmlns:xlink="http://www.w3.org/1999/xlink" viewBox="0 0 197.32 147.48"><defs><style>.cls-1{isolation:isolate;}.cls-10,.cls-2,.cls-5,.cls-6,.cls-7{mix-blend-mode:screen;}.cls-2{fill:url(#radial-gradient);}.cls-3,.cls-4,.cls-5,.cls-6,.cls-8{fill:#e0a326;}.cls-4{opacity:0.5;}.cls-4,.cls-8,.cls-9{mix-blend-mode:multiply;}.cls-5,.cls-7{opacity:0.34;}.cls-6{opacity:0.6;}.cls-8,.cls-9{opacity:0.35;}.cls-10{opacity:0.45;}.cls-11{fill:url(#radial-gradient-2);}.cls-12{fill:url(#radial-gradient-3);}</style><radialGradient id="radial-gradient" cx="-1987.49" cy="-330.22" r="67.37" gradientTransform="translate(2018.24 -545.74) rotate(-27.15)" gradientUnits="userSpaceOnUse"><stop offset="0" stop-color="#ed6563"/><stop offset="0.38" stop-color="#ed6663" stop-opacity="0.99"/><stop offset="0.51" stop-color="#ee6a62" stop-opacity="0.96"/><stop offset="0.61" stop-color="#ef7060" stop-opacity="0.91"/><stop offset="0.69" stop-color="#f0795e" stop-opacity="0.84"/><stop offset="0.76" stop-color="#f2845b" stop-opacity="0.75"/><stop offset="0.82" stop-color="#f49358" stop-opacity="0.63"/><stop offset="0.87" stop-color="#f6a454" stop-opacity="0.5"/><stop offset="0.92" stop-color="#f9b84f" stop-opacity="0.34"/><stop offset="0.96" stop-color="#fccd4a" stop-opacity="0.17"/><stop offset="1" stop-color="#ffe245" stop-opacity="0"/></radialGradient><radialGradient id="radial-gradient-2" cx="2300.73" cy="-1015.07" r="134.66" gradientTransform="matrix(0.8, 0.48, -0.57, 0.95, -2326.89, -46.22)" gradientUnits="userSpaceOnUse"><stop offset="0" stop-color="#8ee1ee"/><stop offset="0.62" stop-color="#5e8dec"/><stop offset="0.63" stop-color="#5f89e8"/><stop offset="0.74" stop-color="#6b64c7"/><stop offset="0.84" stop-color="#714eb3"/><stop offset="0.9" stop-color="#7446ac"/></radialGradient><radialGradient id="radial-gradient-3" cx="-327.87" cy="150.17" r="134.66" gradientTransform="translate(407.87 -87.45) rotate(-4.26)" xlink:href="#radial-gradient-2"/></defs><title>planeta_2</title><g class="cls-1"><g id="Camada_2" data-name="Camada 2"><g id="Layer_1" data-name="Layer 1"><circle class="cls-2" cx="99.05" cy="67.38" r="67.35" transform="translate(-3.39 5.28) rotate(-3)"/><circle class="cls-3" cx="99.05" cy="67.38" r="61.55" transform="matrix(1, -0.05, 0.05, 1, -3.39, 5.28)"/><rect class="cls-4" x="66.41" y="119.58"/><path class="cls-4" d="M138.74,20.35l-.42-.35c-.41-.34-.81-.67-1.22-1l-.34-.27q-.78-.6-1.56-1.17l-.3-.21c-.44-.32-.88-.63-1.33-.93-.13-.1-.27-.19-.41-.28-.53-.35-1.06-.7-1.6-1h0c-.56-.35-1.12-.68-1.69-1l-.35-.2c-.48-.28-1-.55-1.46-.81l-.28-.15c-.58-.31-1.18-.61-1.77-.9l-.08,0-1.7-.79-.29-.13c-1.22-.54-2.45-1-3.69-1.49l-.16-.05c-.59-.22-1.19-.43-1.79-.62l-.12,0c-1.28-.42-2.58-.8-3.88-1.13l-.14,0c-1.32-.33-2.64-.62-4-.87h0c6.41,3.28,16,8.58,13.07,15.07-3.74,8.34-18.73,12-24.5,36s6.92,31.31-2.51,48.74-29.81,12.89-29.82,12.89l3.64,2.1a61.57,61.57,0,0,0,70.89-9.21l.69-.65.52-.5.93-.94.41-.42c.44-.46.87-.92,1.3-1.39a61.56,61.56,0,0,0-4.56-86.93C139.74,21.2,139.24,20.77,138.74,20.35Z"/><path class="cls-5" d="M136.29,21.2l-.41-.35-1.19-1-.34-.27c-.51-.39-1-.77-1.53-1.14l-.29-.21c-.43-.31-.87-.62-1.3-.91l-.41-.28c-.52-.34-1-.68-1.57-1h0c-.55-.35-1.11-.68-1.66-1l-.34-.19-1.44-.8-.27-.14c-.58-.31-1.16-.6-1.74-.89l-.07,0L122,12.23l-.28-.13c-1.19-.52-2.4-1-3.62-1.46l-.15-.05L116.24,10l-.13,0c-1.26-.41-2.52-.78-3.8-1.1l-.14,0c-.8-.2-1.61-.38-2.42-.55.83.23,1.66.48,2.48.74l.12,0c.59.19,1.17.39,1.76.6l.15.06c1.22.44,2.42.93,3.62,1.46l.28.12c.56.26,1.12.51,1.67.78l.07,0c.59.28,1.17.58,1.75.88l.27.15c.48.25,1,.52,1.43.79l.34.2c.56.32,1.11.65,1.66,1h0c.53.33,1,.67,1.57,1l.4.27,1.3.91.3.21c.51.37,1,.75,1.52,1.15.12.08.23.18.34.27.4.31.8.63,1.19,1l.42.34c.49.42,1,.84,1.46,1.27a60.35,60.35,0,0,1,4.47,85.23c-.42.47-.85.92-1.28,1.37l-.39.41c-.31.31-.61.62-.92.92l-.51.5-.67.63a60.35,60.35,0,0,1-53.45,14.86,60.38,60.38,0,0,0,57.33-13.91l.68-.64.5-.49.92-.92.4-.41c.43-.45.86-.91,1.27-1.37a60.35,60.35,0,0,0-4.47-85.23C137.27,22,136.78,21.62,136.29,21.2Z"/><path class="cls-6" d="M109.66,19.87a7.89,7.89,0,0,1-.21,1.35,15.49,15.49,0,0,1-2.76,5.11q-3.57,5-6.92,10.12c-5.26,8-10.25,16.57-11.84,26-1,5.93-.61,12-.37,18s.34,12.1-1.2,17.91-4.92,11.36-10.18,14.28c-12.5,6.93-22.29-6.89-27.86-16.41A59.09,59.09,0,0,1,84.1,9.33c9-2.39,21.86-4.64,25.14,6.92A10.86,10.86,0,0,1,109.66,19.87Z"/><path class="cls-6" d="M50.66,96.8A59.1,59.1,0,0,1,86.44,9.86C91.1,8.62,96.8,7.43,101.67,8.17,96.38,6.5,89.54,7.88,84.1,9.33A59.09,59.09,0,0,0,48.32,96.26c4.25,7.25,11,17,19.42,18.16C60.37,112,54.51,103.37,50.66,96.8Z"/><path class="cls-5" d="M54.32,53.17c4.56.21,8,6.81,7.58,14.75S57.54,82.11,53,81.9s-8-6.82-7.58-14.75S49.77,53,54.32,53.17Z"/><path class="cls-5" d="M61,34.48c2.31,1,2.75,5.09,1,9.12s-5.07,6.46-7.38,5.45-2.74-5.1-1-9.12S58.65,33.46,61,34.48Z"/><path class="cls-4" d="M104.68,25a4.23,4.23,0,0,1-.7,1.3,4.44,4.44,0,0,1-1,1,16.69,16.69,0,0,0-3.25,2.36,7.91,7.91,0,0,0-1.2,1.8c-.28.54-.49,1-.69,1.32a3.23,3.23,0,0,1-.59.73,4.4,4.4,0,0,1-.75.55,17.15,17.15,0,0,1-1.69.88l-1.69.82-1.65.91c-1,.61-2.55,1.45-4.31,2.58a55.49,55.49,0,0,0-5.78,4.24,33.45,33.45,0,0,0-5.65,6.11,25.37,25.37,0,0,0-3.55,7.52,29.16,29.16,0,0,1-2.32,6.29,10.65,10.65,0,0,1-1.56,2.07,8.35,8.35,0,0,1-1.56,1.25c-1,.58-1.64.72-1.62.88s.74.25,2-.15a7.27,7.27,0,0,0,2-1.08c1.41-1,2.27-2.55,3.57-3.69,1.48-1.31,3.56-2,4.52-3.81a11.67,11.67,0,0,0,.74-2.55,11.9,11.9,0,0,1,4.52-6.72c1.3-1,2.79-1.62,4.05-2.63,1.51-1.2,2.7-2.88,4.46-3.66a9.21,9.21,0,0,0,2.56-1.18,9.06,9.06,0,0,0,1.44-2.4c1-1.64,3.6-2.19,5-3.57A6.65,6.65,0,0,0,101,34.54,18,18,0,0,1,102.32,32a16.17,16.17,0,0,1,2.58-2,10.1,10.1,0,0,0,.88-.77A22.69,22.69,0,0,0,109,23.86a14.37,14.37,0,0,0,1.2-9.75c-.41-1.83-2.24-8-4.32-7.62-.62,4.83-.18,10-.58,14.94A13.94,13.94,0,0,1,104.68,25Z"/><path class="cls-4" d="M160.24,60.8a42.7,42.7,0,0,0-6.16,5.33,68.06,68.06,0,0,0-6,7,69.35,69.35,0,0,0-5.61,9c-.85,1.59-1.61,3.24-2.32,4.87-.36.82-.67,1.64-1,2.45s-.59,1.61-.89,2.39a36.24,36.24,0,0,1-3.59,7.85,14.58,14.58,0,0,1-4,4c-.57.4-1.07.67-1.39.87l-.52.28-.5.3c-.35.18-.85.46-1.51.78-1.32.66-3.31,1.5-5.78,2.55a38.2,38.2,0,0,0-8.3,4.55c-2.8,2.15-5.18,4.82-7.77,7-.64.58-1.32,1.1-2,1.64s-1.36,1-2.07,1.51a48.27,48.27,0,0,1-4.23,2.64,52.6,52.6,0,0,1-5.45,2.62c1,.13,2.06.24,3.09.31a40.79,40.79,0,0,0,7.19-1.36,6.49,6.49,0,0,0,2.12-.77,5.69,5.69,0,0,0,1.89-2.48,2.66,2.66,0,0,1,1-1.35,4.34,4.34,0,0,1,1.77-.2c2.11-.13,3.47-2.3,4-4.34a6.41,6.41,0,0,1,.7-1.92c1.6-2.46,8.3-4,10.84-4.77a3.77,3.77,0,0,1,1.81-.25,14.65,14.65,0,0,1,1.52.56c1.49.42,3-.59,4.07-1.69a23,23,0,0,1,4.14-3.61c1.81-1.11,3.83-1.52,5-3.52,1-1.82.85-4.15,1.85-6,.86-1.57,2.5-2.64,3.18-4.29s.32-3.31.24-5a18.8,18.8,0,0,1,1.91-9.52,5.17,5.17,0,0,1,1.63-1.84c.49-.32,1.06-.49,1.57-.78,1.72-1,2.45-3,3.08-4.92a103.1,103.1,0,0,1,6.48-9.52C160.27,61.06,160.25,60.93,160.24,60.8Z"/><path class="cls-4" d="M124.74,43.51a16.84,16.84,0,0,1-4.37,4.38,19.89,19.89,0,0,1-5.07,2.41c-1.71.57-3.37,1-4.87,1.4s-2.83.78-3.94,1.16c-.55.18-1,.37-1.47.53l-1.09.45-.9.42-.22.11-.65.36c-.28.16-.63.36-1,.62l-.63.41-.69.5a32.23,32.23,0,0,0-6.77,6.94,61.33,61.33,0,0,0-3.44,5.29c-1.12,1.91-2.21,3.94-3.34,6C84,78.62,81.56,83,78.17,86.4l-1.28,1.28-1.38,1.17A17.22,17.22,0,0,1,74.07,90c-.49.35-.95.73-1.47,1l-1.52,1c-.52.3-1,.57-1.57.86s-1,.54-1.58.79-1.05.51-1.58.73A65.73,65.73,0,0,1,54.16,98c-2.49.52-4.71.9-6.57,1.19-.33.06,1.17,1,1.37,1.06a4.55,4.55,0,0,0,2.37-.11c1-.23,2-.7,3-1A4.89,4.89,0,0,1,56,99.07c1.41.12,2.63,1,4,1.41a9.23,9.23,0,0,0,5-.16,17.8,17.8,0,0,0,5.4-2.49,12.65,12.65,0,0,1,2.1-1.3c1.94-.82,4.24-.22,6.21-1,2.48-.92,3.77-3.6,5.8-5.29,1.43-1.18,3.32-2,4.22-3.58,1.67-3,.87-7.59,2.12-11A24.55,24.55,0,0,1,98,65.47a16.2,16.2,0,0,1,2.89-2c3.93-2,8.58-2.91,12.68-4.68A43.37,43.37,0,0,0,124.3,51.9a9.81,9.81,0,0,0,2.17-2.24c.7-1.13.54-2.53,1.12-3.62.78-1.47,3-2.74,4.29-3.82a8.66,8.66,0,0,0,2.39-2.66,9.09,9.09,0,0,0,.57-4.43c-.12-3.83-.1-7.67.07-11.5.1-2.28.76-4.58-.07-6.32-.7-.5-1.41-1-2.12-1.46-1.69,4.49-1.86,9.84-2.83,14.51C128.89,35.19,127.31,39.92,124.74,43.51Z"/><path class="cls-4" d="M78.86,121.6a35,35,0,0,0,5-2.74,6.88,6.88,0,0,0,1.86-1.57c3.51-4.56,2.72-10.12,7.73-14a15.22,15.22,0,0,1,5.14-2.48c3.12-1,4.16-.38,7.1.15a2.39,2.39,0,0,0,2.2-1.12,23.94,23.94,0,0,0,1.23-2.29c1.11-1.9,3.1-3.08,4.92-4.31a4.54,4.54,0,0,0,1.25-1.1c1.44-2,.73-4.69,2.35-6.84A20.67,20.67,0,0,0,121,80.16c1.47-3.71,1.75-6.36,1.52-6.41s-1.09,2.4-2.93,5.75A41.36,41.36,0,0,1,116,84.9a38.42,38.42,0,0,1-5,5.35,36.79,36.79,0,0,1-6,4.21,37.65,37.65,0,0,1-5.78,2.62c-1.79.65-3.37,1.21-4.48,1.68-.55.24-1,.43-1.28.58l-.46.22-.44.25c-.29.16-.71.42-1.24.78A16.31,16.31,0,0,0,89.46,102a14.39,14.39,0,0,0-2,2.3,31.88,31.88,0,0,0-1.71,2.84c-.54,1-1.07,1.95-1.7,2.92a35.75,35.75,0,0,1-4.55,5.68,29.64,29.64,0,0,1-5.65,4.58,23.76,23.76,0,0,1-2.74,1.43C73.08,123.45,76.1,122.8,78.86,121.6Z"/><path class="cls-4" d="M63.14,48A34.31,34.31,0,0,1,57,51.81a69,69,0,0,1-13.15,4.56c-1.28.33-4,.42-4.11,1.91,3.79.17,7.1-1.33,10.7-2.28,2.5-.66,5.14-.34,7.71-.59l.13,0c9.87-1,12.7-9.07,16.67-16.7a41.93,41.93,0,0,1,2.23-3.89c1.88-2.82,4.19-6,7.13-7.78,1.09-.68,2.47-1.4,2.55-2.68a3.14,3.14,0,0,1,.09-1,2.15,2.15,0,0,1,.5-.59c1-1.05.92-2.71.66-4.14C88,17.82,85.2,8.17,84.44,8.37l-1.53.44a16.59,16.59,0,0,1,1.27,6.08,13.9,13.9,0,0,1-.34,3.44,13.87,13.87,0,0,1-1.16,3.31,29.34,29.34,0,0,1-4.19,5.85c-1.56,1.81-3.11,3.53-4.32,5.19a45.33,45.33,0,0,0-2.65,4.11c-.56,1-.89,1.54-.89,1.54l-.81,1.53a29.07,29.07,0,0,1-2.35,3.71A25.42,25.42,0,0,1,63.14,48Z"/><path class="cls-4" d="M151.14,35.9c-1.36,1.77-2.49,6-3.29,7.16a13.36,13.36,0,0,1-1.6,1.94c-.44.44-.72.69-.72.69l-.73.75c-.47.5-1.2,1.2-2.06,2.19a13.35,13.35,0,0,0-2.4,4,21.34,21.34,0,0,0-1.17,4.87c-.43,3.25-.57,6.33-1.19,8.52s-1.47,3.46-1.25,3.7,2.23-2.6,2.52-2.81a18.11,18.11,0,0,0,2.27-2,6.43,6.43,0,0,0,2.11-4.35c0-1.14-.56-2.3-.18-3.37s1.27-1.54,1.8-2.39a8,8,0,0,0,.79-2.92c.41-2.26,2.78-4.11,4.53-5.34a9.14,9.14,0,0,0,3.75-6.1.25.25,0,0,0,0-.08c-.82-1.68-1.71-3.32-2.69-4.93A3.12,3.12,0,0,0,151.14,35.9Z"/><path class="cls-4" d="M43.37,84.06c-.77-.2-1.54-.4-2.31-.56A3.57,3.57,0,0,0,42.54,86c1.62,1.26,4.2,1.76,5.94,2.44a12.79,12.79,0,0,0,2.87.86c2.06.28,4.34-.44,6.15.58.63.36,1.21.91,1.93.88a3.28,3.28,0,0,0,1.33-.58c1.64-.93,3.61-1,5.49-1.17s3.9-.74,5-2.28c1.42-2,3.07-3.69,4.44-5.76a8.39,8.39,0,0,1,2.38-2.37c1.34-.88,2.93-1.37,4.15-2.4C85,73.89,86.34,69,88.12,65.87c1.27-2.25,2.46-4.62,4.39-6.33a10.41,10.41,0,0,0,2.28-2.21,11.86,11.86,0,0,0,.94-3.24c.81-3.05,4.71-4.83,7-6.55a33,33,0,0,0,4.16-3.66c1.25-1.32,2.37-2.7,3.41-4s2-2.64,2.88-3.93a15,15,0,0,0,1.22-2,9.46,9.46,0,0,0,.76-2.14,12,12,0,0,0,.16-3.86,19.08,19.08,0,0,0-.54-2.83c-.42-1.53-.76-2.36-.89-2.33s-.06.93.09,2.47a26.65,26.65,0,0,1,.15,2.76,11.27,11.27,0,0,1-.48,3.39,10.35,10.35,0,0,1-2,3.43c-1,1.15-2,2.41-3.09,3.65s-2.23,2.49-3.47,3.65a30.49,30.49,0,0,1-4,3.16c-2.87,1.94-6.1,3.69-8.76,6.15a44.69,44.69,0,0,0-6,7.36L81.21,66,76.34,73.5c-1.5,2.24-3,4.93-5.24,6.75a24.34,24.34,0,0,1-8.9,4,36.79,36.79,0,0,1-10,1.12A39.41,39.41,0,0,1,43.37,84.06Z"/><path class="cls-3" d="M39.59,83.09c.77.17,1.54.36,2.31.56a38.84,38.84,0,0,0,8.81,1.26,36.4,36.4,0,0,0,10-1.12,24.25,24.25,0,0,0,8.9-4c2.26-1.82,3.74-4.5,5.24-6.74l4.87-7.47,5.14-7.3a45.11,45.11,0,0,1,6-7.36c2.66-2.45,5.89-4.21,8.76-6.15a29.68,29.68,0,0,0,4-3.16A49.55,49.55,0,0,0,107.12,38c1.08-1.24,2.14-2.5,3.09-3.64a10.49,10.49,0,0,0,2-3.44,11.23,11.23,0,0,0,.48-3.39,26.45,26.45,0,0,0-.15-2.75c-.15-1.55-.23-2.45-.09-2.48s.47.81.89,2.33a19,19,0,0,1,.54,2.84,11.9,11.9,0,0,1-.16,3.85,9.53,9.53,0,0,1-.76,2.15,16.3,16.3,0,0,1-1.22,2c-.91,1.29-1.85,2.57-2.88,3.92a51.83,51.83,0,0,1-3.41,4,32.24,32.24,0,0,1-4.16,3.66c-2.32,1.73-6.22,3.5-7,6.55a12,12,0,0,1-.94,3.24A10.68,10.68,0,0,1,91,59.14c-1.93,1.71-3.12,4.08-4.39,6.32-1.78,3.14-3.16,8-5.91,10.36-1.22,1-2.81,1.53-4.15,2.4a8.3,8.3,0,0,0-2.38,2.38c-1.37,2.06-3,3.74-4.44,5.76-1.09,1.54-3.12,2.06-5,2.27s-3.85.24-5.49,1.17a3.34,3.34,0,0,1-1.33.58c-.72,0-1.3-.52-1.93-.87-1.81-1-4.09-.31-6.15-.59A12.15,12.15,0,0,1,47,88.06c-1.74-.67-4.32-1.18-5.94-2.43A3.59,3.59,0,0,1,39.59,83.09ZM159.5,60c-.15-.19-3.11,1.85-6.89,5.68a67.19,67.19,0,0,0-6,7,69.23,69.23,0,0,0-5.61,9c-.85,1.6-1.61,3.24-2.32,4.87-.36.82-.67,1.65-1,2.46s-.59,1.6-.89,2.39a36.14,36.14,0,0,1-3.59,7.84,14.64,14.64,0,0,1-4,4c-.57.4-1.07.67-1.39.87l-.52.28-.51.29c-.34.19-.84.46-1.5.79-1.32.66-3.31,1.49-5.78,2.54a38.63,38.63,0,0,0-8.3,4.55c-2.8,2.15-5.18,4.83-7.77,7.05-.64.57-1.32,1.09-2,1.63s-1.36,1-2.07,1.51a48.27,48.27,0,0,1-4.23,2.64,54.7,54.7,0,0,1-5.79,2.77c3.83.61,6.86-.3,10.62-1.2a6.48,6.48,0,0,0,2.12-.76,5.78,5.78,0,0,0,1.89-2.49,2.7,2.7,0,0,1,1-1.35,4.4,4.4,0,0,1,1.78-.19c2.11-.14,3.47-2.31,4-4.34a6.57,6.57,0,0,1,.7-1.93c1.6-2.46,8.3-4,10.84-4.76a3.77,3.77,0,0,1,1.81-.26c.53.1,1,.42,1.52.56,1.49.43,3-.59,4.07-1.69a22.54,22.54,0,0,1,4.14-3.6c1.81-1.12,3.83-1.52,5-3.53,1-1.82.85-4.14,1.85-6,.86-1.57,2.5-2.63,3.18-4.28s.32-3.31.24-5a18.84,18.84,0,0,1,1.91-9.53A5.26,5.26,0,0,1,147.68,76c.49-.31,1.06-.49,1.57-.78,1.72-1,2.45-3,3.08-4.91C152.68,69.27,159.29,59.79,159.5,60ZM56.82,55c9.87-1,12.7-9.08,16.67-16.71a43.28,43.28,0,0,1,2.23-3.89c1.88-2.82,4.19-6,7.13-7.78,1.09-.67,2.47-1.39,2.55-2.68a3.16,3.16,0,0,1,.09-1,2.31,2.31,0,0,1,.5-.59c1-1.05.92-2.71.66-4.14C86.51,17.41,83.73,7.76,83,8l-1.54.43a16.64,16.64,0,0,1,1.28,6.09,13.87,13.87,0,0,1-.34,3.43,13.72,13.72,0,0,1-1.16,3.31A29.69,29.69,0,0,1,77,27.09c-1.56,1.8-3.11,3.52-4.32,5.18a45.33,45.33,0,0,0-2.65,4.11c-.57,1-.89,1.55-.89,1.55s-.3.55-.81,1.53A29.07,29.07,0,0,1,66,43.17a25.75,25.75,0,0,1-4.33,4.38,34.31,34.31,0,0,1-6.13,3.85A68.12,68.12,0,0,1,42.38,56c-1.27.34-4,.42-4.11,1.91,3.8.18,7.11-1.33,10.71-2.28,2.5-.66,5.14-.33,7.71-.59ZM149.67,35.5c-1.36,1.76-2.5,6-3.29,7.16a14.57,14.57,0,0,1-1.6,1.94c-.44.43-.72.68-.72.68l-.73.76c-.47.49-1.2,1.19-2.06,2.19a13.29,13.29,0,0,0-2.4,4,21.46,21.46,0,0,0-1.17,4.87c-.43,3.26-.57,6.34-1.19,8.53s-1.47,3.46-1.25,3.69,2.23-2.6,2.52-2.81a17.35,17.35,0,0,0,2.27-2,6.41,6.41,0,0,0,2.11-4.35c0-1.13-.56-2.29-.18-3.37s1.27-1.53,1.8-2.39a8,8,0,0,0,.79-2.92c.41-2.26,2.78-4.11,4.53-5.34a9.14,9.14,0,0,0,3.75-6.1,6.26,6.26,0,0,0-.38-3.48C151.47,34.26,150.52,34.39,149.67,35.5ZM77.39,121.2a37.09,37.09,0,0,0,5-2.74,7.06,7.06,0,0,0,1.86-1.57c3.51-4.56,2.72-10.13,7.73-14a15.24,15.24,0,0,1,5.14-2.49c3.12-1,4.16-.37,7.1.15a2.39,2.39,0,0,0,2.2-1.12c.51-.7.79-1.54,1.23-2.29,1.11-1.9,3.1-3.08,4.92-4.31a4.54,4.54,0,0,0,1.25-1.1c1.44-2,.73-4.69,2.35-6.83a20.85,20.85,0,0,0,3.33-5.14c1.47-3.71,1.75-6.37,1.52-6.42s-1.09,2.4-2.93,5.75a42.1,42.1,0,0,1-3.57,5.41,38.92,38.92,0,0,1-5,5.34,36.79,36.79,0,0,1-6,4.21,37.76,37.76,0,0,1-5.78,2.63c-1.79.64-3.37,1.21-4.48,1.68-.55.23-1,.42-1.28.57l-.46.22-.44.25c-.29.17-.71.43-1.24.78A15.43,15.43,0,0,0,88,101.64a13.87,13.87,0,0,0-2,2.29,32.07,32.07,0,0,0-1.71,2.85c-.54,1-1.07,1.94-1.7,2.92A36.14,36.14,0,0,1,78,115.37,29.64,29.64,0,0,1,72.39,120a25.52,25.52,0,0,1-2.74,1.44C71.61,123,74.63,122.4,77.39,121.2Zm25.82-96.6a4.16,4.16,0,0,1-1.75,2.25,16.8,16.8,0,0,0-3.25,2.37A7.7,7.7,0,0,0,97,31c-.28.53-.49,1-.69,1.31a3,3,0,0,1-.59.73,4.44,4.44,0,0,1-.75.56c-.55.34-1.16.62-1.69.88l-1.69.81L90,36.23c-1,.6-2.55,1.44-4.31,2.58a54.07,54.07,0,0,0-5.78,4.24,32.81,32.81,0,0,0-5.65,6.11,25.21,25.21,0,0,0-3.55,7.51A29.46,29.46,0,0,1,68.34,63,11,11,0,0,1,66.78,65a8.67,8.67,0,0,1-1.56,1.24c-1,.58-1.64.72-1.62.88s.74.26,1.95-.15a7.48,7.48,0,0,0,2-1.07c1.41-1,2.27-2.55,3.57-3.7,1.48-1.3,3.56-2,4.52-3.81a11.67,11.67,0,0,0,.74-2.55,11.91,11.91,0,0,1,4.52-6.71c1.3-1,2.79-1.63,4-2.63,1.51-1.21,2.7-2.88,4.46-3.67A8.94,8.94,0,0,0,92,41.69a9.06,9.06,0,0,0,1.44-2.4c1-1.64,3.6-2.18,5-3.56a6.7,6.7,0,0,0,1.15-1.6,18.53,18.53,0,0,1,1.31-2.58,16.17,16.17,0,0,1,2.58-2,8.65,8.65,0,0,0,.88-.77,22.82,22.82,0,0,0,3.24-5.31,14.37,14.37,0,0,0,1.2-9.75c-.41-1.82-2.24-8-4.32-7.61-.62,4.82-.19,10-.58,14.94A13.78,13.78,0,0,1,103.21,24.6ZM52.88,98.82a5.17,5.17,0,0,1,1.63-.16c1.41.12,2.63,1,4,1.41a9.22,9.22,0,0,0,5-.15,18,18,0,0,0,5.4-2.49A12.07,12.07,0,0,1,71,96.12c1.94-.81,4.24-.22,6.21-1,2.48-.92,3.76-3.6,5.8-5.28,1.43-1.19,3.32-2,4.22-3.59,1.67-3,.87-7.58,2.12-11a24.49,24.49,0,0,1,7.16-10.26,16.26,16.26,0,0,1,2.89-2c3.93-2,8.58-2.91,12.68-4.67a43.69,43.69,0,0,0,10.73-6.93A9.52,9.52,0,0,0,125,49.26c.71-1.14.55-2.53,1.13-3.63.78-1.47,3-2.74,4.29-3.81a8.9,8.9,0,0,0,2.39-2.66,9.23,9.23,0,0,0,.57-4.44c-.12-3.83-.1-7.67.07-11.49.14-3.25,1.43-6.53-2.05-8.17-1.83,4.56-2,10.09-3,14.9s-2.58,9.55-5.15,13.14a17,17,0,0,1-4.37,4.39,20.19,20.19,0,0,1-5.07,2.4c-1.71.58-3.37,1-4.87,1.4s-2.83.79-3.94,1.17c-.55.18-1,.37-1.47.52l-1.09.45-.9.42-.22.11-.65.37c-.28.16-.63.35-1,.61l-.63.41-.69.5a32.08,32.08,0,0,0-6.77,6.95,61.11,61.11,0,0,0-3.44,5.28C87,70,85.93,72,84.8,74.1c-2.27,4.12-4.71,8.44-8.1,11.9l-1.28,1.27L74,88.45a15.22,15.22,0,0,1-1.44,1.1c-.49.35-.95.74-1.47,1l-1.52,1c-.52.3-1,.58-1.57.86a16.62,16.62,0,0,1-1.58.79c-.53.24-1,.51-1.58.73a65.73,65.73,0,0,1-12.19,3.71c-2.49.52-4.71.9-6.57,1.2-.33,0,1.17,1,1.37,1a4.54,4.54,0,0,0,2.37-.1C50.89,99.55,51.86,99.08,52.88,98.82Z"/><g class="cls-7"><path class="cls-3" d="M47,88.06a12.15,12.15,0,0,0,2.87.86c2.06.28,4.34-.44,6.15.59.63.35,1.21.91,1.93.87a3.34,3.34,0,0,0,1.33-.58c1.64-.93,3.61-1,5.49-1.17s3.9-.73,5-2.27c1.42-2,3.07-3.7,4.44-5.76a8.3,8.3,0,0,1,2.38-2.38c1.34-.87,2.93-1.36,4.15-2.4,2.75-2.34,4.13-7.22,5.91-10.36,1.27-2.24,2.46-4.61,4.39-6.32a10.68,10.68,0,0,0,2.28-2.22,12,12,0,0,0,.94-3.24c.81-3,4.71-4.82,7-6.55a32.24,32.24,0,0,0,4.16-3.66,51.83,51.83,0,0,0,3.41-4c1-1.35,2-2.63,2.88-3.92a16.3,16.3,0,0,0,1.22-2,9.53,9.53,0,0,0,.76-2.15,11.9,11.9,0,0,0,.16-3.85,19,19,0,0,0-.54-2.84c-.42-1.52-.76-2.36-.89-2.33s-.06.93.09,2.48a26.45,26.45,0,0,1,.15,2.75,11.23,11.23,0,0,1-.48,3.39,10.49,10.49,0,0,1-2,3.44l-.54.64c-.72,1-1.48,2-2.29,3.1a49.3,49.3,0,0,1-3.41,4,31.41,31.41,0,0,1-4.15,3.66c-2.33,1.73-6.23,3.51-7,6.56a11.87,11.87,0,0,1-1,3.24,10.83,10.83,0,0,1-2.27,2.21c-1.94,1.71-3.12,4.08-4.4,6.33-1.77,3.13-3.16,8-5.9,10.35-1.22,1-2.81,1.53-4.15,2.41a8.3,8.3,0,0,0-2.39,2.37c-1.37,2.07-3,3.74-4.44,5.76-1.09,1.54-3.11,2.07-5,2.28s-3.85.23-5.48,1.16a3.19,3.19,0,0,1-1.34.58c-.71,0-1.3-.52-1.92-.87-1.82-1-4.09-.31-6.16-.58a13.08,13.08,0,0,1-2.86-.86c-1.55-.61-3.76-1.07-5.37-2a4.44,4.44,0,0,0,.9.94C42.69,86.88,45.27,87.39,47,88.06Z"/><path class="cls-3" d="M49,55.59c2.5-.66,5.14-.33,7.71-.59h.13c9.87-1,12.7-9.08,16.67-16.71a43.28,43.28,0,0,1,2.23-3.89c1.88-2.82,4.19-6,7.13-7.78,1.09-.67,2.47-1.39,2.55-2.68a3.16,3.16,0,0,1,.09-1,2.31,2.31,0,0,1,.5-.59c1-1.05.92-2.71.66-4.14C86.51,17.41,83.73,7.76,83,8l-.56.16a89.2,89.2,0,0,1,2.77,8.72c.26,1.43.34,3.1-.67,4.15a2.18,2.18,0,0,0-.5.59,2.83,2.83,0,0,0-.08,1c-.08,1.29-1.46,2-2.56,2.68-2.93,1.8-5.25,5-7.12,7.79A41.93,41.93,0,0,0,72,37c-4,7.62-6.81,15.66-16.67,16.7l-.14,0c-2,.19-4,0-5.91.26-2.48.84-4.88,1.49-6.92,2-1.27.34-4,.42-4.11,1.91C42.07,58.05,45.38,56.54,49,55.59Z"/><path class="cls-3" d="M84.23,116.89c3.51-4.56,2.72-10.13,7.73-14a15.24,15.24,0,0,1,5.14-2.49c3.12-1,4.16-.37,7.1.15a2.39,2.39,0,0,0,2.2-1.12c.51-.7.79-1.54,1.23-2.29,1.11-1.9,3.1-3.08,4.92-4.31a4.54,4.54,0,0,0,1.25-1.1c1.44-2,.73-4.69,2.35-6.83a20.85,20.85,0,0,0,3.33-5.14c1.47-3.71,1.75-6.37,1.52-6.42s-1.09,2.4-2.93,5.75a42.1,42.1,0,0,1-3.57,5.41c-.22.28-.47.57-.7.85-.52,1.72-.41,3.56-1.47,5.06a4.72,4.72,0,0,1-1.26,1.09c-1.82,1.23-3.8,2.41-4.91,4.31-.44.75-.72,1.59-1.23,2.29a2.38,2.38,0,0,1-2.2,1.12c-3-.52-4-1.11-7.11-.14a15.12,15.12,0,0,0-5.14,2.48c-5,3.87-4.22,9.44-7.72,14a7.19,7.19,0,0,1-1.86,1.57,37.72,37.72,0,0,1-5,2.74A11.1,11.1,0,0,1,70.44,121l-.79.38c2,1.65,5,1,7.74-.19a37.09,37.09,0,0,0,5-2.74A7.06,7.06,0,0,0,84.23,116.89Z"/><path class="cls-3" d="M65.55,67a7.48,7.48,0,0,0,2-1.07c1.41-1,2.27-2.55,3.57-3.7,1.48-1.3,3.56-2,4.52-3.81a12.25,12.25,0,0,0,.74-2.55,11.91,11.91,0,0,1,4.52-6.71c1.3-1,2.79-1.63,4-2.63,1.51-1.21,2.69-2.88,4.46-3.67A8.94,8.94,0,0,0,92,41.69a9.06,9.06,0,0,0,1.44-2.4c1-1.64,3.6-2.18,5-3.56a6.7,6.7,0,0,0,1.15-1.6,18.53,18.53,0,0,1,1.31-2.58,16.17,16.17,0,0,1,2.58-2,8.65,8.65,0,0,0,.88-.77,22.82,22.82,0,0,0,3.24-5.31,14.37,14.37,0,0,0,1.2-9.75c-.38-1.69-2-7.11-3.88-7.59a22.93,22.93,0,0,1,2.41,6.27,14.4,14.4,0,0,1-1.2,9.74,22.82,22.82,0,0,1-3.24,5.31,10,10,0,0,1-.89.77,15,15,0,0,0-2.57,2,17.74,17.74,0,0,0-1.31,2.57,7,7,0,0,1-1.15,1.6c-1.38,1.38-4,1.93-5,3.57a9.75,9.75,0,0,1-1.44,2.39A9.19,9.19,0,0,1,88,41.54c-1.77.79-3,2.46-4.47,3.67-1.26,1-2.75,1.68-4,2.63a12,12,0,0,0-4.52,6.71,11.15,11.15,0,0,1-.74,2.55c-1,1.86-3,2.51-4.52,3.82-.2.18-.39.37-.58.56A14.77,14.77,0,0,1,68.34,63,11,11,0,0,1,66.78,65a8.67,8.67,0,0,1-1.56,1.24c-1,.58-1.64.72-1.62.88S64.34,67.42,65.55,67Z"/><path class="cls-3" d="M132,21.9q-.26,5.75-.06,11.49a9.35,9.35,0,0,1-.57,4.44,9,9,0,0,1-2.39,2.66c-1.26,1.07-3.51,2.35-4.29,3.81-.59,1.1-.42,2.49-1.13,3.63a9.37,9.37,0,0,1-2.17,2.23,43.4,43.4,0,0,1-10.73,6.93c-4.09,1.77-8.74,2.65-12.67,4.68a15.36,15.36,0,0,0-2.89,2A24.31,24.31,0,0,0,87.9,74c-1.25,3.39-.45,7.94-2.13,11-.9,1.63-2.78,2.39-4.22,3.58-2,1.68-3.32,4.37-5.79,5.28-2,.74-4.28.14-6.22,1a12,12,0,0,0-2.1,1.3A17.81,17.81,0,0,1,62,98.59a9.19,9.19,0,0,1-5,.15c-1.17-.35-2.24-1-3.41-1.31l-.93.2c-1.55.33-3,.59-4.32.82a8.45,8.45,0,0,1-1.24.21l-1,.17c-.33,0,1.17,1,1.37,1a4.54,4.54,0,0,0,2.37-.1c1-.23,2-.7,3-1a5.17,5.17,0,0,1,1.63-.16c1.41.12,2.63,1,4,1.41a9.22,9.22,0,0,0,5-.15,18,18,0,0,0,5.4-2.49A12.07,12.07,0,0,1,71,96.12c1.94-.81,4.24-.22,6.21-1,2.48-.92,3.76-3.6,5.8-5.28,1.43-1.19,3.32-2,4.22-3.59,1.67-3,.87-7.58,2.12-11a24.49,24.49,0,0,1,7.16-10.26,16.26,16.26,0,0,1,2.89-2c3.93-2,8.58-2.91,12.68-4.67a43.69,43.69,0,0,0,10.73-6.93A9.52,9.52,0,0,0,125,49.26c.71-1.14.55-2.53,1.13-3.63.78-1.47,3-2.74,4.29-3.81a8.9,8.9,0,0,0,2.39-2.66,9.23,9.23,0,0,0,.57-4.44c-.12-3.83-.1-7.67.07-11.49.13-3.14,1.32-6.3-1.72-8C132.82,17,132.07,19.46,132,21.9Z"/><path class="cls-3" d="M150.78,34.72c.07.14.15.29.22.45a6.35,6.35,0,0,1,.38,3.48,9.19,9.19,0,0,1-3.76,6.1c-1.75,1.23-4.11,3.08-4.52,5.34a8.33,8.33,0,0,1-.79,2.93c-.53.85-1.48,1.44-1.81,2.39s.15,2.23.18,3.37a6.38,6.38,0,0,1-2.11,4.35,18,18,0,0,1-1.88,1.71q-.08.39-.18.75c-.53,2.19-1.47,3.46-1.25,3.69s2.23-2.6,2.52-2.81a17.35,17.35,0,0,0,2.27-2,6.41,6.41,0,0,0,2.11-4.35c0-1.13-.56-2.29-.18-3.37s1.27-1.53,1.8-2.39a8,8,0,0,0,.79-2.92c.41-2.26,2.78-4.11,4.53-5.34a9.14,9.14,0,0,0,3.75-6.1,6.26,6.26,0,0,0-.38-3.48C151.89,35.19,151.32,34.69,150.78,34.72Z"/><path class="cls-3" d="M153.43,64.91A36.17,36.17,0,0,0,150.86,69c-.63,1.88-1.36,3.93-3.08,4.91-.51.29-1.08.47-1.58.78a5.08,5.08,0,0,0-1.62,1.85A18.79,18.79,0,0,0,142.66,86c.09,1.68.41,3.44-.23,5s-2.33,2.72-3.18,4.29c-1,1.84-.8,4.17-1.85,6-1.15,2-3.17,2.4-5,3.52a22.54,22.54,0,0,0-4.14,3.61c-1.08,1.1-2.58,2.11-4.06,1.69-.52-.15-1-.47-1.52-.57a3.94,3.94,0,0,0-1.82.26c-2.53.79-9.23,2.3-10.84,4.77a6.67,6.67,0,0,0-.69,1.92c-.55,2-1.92,4.21-4,4.34a4.39,4.39,0,0,0-1.78.19,2.74,2.74,0,0,0-1,1.35,5.8,5.8,0,0,1-1.89,2.49,6.82,6.82,0,0,1-2.12.77,49.16,49.16,0,0,1-6.36,1.29c-1,.45-1.89.86-2.79,1.23,3.83.61,6.86-.3,10.62-1.2a6.48,6.48,0,0,0,2.12-.76,5.78,5.78,0,0,0,1.89-2.49,2.7,2.7,0,0,1,1-1.35,4.4,4.4,0,0,1,1.78-.19c2.11-.14,3.47-2.31,4-4.34a6.57,6.57,0,0,1,.7-1.93c1.6-2.46,8.3-4,10.84-4.76a3.77,3.77,0,0,1,1.81-.26c.53.1,1,.42,1.52.56,1.49.43,3-.59,4.07-1.69a22.54,22.54,0,0,1,4.14-3.6c1.81-1.12,3.83-1.52,5-3.53,1-1.82.85-4.14,1.85-6,.86-1.57,2.5-2.63,3.18-4.28s.32-3.31.24-5a18.84,18.84,0,0,1,1.91-9.53A5.26,5.26,0,0,1,147.68,76c.49-.31,1.06-.49,1.57-.78,1.72-1,2.45-3,3.08-4.91.35-1,7-10.52,7.17-10.27C159.36,59.87,156.81,61.6,153.43,64.91Z"/></g><path class="cls-8" d="M97.8,114.52c1.38,2.17-.08,4.67-2,5.83a6,6,0,0,1-5.64.49,2.7,2.7,0,0,1-1.27-3.41,3.81,3.81,0,0,1,.38-2.13A4.83,4.83,0,0,1,92,113.12C94.05,112.36,96.53,112.5,97.8,114.52Zm20.12-22.15a11.25,11.25,0,0,0-4.38,4.41,2.9,2.9,0,0,0-.52.48c-2.76,3.3-.79,7.92,3.73,7.41,4-.46,9-4.23,9.38-8.43a4.46,4.46,0,0,0-2.36-4.57C121.87,90.75,119.67,91.44,117.92,92.37Zm8.85-4.69-.28.31a2.72,2.72,0,0,0-.68,1.92,2.67,2.67,0,0,0,2.8,2.52,2.79,2.79,0,0,0,1.84-.88c.09-.1.19-.2.28-.31a2.72,2.72,0,0,0,.68-1.92,2.67,2.67,0,0,0-2.8-2.52A2.79,2.79,0,0,0,126.77,87.68Zm-58.18,21-1,.25A2.67,2.67,0,0,0,66,110.25a2.66,2.66,0,0,0,1.19,3.58,2.93,2.93,0,0,0,2,.15l1-.25a2.67,2.67,0,0,0,1.57-1.34,2.75,2.75,0,0,0,.16-2,2.72,2.72,0,0,0-1.35-1.57A2.93,2.93,0,0,0,68.59,108.66ZM104.16,85c1.07-1.57,2.22-3.64,1.48-5.61a3.5,3.5,0,0,0-3.76-2.26c-2,.21-2.92,1.37-4.43,2.43a14.49,14.49,0,0,0-3.55,3.07,2.65,2.65,0,0,0-.53.57c-1.07,1.55-3.18,3.63-3.08,5.66s2,3.14,3.84,3.17C98.23,92.06,102.07,88,104.16,85ZM87.38,93.13a2.75,2.75,0,0,0-1.92-.68l-.59,0a2.73,2.73,0,0,0-1.84.88,2.67,2.67,0,0,0,.19,3.76,2.76,2.76,0,0,0,1.92.68l.6,0a2.77,2.77,0,0,0,1.84-.88,2.66,2.66,0,0,0-.2-3.76Zm28.35,23.43c-2.29,2.54,1.66,6.11,4,3.56S118,114,115.73,116.56Zm3.94-85.48c-.18,1.42.28,2.86,1.91,3.12a2.66,2.66,0,0,0,2-.36,4,4,0,0,0,1.36-1.54,3.86,3.86,0,0,0,.36-1.95,2.78,2.78,0,0,0-.87-1.84,2.67,2.67,0,0,0-3.76.19A4.81,4.81,0,0,0,119.67,31.08Zm.36-7a7,7,0,0,0,2.34-3.79c.7-2.51.41-6.3-2.12-7.72a3.21,3.21,0,0,0-4.41,1.16,10.76,10.76,0,0,0-1.35,6.31,6.45,6.45,0,0,0,1.12,3.76A3.24,3.24,0,0,0,120,24.09Zm14.82,27.4a1.92,1.92,0,0,0,.43-1,2.67,2.67,0,0,0-2.07-3.14,2.52,2.52,0,0,0-2,.36l-.78.62a2.1,2.1,0,0,0-.75.76,2,2,0,0,0-.42,1,2.66,2.66,0,0,0,2.07,3.15,2.58,2.58,0,0,0,2-.37l.77-.62A2,2,0,0,0,134.85,51.49Zm6.15-20c-2.68-.6-4.55,1.77-5.52,3.94a12.11,12.11,0,0,0-.74,7.44c.31,1.63,3,2.45,4.42,2.19,2.32-.4,4.41-4.95,4.88-6.92C144.65,35.55,144,32.16,141,31.48Zm13.09,25.24c.43,2.35-1.5,5.47-3.35,6.84a4.39,4.39,0,0,1-5.14-.32c-1.18-1-.84-2.74-.42-4,.57-1.71,1-3.69,2.43-4.89A4,4,0,0,1,154.09,56.72Zm-5.32.76h.07c0-.09.09-.16,0-.14S148.76,57.42,148.77,57.48Zm-2.38,1.91,0,0h0C146.17,59.61,146.18,59.62,146.39,59.39ZM149,81.18l-.58.42a2.83,2.83,0,0,0-1.17,1.71,2.65,2.65,0,0,0,2.07,3.14,2.62,2.62,0,0,0,2-.36l.58-.42A2.81,2.81,0,0,0,153.05,84,2.65,2.65,0,0,0,151,80.82,2.65,2.65,0,0,0,149,81.18ZM55.73,78.93c0-2.19-2.71-2.68-4.39-3.05a9.32,9.32,0,0,0-5.53.43,3.12,3.12,0,0,0-1.25.91l-.14.08c-1.5,1-1.5,3.32-.5,4.67.87,1.18,3.26,1.38,4.6,1.47C51.57,83.66,55.78,82.73,55.73,78.93Zm10.85-.79a2,2,0,0,0-.36-1,2.6,2.6,0,0,0-1-1,3.61,3.61,0,0,0-2.29-.5A4.06,4.06,0,0,0,60.27,77a2.46,2.46,0,0,0-.38.57,2.61,2.61,0,0,0-.69,1.92A2.74,2.74,0,0,0,62,82.05a5.14,5.14,0,0,0,1.86-.33A6.69,6.69,0,0,0,66,80.39,2.5,2.5,0,0,0,66.58,78.14Zm27-45.34a2.66,2.66,0,0,0-4-3.56c-.38.42-.75.84-1.13,1.25a2.67,2.67,0,0,0,4,3.57Zm1.69-10.57A2.72,2.72,0,0,1,91.48,20a21.81,21.81,0,0,1,0-6.3c.42-2.18,2.34-4.47,4.77-3.53,2,.76,2.46,3.46,2.48,5.36a10.8,10.8,0,0,1-1.33,5.37A2.54,2.54,0,0,1,95.28,22.23ZM92.75,17.7a.34.34,0,0,0,0-.1l-.05,0C92.62,17.63,92.75,17.69,92.75,17.7ZM70.13,26.64l-.57.43a2.85,2.85,0,0,0-1.18,1.7,2.67,2.67,0,0,0,2.07,3.15,2.62,2.62,0,0,0,2-.36l.58-.43a2.83,2.83,0,0,0,1.17-1.71,2.67,2.67,0,0,0-2.06-3.15A2.69,2.69,0,0,0,70.13,26.64Zm7.49-1.39a2.76,2.76,0,0,1-2.55.81c-1.25-.27-1.69-1.24-2.26-2.26A8.68,8.68,0,0,1,72,21.88C71.31,19.54,72,16,75,16a3.43,3.43,0,0,1,4.54,1.09C81.24,19.6,79.44,23.28,77.62,25.25Zm1-5.65s0,0,0,0C78.76,19.25,78.56,19.05,78.64,19.6Z"/><g class="cls-9"><g class="cls-9"><path class="cls-3" d="M124.07,88.26a.83.83,0,0,0-1.23-1.1.83.83,0,0,0,1.23,1.1Z"/></g><g class="cls-9"><path class="cls-3" d="M129.94,95.27a.82.82,0,0,0-1.22-1.1.82.82,0,0,0,1.22,1.1Z"/></g><g class="cls-9"><path class="cls-3" d="M136.51,86.91a.82.82,0,0,0-1.22-1.1.82.82,0,0,0,1.22,1.1Z"/></g><g class="cls-9"><path class="cls-3" d="M133.55,57.22a.82.82,0,0,0-1.22-1.1.82.82,0,0,0,1.22,1.1Z"/></g><g class="cls-9"><path class="cls-3" d="M136.8,54.25a.82.82,0,0,0-1.22-1.1.82.82,0,0,0,1.22,1.1Z"/></g><g class="cls-9"><path class="cls-3" d="M137.27,30.69a.82.82,0,0,0-1.22-1.1.82.82,0,0,0,1.22,1.1Z"/></g><g class="cls-9"><path class="cls-3" d="M66.24,108.52a.82.82,0,0,0-1.22-1.1.82.82,0,0,0,1.22,1.1Z"/></g><g class="cls-9"><path class="cls-3" d="M75.77,110.63a.83.83,0,0,0-1.23-1.11.83.83,0,0,0,1.23,1.11Z"/></g><g class="cls-9"><path class="cls-3" d="M99.93,120.77a.82.82,0,0,0-1.22-1.1.82.82,0,0,0,1.22,1.1Z"/></g><g class="cls-9"><path class="cls-3" d="M102,114.66a.83.83,0,0,0-1.23-1.1c-.71.78.52,1.88,1.23,1.1Z"/></g><g class="cls-9"><path class="cls-3" d="M123.24,116.45a.82.82,0,0,0-1.22-1.1.82.82,0,0,0,1.22,1.1Z"/></g><g class="cls-9"><path class="cls-3" d="M149,90.16a.82.82,0,0,0-1.22-1.1.82.82,0,0,0,1.22,1.1Z"/></g><g class="cls-9"><path class="cls-3" d="M154.31,88.28a.82.82,0,0,0-1.22-1.1.82.82,0,0,0,1.22,1.1Z"/></g><g class="cls-9"><path class="cls-3" d="M86.05,33.67a.82.82,0,0,0-1.22-1.1.82.82,0,0,0,1.22,1.1Z"/></g><g class="cls-9"><path class="cls-3" d="M87.48,28.49a.82.82,0,0,0-1.22-1.1.82.82,0,0,0,1.22,1.1Z"/></g><g class="cls-9"><path class="cls-3" d="M57.14,82.06A.82.82,0,0,0,55.92,81a.82.82,0,0,0,1.22,1.1Z"/></g><g class="cls-9"><path class="cls-3" d="M48.84,74.58a.82.82,0,0,0-1.22-1.1.82.82,0,0,0,1.22,1.1Z"/></g><g class="cls-9"><path class="cls-3" d="M66,75.38a.83.83,0,0,0-1.23-1.1A.83.83,0,0,0,66,75.38Z"/></g><g class="cls-9"><path class="cls-3" d="M69.12,77.42a.82.82,0,0,0-1.22-1.1.82.82,0,0,0,1.22,1.1Z"/></g><g class="cls-9"><path class="cls-3" d="M66.09,36.82a.82.82,0,0,0-1.22-1.1.82.82,0,0,0,1.22,1.1Z"/></g><g class="cls-9"><path class="cls-3" d="M62.9,33.39a.83.83,0,0,0-1.22-1.11.83.83,0,0,0,1.22,1.11Z"/></g><g class="cls-9"><path class="cls-3" d="M70.21,25.69A.82.82,0,0,0,69,24.59a.82.82,0,0,0,1.22,1.1Z"/></g><g class="cls-9"><path class="cls-3" d="M70.11,21.79a.83.83,0,0,0-1.23-1.1.83.83,0,0,0,1.23,1.1Z"/></g></g><g class="cls-10"><path class="cls-11" d="M181.72,131c-2.82-5.36-7.6-12.05-14.21-19.89-3.3-3.93-7-8-11-12.3a35.11,35.11,0,0,1-2.57,4.71c2.12,2.49,4.12,4.94,6,7.32C174.1,129,174.59,136.4,173.59,137.7s-8,2.26-27.73-8.71c-16.65-9.25-37-23.93-57.23-41.35s-38-35.45-49.93-50.78C24.53,18.65,24,11.29,25,10S33,7.73,52.76,18.71c1.9,1.05,3.85,2.18,5.84,3.37l.74.45A24.76,24.76,0,0,1,62.7,20c-4.33-2.84-8.51-5.45-12.47-7.78C41.39,7,34,3.4,28.22,1.53c-7-2.3-11.67-2-14.11.89s-2,7.51,1.49,14.07c2.82,5.36,7.6,12.06,14.2,19.89,13.42,15.92,33,35,55.13,53.64,19.59,16.53,39.15,31,55.83,41.45,2.16,1.35,4.28,2.63,6.33,3.84,8.84,5.19,16.25,8.77,22,10.64,7.05,2.3,11.67,2,14.11-.89h0C185.66,142.16,185.17,137.55,181.72,131Z"/></g><g class="cls-10"><path class="cls-12" d="M197.31,80.47h0c.23-3.38-2.56-6.44-8.52-9.35-4.87-2.37-11.85-4.67-20.75-6.83q-3.16-.78-6.59-1.5a18.37,18.37,0,0,1,1,5.31h0c19.85,5.63,24.1,10.68,24.06,12.15s-4.54,5.83-24.6,8.36c-16.88,2.14-39.3,2.3-63.11.45S52.65,83.58,36,78.84C16.1,73.2,11.86,68.16,11.89,66.69s4.54-5.83,24.6-8.37l.17,0a29.28,29.28,0,0,1,1-3.92c-2.22.17-4.38.36-6.46.57-9.12.93-16.35,2.26-21.5,3.95C3.42,61,.24,63.63,0,67s2.56,6.44,8.51,9.35C13.39,78.73,20.38,81,29.28,83.2,47.36,87.59,71.54,91,97.36,92.74c22.87,1.56,44.63,1.68,62.16.37q3.4-.26,6.59-.58c9.12-.93,16.35-2.26,21.49-4C193.9,86.51,197.07,83.86,197.31,80.47Z"/></g></g></g></g></svg>