<svg xmlns="http://www.w3.org/2000/svg" xmlns:xlink="http://www.w3.org/1999/xlink" viewBox="0 0 236.76 147.78"><defs><style>.cls-1{isolation:isolate;}.cls-18,.cls-2,.cls-5,.cls-51,.cls-6,.cls-7,.cls-8,.cls-9{mix-blend-mode:screen;}.cls-2{fill:url(#radial-gradient);}.cls-3{fill:url(#radial-gradient-2);}.cls-10,.cls-11,.cls-12,.cls-13,.cls-14,.cls-15,.cls-16,.cls-4{opacity:0.5;}.cls-10,.cls-11,.cls-12,.cls-13,.cls-14,.cls-15,.cls-16,.cls-26,.cls-27,.cls-4{mix-blend-mode:multiply;}.cls-4{fill:url(#radial-gradient-3);}.cls-18,.cls-5,.cls-8,.cls-9{opacity:0.34;}.cls-5{fill:url(#radial-gradient-4);}.cls-6,.cls-7{opacity:0.6;}.cls-6{fill:url(#radial-gradient-5);}.cls-7{fill:url(#radial-gradient-6);}.cls-8{fill:url(#radial-gradient-7);}.cls-9{fill:url(#radial-gradient-8);}.cls-10{fill:url(#radial-gradient-9);}.cls-11{fill:url(#radial-gradient-10);}.cls-12{fill:url(#radial-gradient-11);}.cls-13{fill:url(#radial-gradient-12);}.cls-14{fill:url(#radial-gradient-13);}.cls-15{fill:url(#radial-gradient-14);}.cls-16{fill:url(#radial-gradient-15);}.cls-17{fill:url(#radial-gradient-16);}.cls-19{fill:url(#radial-gradient-17);}.cls-20{fill:url(#radial-gradient-18);}.cls-21{fill:url(#radial-gradient-19);}.cls-22{fill:url(#radial-gradient-20);}.cls-23{fill:url(#radial-gradient-21);}.cls-24{fill:url(#radial-gradient-22);}.cls-25{fill:url(#radial-gradient-23);}.cls-26,.cls-27{opacity:0.35;}.cls-26{fill:url(#radial-gradient-24);}.cls-28{fill:url(#radial-gradient-25);}.cls-29{fill:url(#radial-gradient-26);}.cls-30{fill:url(#radial-gradient-27);}.cls-31{fill:url(#radial-gradient-28);}.cls-32{fill:url(#radial-gradient-29);}.cls-33{fill:url(#radial-gradient-30);}.cls-34{fill:url(#radial-gradient-31);}.cls-35{fill:url(#radial-gradient-32);}.cls-36{fill:url(#radial-gradient-33);}.cls-37{fill:url(#radial-gradient-34);}.cls-38{fill:url(#radial-gradient-35);}.cls-39{fill:url(#radial-gradient-36);}.cls-40{fill:url(#radial-gradient-37);}.cls-41{fill:url(#radial-gradient-38);}.cls-42{fill:url(#radial-gradient-39);}.cls-43{fill:url(#radial-gradient-40);}.cls-44{fill:url(#radial-gradient-41);}.cls-45{fill:url(#radial-gradient-42);}.cls-46{fill:url(#radial-gradient-43);}.cls-47{fill:url(#radial-gradient-44);}.cls-48{fill:url(#radial-gradient-45);}.cls-49{fill:url(#radial-gradient-46);}.cls-50{fill:url(#radial-gradient-47);}.cls-51{opacity:0.45;}.cls-52{fill:url(#radial-gradient-48);}.cls-53{fill:url(#radial-gradient-49);}</style><radialGradient id="radial-gradient" cx="-3861.83" cy="-1924.43" r="73.82" gradientTransform="matrix(0.71, -0.71, 0.71, 0.71, 4210.7, -1296.54)" gradientUnits="userSpaceOnUse"><stop offset="0" stop-color="#8ee1ee"/><stop offset="0.38" stop-color="#8ee1ee" stop-opacity="0.99"/><stop offset="0.51" stop-color="#8ee1ee" stop-opacity="0.96"/><stop offset="0.61" stop-color="#8ee1ee" stop-opacity="0.91"/><stop offset="0.69" stop-color="#8ee1ee" stop-opacity="0.84"/><stop offset="0.76" stop-color="#8ee1ee" stop-opacity="0.75"/><stop offset="0.82" stop-color="#8ee1ee" stop-opacity="0.64"/><stop offset="0.87" stop-color="#8ee1ee" stop-opacity="0.5"/><stop offset="0.92" stop-color="#8ee1ee" stop-opacity="0.34"/><stop offset="0.96" stop-color="#8ee1ee" stop-opacity="0.17"/><stop offset="1" stop-color="#8ee1ee" stop-opacity="0"/></radialGradient><radialGradient id="radial-gradient-2" cx="-3900.84" cy="-1991.28" r="160.87" gradientTransform="translate(4210.7 -1296.54) rotate(-45)" gradientUnits="userSpaceOnUse"><stop offset="0" stop-color="#8ee1ee"/><stop offset="0.62" stop-color="#5e8dec"/><stop offset="0.63" stop-color="#5f89e8"/><stop offset="0.74" stop-color="#6b64c7"/><stop offset="0.84" stop-color="#714eb3"/><stop offset="0.9" stop-color="#7446ac"/></radialGradient><radialGradient id="radial-gradient-3" cx="-3887.15" cy="-1963.69" r="72.78" gradientTransform="matrix(0.49, -0.87, 0.87, 0.49, 3697.38, -2337.62)" xlink:href="#radial-gradient-2"/><radialGradient id="radial-gradient-4" cx="-3795.3" cy="-1849.07" r="124.99" gradientTransform="matrix(0.49, -0.87, 0.87, 0.49, 3697.38, -2337.62)" xlink:href="#radial-gradient-2"/><radialGradient id="radial-gradient-5" cx="-3894.62" cy="-1983.68" r="69.95" gradientTransform="matrix(0.49, -0.87, 0.87, 0.49, 3697.38, -2337.62)" xlink:href="#radial-gradient-2"/><radialGradient id="radial-gradient-6" cx="-3894.94" cy="-1984.17" r="67.05" gradientTransform="matrix(0.49, -0.87, 0.87, 0.49, 3697.38, -2337.62)" xlink:href="#radial-gradient-2"/><radialGradient id="radial-gradient-7" cx="-3920.36" cy="-1927.44" r="106.63" gradientTransform="matrix(0.49, -0.87, 0.87, 0.49, 3697.38, -2337.62)" xlink:href="#radial-gradient-2"/><radialGradient id="radial-gradient-8" cx="-2766.7" cy="-843.2" r="58.99" gradientTransform="matrix(0.77, -0.64, 0.64, 0.77, 2742.82, -1026.16)" xlink:href="#radial-gradient-2"/><radialGradient id="radial-gradient-9" cx="-3859.18" cy="-1997.04" r="151.74" gradientTransform="matrix(0.49, -0.87, 0.87, 0.49, 3697.38, -2337.62)" xlink:href="#radial-gradient-2"/><radialGradient id="radial-gradient-10" cx="-3859.18" cy="-1997.06" r="151.76" gradientTransform="matrix(0.49, -0.87, 0.87, 0.49, 3697.38, -2337.62)" xlink:href="#radial-gradient-2"/><radialGradient id="radial-gradient-11" cx="-3859.18" cy="-1997.06" r="151.76" gradientTransform="matrix(0.49, -0.87, 0.87, 0.49, 3697.38, -2337.62)" xlink:href="#radial-gradient-2"/><radialGradient id="radial-gradient-12" cx="-3859.18" cy="-1997.06" r="151.77" gradientTransform="matrix(0.49, -0.87, 0.87, 0.49, 3697.38, -2337.62)" xlink:href="#radial-gradient-2"/><radialGradient id="radial-gradient-13" cx="-3859.18" cy="-1997.04" r="151.74" gradientTransform="matrix(0.49, -0.87, 0.87, 0.49, 3697.38, -2337.62)" xlink:href="#radial-gradient-2"/><radialGradient id="radial-gradient-14" cx="-3859.18" cy="-1997.04" r="151.74" gradientTransform="matrix(0.49, -0.87, 0.87, 0.49, 3697.38, -2337.62)" xlink:href="#radial-gradient-2"/><radialGradient id="radial-gradient-15" cx="-3859.18" cy="-1997.05" r="151.75" gradientTransform="matrix(0.49, -0.87, 0.87, 0.49, 3697.38, -2337.62)" xlink:href="#radial-gradient-2"/><radialGradient id="radial-gradient-16" cx="-3856.92" cy="-1973.43" r="111.48" gradientTransform="matrix(0.49, -0.87, 0.87, 0.49, 3697.38, -2337.62)" xlink:href="#radial-gradient-2"/><radialGradient id="radial-gradient-17" cx="-3849.46" cy="-1993.58" r="156.16" gradientTransform="matrix(0.49, -0.87, 0.87, 0.49, 3697.38, -2337.62)" xlink:href="#radial-gradient-2"/><radialGradient id="radial-gradient-18" cx="-3849.46" cy="-1993.58" r="156.15" gradientTransform="matrix(0.49, -0.87, 0.87, 0.49, 3697.38, -2337.62)" xlink:href="#radial-gradient-2"/><radialGradient id="radial-gradient-19" cx="-3849.46" cy="-1993.59" r="156.18" gradientTransform="matrix(0.49, -0.87, 0.87, 0.49, 3697.38, -2337.62)" xlink:href="#radial-gradient-2"/><radialGradient id="radial-gradient-20" cx="-3849.46" cy="-1993.57" r="156.15" gradientTransform="matrix(0.49, -0.87, 0.87, 0.49, 3697.38, -2337.62)" xlink:href="#radial-gradient-2"/><radialGradient id="radial-gradient-21" cx="-3849.46" cy="-1993.59" r="156.17" gradientTransform="matrix(0.49, -0.87, 0.87, 0.49, 3697.38, -2337.62)" xlink:href="#radial-gradient-2"/><radialGradient id="radial-gradient-22" cx="-3849.46" cy="-1993.57" r="156.14" gradientTransform="matrix(0.49, -0.87, 0.87, 0.49, 3697.38, -2337.62)" xlink:href="#radial-gradient-2"/><radialGradient id="radial-gradient-23" cx="-3849.46" cy="-1993.59" r="156.17" gradientTransform="matrix(0.49, -0.87, 0.87, 0.49, 3697.38, -2337.62)" xlink:href="#radial-gradient-2"/><radialGradient id="radial-gradient-24" cx="-3855.43" cy="-1985.93" r="136.96" gradientTransform="matrix(0.49, -0.87, 0.87, 0.49, 3697.38, -2337.62)" xlink:href="#radial-gradient-2"/><radialGradient id="radial-gradient-25" cx="-3861.01" cy="-1889.61" r="0.89" gradientTransform="matrix(0.49, -0.87, 0.87, 0.49, 3697.38, -2337.62)" xlink:href="#radial-gradient-2"/><radialGradient id="radial-gradient-26" cx="-3862.41" cy="-1879.68" r="0.89" gradientTransform="matrix(0.49, -0.87, 0.87, 0.49, 3697.38, -2337.62)" xlink:href="#radial-gradient-2"/><radialGradient id="radial-gradient-27" cx="-3850.78" cy="-1880.46" r="0.89" gradientTransform="matrix(0.49, -0.87, 0.87, 0.49, 3697.38, -2337.62)" xlink:href="#radial-gradient-2"/><radialGradient id="radial-gradient-28" cx="-3828.74" cy="-1904.66" r="0.89" gradientTransform="matrix(0.49, -0.87, 0.87, 0.49, 3697.38, -2337.62)" xlink:href="#radial-gradient-2"/><radialGradient id="radial-gradient-29" cx="-3823.94" cy="-1904.19" r="0.89" gradientTransform="matrix(0.49, -0.87, 0.87, 0.49, 3697.38, -2337.62)" xlink:href="#radial-gradient-2"/><radialGradient id="radial-gradient-30" cx="-3804.39" cy="-1921.1" r="0.89" gradientTransform="matrix(0.49, -0.87, 0.87, 0.49, 3697.38, -2337.62)" xlink:href="#radial-gradient-2"/><radialGradient id="radial-gradient-31" cx="-3919.96" cy="-1921.88" r="0.89" gradientTransform="matrix(0.49, -0.87, 0.87, 0.49, 3697.38, -2337.62)" xlink:href="#radial-gradient-2"/><radialGradient id="radial-gradient-32" cx="-3914.69" cy="-1912.57" r="0.89" gradientTransform="matrix(0.49, -0.87, 0.87, 0.49, 3697.38, -2337.62)" xlink:href="#radial-gradient-2"/><radialGradient id="radial-gradient-33" cx="-3905.23" cy="-1885.42" r="0.89" gradientTransform="matrix(0.49, -0.87, 0.87, 0.49, 3697.38, -2337.62)" xlink:href="#radial-gradient-2"/><radialGradient id="radial-gradient-34" cx="-3898.71" cy="-1888.21" r="0.89" gradientTransform="matrix(0.49, -0.87, 0.87, 0.49, 3697.38, -2337.62)" xlink:href="#radial-gradient-2"/><radialGradient id="radial-gradient-35" cx="-3884.6" cy="-1869.6" r="0.89" gradientTransform="matrix(0.49, -0.87, 0.87, 0.49, 3697.38, -2337.62)" xlink:href="#radial-gradient-2"/><radialGradient id="radial-gradient-36" cx="-3844.26" cy="-1867.89" r="0.89" gradientTransform="matrix(0.49, -0.87, 0.87, 0.49, 3697.38, -2337.62)" xlink:href="#radial-gradient-2"/><radialGradient id="radial-gradient-37" cx="-3838.83" cy="-1864.94" r="0.89" gradientTransform="matrix(0.49, -0.87, 0.87, 0.49, 3697.38, -2337.62)" xlink:href="#radial-gradient-2"/><radialGradient id="radial-gradient-38" cx="-3844.41" cy="-1960.66" r="0.89" gradientTransform="matrix(0.49, -0.87, 0.87, 0.49, 3697.38, -2337.62)" xlink:href="#radial-gradient-2"/><radialGradient id="radial-gradient-39" cx="-3839.14" cy="-1963.3" r="0.89" gradientTransform="matrix(0.49, -0.87, 0.87, 0.49, 3697.38, -2337.62)" xlink:href="#radial-gradient-2"/><radialGradient id="radial-gradient-40" cx="-3905.07" cy="-1948.72" r="0.89" gradientTransform="matrix(0.49, -0.87, 0.87, 0.49, 3697.38, -2337.62)" xlink:href="#radial-gradient-2"/><radialGradient id="radial-gradient-41" cx="-3905.07" cy="-1960.97" r="0.89" gradientTransform="matrix(0.49, -0.87, 0.87, 0.49, 3697.38, -2337.62)" xlink:href="#radial-gradient-2"/><radialGradient id="radial-gradient-42" cx="-3893.13" cy="-1946.39" r="0.89" gradientTransform="matrix(0.49, -0.87, 0.87, 0.49, 3697.38, -2337.62)" xlink:href="#radial-gradient-2"/><radialGradient id="radial-gradient-43" cx="-3892.5" cy="-1942.36" r="0.89" gradientTransform="matrix(0.49, -0.87, 0.87, 0.49, 3697.38, -2337.62)" xlink:href="#radial-gradient-2"/><radialGradient id="radial-gradient-44" cx="-3861.63" cy="-1974.62" r="0.89" gradientTransform="matrix(0.49, -0.87, 0.87, 0.49, 3697.38, -2337.62)" xlink:href="#radial-gradient-2"/><radialGradient id="radial-gradient-45" cx="-3861.17" cy="-1979.74" r="0.89" gradientTransform="matrix(0.49, -0.87, 0.87, 0.49, 3697.38, -2337.62)" xlink:href="#radial-gradient-2"/><radialGradient id="radial-gradient-46" cx="-3849.53" cy="-1979.43" r="0.89" gradientTransform="matrix(0.49, -0.87, 0.87, 0.49, 3697.38, -2337.62)" xlink:href="#radial-gradient-2"/><radialGradient id="radial-gradient-47" cx="-3846.43" cy="-1982.38" r="0.89" gradientTransform="matrix(0.49, -0.87, 0.87, 0.49, 3697.38, -2337.62)" xlink:href="#radial-gradient-2"/><radialGradient id="radial-gradient-48" cx="-1033.51" cy="-444.95" r="144.6" gradientTransform="matrix(0.9, -0.23, 0.27, 1.08, 1166.51, 335.78)" gradientUnits="userSpaceOnUse"><stop offset="0" stop-color="#f20074"/><stop offset="0.14" stop-color="#ed0376"/><stop offset="0.31" stop-color="#df0b7d"/><stop offset="0.49" stop-color="#c71887"/><stop offset="0.67" stop-color="#a62a96"/><stop offset="0.87" stop-color="#7b42a9"/><stop offset="0.9" stop-color="#7446ac"/></radialGradient><radialGradient id="radial-gradient-49" cx="-3350" cy="-1194.36" r="144.6" gradientTransform="translate(3214.37 -1671.6) rotate(-49.26)" xlink:href="#radial-gradient-48"/></defs><title>planeta</title><g class="cls-1"><g id="Camada_2" data-name="Camada 2"><g id="Layer_1" data-name="Layer 1"><circle class="cls-2" cx="118.99" cy="73.89" r="73.88" transform="translate(-15.39 34.39) rotate(-15.46)"/><circle class="cls-3" cx="118.99" cy="73.89" r="67.51" transform="translate(-15.39 34.39) rotate(-15.46)"/><path class="cls-4" d="M150.37,14.12l-.54-.27c-.51-.27-1-.52-1.53-.77l-.44-.21c-.64-.31-1.29-.6-1.94-.89l-.37-.15c-.55-.24-1.09-.46-1.64-.68l-.51-.2c-.65-.26-1.3-.5-2-.74h0c-.68-.24-1.37-.47-2-.69L139,9.39l-1.76-.52-.33-.09c-.7-.2-1.41-.38-2.12-.55l-.08,0-2-.45-.34-.07c-1.43-.28-2.86-.53-4.3-.72l-.18,0-2.07-.24-.14,0c-1.47-.14-3-.23-4.42-.28H121c-1.49,0-3,0-4.45,0h0c7.64,2,19.15,5.4,17.56,13.05-2,9.81-17.22,17.26-17.72,44.39s14.82,31.9,8.85,52.8-28.88,20.85-28.89,20.85l4.4,1.4a67.54,67.54,0,0,0,73.74-26.64c.2-.29.4-.57.59-.86s.29-.44.43-.66q.41-.61.78-1.23l.34-.54c.36-.6.72-1.2,1.06-1.8a67.51,67.51,0,0,0-25.45-92C151.64,14.8,151,14.46,150.37,14.12Z"/><path class="cls-5" d="M148,15.61l-.53-.27-1.5-.75-.43-.2c-.63-.3-1.26-.59-1.9-.87l-.37-.16c-.53-.23-1.07-.45-1.61-.66l-.49-.2q-1-.37-1.92-.72h0c-.67-.24-1.34-.46-2-.68l-.41-.12L135,10.46l-.33-.09c-.69-.19-1.38-.37-2.07-.53l-.09,0c-.66-.16-1.31-.3-2-.44l-.34-.07c-1.4-.28-2.81-.52-4.22-.71l-.17,0c-.68-.09-1.35-.17-2-.23l-.14,0c-1.44-.14-2.89-.23-4.33-.28h-.16c-.91,0-1.82,0-2.72,0,.94.05,1.88.11,2.83.21h.14c.68.07,1.35.15,2,.24l.18,0c1.41.19,2.82.42,4.22.71l.33.06,2,.44.08,0c.7.17,1.39.35,2.08.54l.32.09c.58.16,1.15.33,1.73.51l.41.13c.67.21,1.34.43,2,.67h0c.65.23,1.29.47,1.93.72l.49.19,1.61.67.37.15c.63.28,1.27.57,1.9.87l.43.21,1.5.75.53.27c.62.33,1.24.66,1.86,1a66.19,66.19,0,0,1,24.95,90.23c-.33.6-.68,1.18-1,1.77l-.33.53c-.25.41-.5.81-.76,1.2l-.42.65c-.19.29-.39.57-.58.84a66.18,66.18,0,0,1-53.73,28.56,66.18,66.18,0,0,0,58.11-28.46l.58-.84.42-.65c.26-.4.52-.8.77-1.2l.33-.53c.35-.59.7-1.18,1-1.77a66.21,66.21,0,0,0-25-90.23C149.2,16.28,148.57,15.94,148,15.61Z"/><path class="cls-6" d="M119.11,20.49a9.37,9.37,0,0,1,.1,1.5,17.18,17.18,0,0,1-1.76,6.12q-2.62,6.2-5,12.48c-3.73,9.86-7,20.17-6.51,30.69.33,6.58,2.17,13,3.85,19.35s3.23,12.88,3,19.47-2.58,13.34-7.52,17.7c-11.74,10.38-25.5-2.1-33.72-11A64.81,64.81,0,0,1,89.24,15.25c9.07-4.69,22.31-10.14,28.56,1.47A11.51,11.51,0,0,1,119.11,20.49Z"/><path class="cls-7" d="M74.12,116.85A64.82,64.82,0,0,1,91.87,15.27c4.7-2.43,10.53-5.06,15.92-5.42-6.07-.54-13.07,2.56-18.55,5.4A64.81,64.81,0,0,0,71.49,116.82c6.26,6.77,15.74,15.61,25.1,14.85C88.11,130.82,79.8,123,74.12,116.85Z"/><path class="cls-8" d="M67.72,69.25c4.93-.85,10.12,5.42,11.6,14S78,99.48,73.09,100.33s-10.12-5.41-11.6-14S62.8,70.1,67.72,69.25Z"/><path class="cls-9" d="M70.41,47.66c2.71.54,4.15,4.81,3.21,9.54s-3.9,8.12-6.62,7.58S62.85,60,63.79,55.24,67.69,47.12,70.41,47.66Z"/><path class="cls-10" d="M115,27.17a5.16,5.16,0,0,1-.45,1.57,4.57,4.57,0,0,1-.9,1.25,18.62,18.62,0,0,0-2.92,3.31,8.67,8.67,0,0,0-.86,2.21c-.17.64-.29,1.17-.43,1.57A3.29,3.29,0,0,1,109,38a4.8,4.8,0,0,1-.67.77,19.21,19.21,0,0,1-1.61,1.35l-1.62,1.27-1.55,1.37c-1,.9-2.39,2.15-4,3.78a59.9,59.9,0,0,0-5.19,5.91,36.91,36.91,0,0,0-4.61,7.88,28.15,28.15,0,0,0-2,8.89,31.63,31.63,0,0,1-1,7.29,11.53,11.53,0,0,1-1.18,2.59,8.73,8.73,0,0,1-1.38,1.7c-.89.85-1.58,1.16-1.52,1.33s.85.1,2.06-.62a8.38,8.38,0,0,0,1.89-1.63c1.26-1.46,1.83-3.27,3-4.8,1.27-1.75,3.35-2.94,3.94-5.15A12.88,12.88,0,0,0,93.67,67a13.11,13.11,0,0,1,3.25-8.26c1.17-1.33,2.6-2.4,3.71-3.78,1.34-1.65,2.21-3.72,3.92-5A9.7,9.7,0,0,0,107,48.13a10.19,10.19,0,0,0,1-2.91c.65-2,3.33-3.19,4.48-5a7.69,7.69,0,0,0,.85-2,19.53,19.53,0,0,1,.79-3.07,17.15,17.15,0,0,1,2.28-2.78,11,11,0,0,0,.77-1c1.15-1.87,1.64-4.37,2.21-6.46a15.76,15.76,0,0,0-1-10.72c-.87-1.86-4.29-8-6.43-7.14.47,5.32,2.17,10.78,2.91,16.15A15.11,15.11,0,0,1,115,27.17Z"/><path class="cls-11" d="M183,52.36a47.65,47.65,0,0,0-5.34,7.16,73.67,73.67,0,0,0-4.72,8.92A77,77,0,0,0,169,79.38c-.53,1.91-1,3.85-1.33,5.76-.19,1-.33,1.92-.5,2.87s-.26,1.86-.39,2.77a39.43,39.43,0,0,1-2,9.25,16,16,0,0,1-3.35,5.22c-.52.56-1,1-1.28,1.26l-.49.42-.48.44c-.32.28-.79.69-1.42,1.19-1.26,1-3.19,2.39-5.59,4.1a41.86,41.86,0,0,0-7.81,6.84c-2.5,3-4.4,6.39-6.66,9.38-.54.77-1.15,1.48-1.74,2.22s-1.21,1.44-1.85,2.11a52.12,52.12,0,0,1-3.91,3.83,58,58,0,0,1-5.21,4.09c1.13-.1,2.26-.23,3.38-.39a45.74,45.74,0,0,0,7.38-3.16,7.22,7.22,0,0,0,2.09-1.33,6.24,6.24,0,0,0,1.43-3.11,3,3,0,0,1,.76-1.68,4.77,4.77,0,0,1,1.86-.63c2.22-.64,3.17-3.29,3.28-5.6a7.16,7.16,0,0,1,.28-2.22c1.14-3,8-6.23,10.49-7.67a4.2,4.2,0,0,1,1.88-.71,17.74,17.74,0,0,1,1.76.25c1.69.1,3.06-1.34,4-2.78a24.9,24.9,0,0,1,3.57-4.84c1.69-1.62,3.75-2.53,4.51-5,.69-2.2-.07-4.64.57-6.85.54-1.89,2-3.42,2.39-5.35s-.45-3.62-.93-5.4c-.87-3.17-1.2-7.48-.2-10.65a5.64,5.64,0,0,1,1.3-2.36c.46-.45,1-.78,1.5-1.21,1.61-1.46,1.91-3.83,2.14-6,.1-1,3.34-8.94,4.69-11.73C183.06,52.63,183,52.49,183,52.36Z"/><path class="cls-12" d="M140.86,42.24A18.57,18.57,0,0,1,137.21,48a21.9,21.9,0,0,1-4.86,3.78c-1.69,1-3.38,1.86-4.88,2.65s-2.85,1.51-4,2.18c-.54.32-1,.64-1.45.91l-1.06.74-.86.66-.22.17c-.13.13-.34.31-.6.55s-.59.53-1,.9l-.58.59-.62.69a35.2,35.2,0,0,0-5.6,9,66.17,66.17,0,0,0-2.44,6.48c-.75,2.31-1.43,4.75-2.16,7.23-1.45,4.95-3,10.16-5.85,14.66l-1.08,1.67-1.2,1.59A18.26,18.26,0,0,1,97.58,104c-.44.49-.85,1-1.34,1.46l-1.4,1.38c-.48.44-1,.86-1.47,1.29s-1,.83-1.51,1.22-1,.8-1.52,1.16a72.37,72.37,0,0,1-12.17,6.85c-2.55,1.15-4.84,2.08-6.76,2.84-.34.14,1.49.78,1.72.8a4.94,4.94,0,0,0,2.51-.67c1-.49,2-1.22,3-1.74a5.44,5.44,0,0,1,1.71-.55c1.54-.21,3.06.44,4.61.56a10.08,10.08,0,0,0,5.33-1.35,19.45,19.45,0,0,0,5.2-4,13.78,13.78,0,0,1,1.93-1.89c1.89-1.33,4.49-1.24,6.44-2.49,2.43-1.57,3.18-4.74,4.95-7,1.26-1.61,3.1-2.88,3.68-4.84,1.07-3.64-.86-8.33-.33-12.26a26.82,26.82,0,0,1,5.25-12.68,17.82,17.82,0,0,1,2.62-2.8c3.74-3.1,8.5-5.14,12.47-8a48,48,0,0,0,9.86-10,10.77,10.77,0,0,0,1.79-2.9c.48-1.39,0-2.84.35-4.15.49-1.76,2.59-3.66,3.69-5.11a9.65,9.65,0,0,0,1.93-3.41,10.12,10.12,0,0,0-.44-4.89q-1.56-6.1-2.65-12.32c-.43-2.48-.27-5.09-1.57-6.76-.86-.37-1.74-.72-2.62-1.06-.74,5.21.34,11,.42,16.21C143.33,32.35,142.76,37.79,140.86,42.24Z"/><path class="cls-13" d="M110.2,136.74a39.69,39.69,0,0,0,4.68-4.12,7.76,7.76,0,0,0,1.62-2.12c2.68-5.71.52-11.48,5-16.82a16.74,16.74,0,0,1,4.92-3.88c3.12-1.77,4.37-1.38,7.65-1.52a2.6,2.6,0,0,0,2.09-1.72c.38-.87.48-1.84.77-2.74.74-2.3,2.59-4,4.25-5.78a5.17,5.17,0,0,0,1.08-1.47c1.06-2.52-.33-5.2.9-7.88a22.42,22.42,0,0,0,2.35-6.29c.7-4.33.36-7.23.11-7.23S145,78,143.8,82a45.66,45.66,0,0,1-2.54,6.63,42.69,42.69,0,0,1-4.15,6.92,40,40,0,0,1-5.39,5.92,41.59,41.59,0,0,1-5.56,4.18c-1.77,1.12-3.33,2.09-4.4,2.86-.54.38-1,.69-1.24.92l-.44.34-.41.38c-.27.24-.66.62-1.14,1.12a17.36,17.36,0,0,0-1.61,2,15.5,15.5,0,0,0-1.58,2.93,34.09,34.09,0,0,0-1.17,3.45c-.34,1.19-.68,2.34-1.13,3.53a38.63,38.63,0,0,1-3.53,7.16,32.32,32.32,0,0,1-5,6.24,25.54,25.54,0,0,1-2.59,2.18C104.44,140.08,107.52,138.68,110.2,136.74Z"/><path class="cls-14" d="M75.93,61.58a37.81,37.81,0,0,1-5.65,5.58,75.48,75.48,0,0,1-13,8c-1.29.66-4.18,1.39-4,3,4.1-.71,7.29-3.1,10.92-5,2.52-1.29,5.43-1.57,8.12-2.45l.14,0C82.82,67.24,84,58,86.4,48.86a47.15,47.15,0,0,1,1.47-4.7c1.34-3.46,3.07-7.4,5.79-10,1-1,2.32-2.07,2.1-3.47a3.54,3.54,0,0,1-.15-1.11,2.47,2.47,0,0,1,.4-.75c.83-1.36.35-3.13-.27-4.6-.33-.79-5.6-10.46-6.36-10.06L87.84,15a18.36,18.36,0,0,1,2.8,6.22,16,16,0,0,1,0,7.58A32.47,32.47,0,0,1,87.53,36c-1.24,2.3-2.5,4.52-3.4,6.58a46.72,46.72,0,0,0-1.86,5c-.38,1.18-.59,1.86-.59,1.86s-.19.67-.51,1.83a32.39,32.39,0,0,1-1.63,4.53A28.33,28.33,0,0,1,75.93,61.58Z"/><path class="cls-15" d="M167.33,27.85c-1,2.21-1.25,7-1.83,8.44a14.34,14.34,0,0,1-1.26,2.46c-.36.57-.6.91-.6.91l-.6,1c-.39.64-1,1.56-1.69,2.83a14.46,14.46,0,0,0-1.63,4.82,24,24,0,0,0-.11,5.49c.32,3.59.9,6.92.75,9.41s-.76,4-.47,4.25,1.77-3.31,2-3.6a20,20,0,0,0,2-2.7A7.06,7.06,0,0,0,165.11,56c-.3-1.21-1.14-2.33-1-3.57.13-1.09,1-1.94,1.36-3a9,9,0,0,0,.16-3.32c-.1-2.52,2-5.06,3.58-6.79a10,10,0,0,0,2.58-7.42.28.28,0,0,0,0-.09q-1.9-2.4-4-4.63A2.84,2.84,0,0,0,167.33,27.85Z"/><path class="cls-16" d="M63.3,104.92c-.87,0-1.74,0-2.61,0a3.93,3.93,0,0,0,2.19,2.37c2,1,4.92.89,6.94,1.2a13.32,13.32,0,0,0,3.27.24c2.28-.19,4.55-1.5,6.73-.83.75.23,1.51.69,2.27.48a3.44,3.44,0,0,0,1.29-.93c1.53-1.39,3.64-1.89,5.6-2.55s4-1.72,4.81-3.62c1-2.5,2.41-4.69,3.39-7.22a9.19,9.19,0,0,1,2-3.11c1.23-1.25,2.82-2.15,3.88-3.55,2.39-3.16,2.71-8.71,3.87-12.49.83-2.71,1.54-5.53,3.21-7.82A11.26,11.26,0,0,0,112,64.13a13,13,0,0,0,.25-3.69c.14-3.46,3.9-6.29,6-8.69a34.92,34.92,0,0,0,3.58-4.9,52.89,52.89,0,0,0,2.7-5.13c.78-1.7,1.49-3.29,2.16-4.89a17.79,17.79,0,0,0,.83-2.46,10.17,10.17,0,0,0,.3-2.47,12.79,12.79,0,0,0-.74-4.17,19.43,19.43,0,0,0-1.25-2.91c-.81-1.54-1.37-2.35-1.5-2.29s.15,1,.68,2.63a29.06,29.06,0,0,1,.81,2.92,12.53,12.53,0,0,1,.29,3.74A11.25,11.25,0,0,1,124.8,36c-.74,1.46-1.59,3.06-2.44,4.64s-1.81,3.2-2.86,4.73A32.84,32.84,0,0,1,116,49.67c-2.62,2.76-5.66,5.4-7.94,8.67a49.31,49.31,0,0,0-4.68,9.3c-2.27,5.42-3.77,9-3.77,9l-3.45,9.15c-1.08,2.75-2,6-4,8.46s-5.25,4.63-8.59,6.34A40,40,0,0,1,73,104.19,42.15,42.15,0,0,1,63.3,104.92Z"/><path class="cls-17" d="M59,104.78c.87,0,1.74,0,2.61.06a42.75,42.75,0,0,0,9.73-.74,40,40,0,0,0,10.47-3.57c3.33-1.71,6.58-3.81,8.59-6.33s3-5.71,4-8.47c2.07-5.49,3.44-9.15,3.44-9.15l3.78-9a49,49,0,0,1,4.68-9.3c2.28-3.26,5.32-5.91,7.94-8.66a32.93,32.93,0,0,0,3.54-4.34c1-1.53,2-3.14,2.85-4.72s1.71-3.19,2.45-4.64a11.36,11.36,0,0,0,1.33-4.16,12.53,12.53,0,0,0-.29-3.74,29.06,29.06,0,0,0-.81-2.92c-.53-1.61-.83-2.56-.69-2.62s.7.75,1.51,2.28a20.38,20.38,0,0,1,1.25,2.91,12.79,12.79,0,0,1,.74,4.17,10.31,10.31,0,0,1-.3,2.48,18.73,18.73,0,0,1-.83,2.46c-.67,1.6-1.38,3.19-2.16,4.88a53,53,0,0,1-2.7,5.14,35.52,35.52,0,0,1-3.58,4.9c-2.08,2.4-5.84,5.22-6,8.68a13,13,0,0,1-.25,3.69A11.26,11.26,0,0,1,108.46,67c-1.67,2.29-2.38,5.11-3.21,7.82-1.16,3.78-1.48,9.34-3.87,12.49-1.06,1.4-2.65,2.3-3.88,3.55a9.19,9.19,0,0,0-2,3.11c-1,2.54-2.35,4.72-3.4,7.22-.8,1.91-2.84,3-4.8,3.62s-4.07,1.16-5.6,2.55a3.52,3.52,0,0,1-1.29.93c-.76.21-1.52-.25-2.27-.48-2.19-.67-4.45.64-6.73.84a13.84,13.84,0,0,1-3.27-.25c-2-.31-4.91-.24-7-1.2A3.94,3.94,0,0,1,59,104.78ZM182,51.72c-.21-.16-2.89,2.72-6,7.72a72.75,72.75,0,0,0-4.72,8.91,76.22,76.22,0,0,0-3.89,10.94c-.53,1.91-1,3.85-1.33,5.77-.19,1-.34,1.92-.5,2.86s-.26,1.86-.39,2.78a40,40,0,0,1-2,9.24,16.32,16.32,0,0,1-3.35,5.23c-.52.56-1,1-1.28,1.25l-.49.43-.48.43c-.32.28-.79.69-1.43,1.2-1.25,1-3.18,2.38-5.58,4.09a41.86,41.86,0,0,0-7.81,6.84c-2.5,3-4.41,6.39-6.66,9.38-.54.77-1.15,1.49-1.74,2.23s-1.21,1.43-1.85,2.1a50.25,50.25,0,0,1-3.91,3.83,57.32,57.32,0,0,1-5.55,4.33c4.25-.25,7.29-1.95,11.1-3.79a7,7,0,0,0,2.09-1.33,6.24,6.24,0,0,0,1.43-3.11,3,3,0,0,1,.76-1.68,4.77,4.77,0,0,1,1.85-.62c2.23-.65,3.18-3.3,3.29-5.61a7.16,7.16,0,0,1,.28-2.22c1.14-3,7.95-6.23,10.48-7.67a4.15,4.15,0,0,1,1.89-.7c.59,0,1.17.21,1.76.24,1.69.1,3.05-1.34,3.95-2.77a25.06,25.06,0,0,1,3.58-4.84c1.69-1.63,3.75-2.54,4.51-5,.69-2.2-.07-4.64.57-6.85.54-1.88,2-3.42,2.39-5.34s-.45-3.63-.93-5.41c-.87-3.17-1.2-7.48-.2-10.65a5.71,5.71,0,0,1,1.3-2.36c.46-.45,1-.77,1.5-1.2,1.61-1.46,1.91-3.84,2.14-6C176.87,63.22,181.72,51.5,182,51.72ZM70.83,70.61c10.32-3.45,11.46-12.73,13.9-21.84a46.29,46.29,0,0,1,1.47-4.69c1.34-3.47,3.07-7.41,5.79-10,1-1,2.32-2.07,2.1-3.47a3.54,3.54,0,0,1-.15-1.11,2.47,2.47,0,0,1,.4-.75c.83-1.36.35-3.12-.27-4.59-.33-.8-5.6-10.47-6.36-10.07-.52.27-1,.54-1.54.83A18.31,18.31,0,0,1,89,21.1a15.18,15.18,0,0,1,.45,3.76A15,15,0,0,1,89,28.68a32.47,32.47,0,0,1-3.1,7.26c-1.24,2.3-2.5,4.52-3.4,6.58a47.51,47.51,0,0,0-1.86,5L80,49.41s-.19.67-.51,1.84a32.8,32.8,0,0,1-1.63,4.52,28.38,28.38,0,0,1-3.61,5.73,37.84,37.84,0,0,1-5.66,5.57,75,75,0,0,1-13,8c-1.29.66-4.18,1.4-4,3,4.1-.71,7.29-3.1,10.92-5,2.52-1.3,5.43-1.58,8.12-2.46Zm94.83-42.85c-1,2.21-1.26,7-1.83,8.45a14.73,14.73,0,0,1-1.26,2.46c-.36.57-.6.9-.6.9l-.6,1c-.39.64-1,1.56-1.69,2.83A14.85,14.85,0,0,0,158,48.2a24,24,0,0,0-.1,5.49c.32,3.59.9,6.92.74,9.41s-.75,4.06-.46,4.26,1.77-3.31,2-3.61a19.37,19.37,0,0,0,2-2.7,7.09,7.09,0,0,0,1.23-5.16c-.3-1.21-1.14-2.33-1-3.56s1-1.95,1.36-3A9,9,0,0,0,164,46c-.1-2.51,2-5.06,3.58-6.79a10,10,0,0,0,2.58-7.42,7,7,0,0,0-1.23-3.64C167.29,26,166.31,26.37,165.66,27.76ZM108.53,136.65a40.54,40.54,0,0,0,4.68-4.11,7.92,7.92,0,0,0,1.62-2.12c2.68-5.72.52-11.49,5-16.82a16.74,16.74,0,0,1,4.92-3.88c3.12-1.78,4.37-1.39,7.64-1.53a2.62,2.62,0,0,0,2.1-1.71c.38-.88.48-1.84.77-2.75.74-2.3,2.59-4,4.25-5.78a5.17,5.17,0,0,0,1.08-1.47c1.06-2.52-.33-5.2.9-7.88a22.73,22.73,0,0,0,2.35-6.29c.7-4.32.36-7.23.11-7.23s-.61,2.83-1.78,6.85a44.74,44.74,0,0,1-2.55,6.64,42.34,42.34,0,0,1-4.14,6.92,40.1,40.1,0,0,1-11,10.09c-1.77,1.12-3.33,2.1-4.4,2.86-.54.38-1,.69-1.24.92l-.44.34-.41.38c-.27.24-.66.62-1.14,1.12a17.36,17.36,0,0,0-1.61,2,15.6,15.6,0,0,0-1.58,2.94,33.26,33.26,0,0,0-1.17,3.45c-.34,1.18-.68,2.33-1.13,3.53a38.55,38.55,0,0,1-3.53,7.15,32.32,32.32,0,0,1-5,6.24,27,27,0,0,1-2.59,2.19C102.77,140,105.85,138.59,108.53,136.65Zm4.8-109.56a5.18,5.18,0,0,1-.45,1.56,4.76,4.76,0,0,1-.9,1.26,18.51,18.51,0,0,0-2.92,3.3,9.13,9.13,0,0,0-.87,2.21c-.16.64-.28,1.17-.42,1.57a3.29,3.29,0,0,1-.45.92,5.34,5.34,0,0,1-.67.78c-.52.49-1.1.94-1.61,1.34l-1.62,1.28-1.55,1.37c-1,.89-2.39,2.15-4,3.78a57.68,57.68,0,0,0-5.19,5.91,36.49,36.49,0,0,0-4.61,7.88,28.08,28.08,0,0,0-2,8.89,31.79,31.79,0,0,1-1,7.29A11.65,11.65,0,0,1,83.87,79a8.79,8.79,0,0,1-1.38,1.7c-.89.86-1.58,1.17-1.52,1.33s.85.1,2-.62a8,8,0,0,0,1.9-1.63c1.26-1.45,1.83-3.27,3-4.8,1.27-1.75,3.35-2.94,3.93-5.15a12.8,12.8,0,0,0,.2-2.91,13.05,13.05,0,0,1,3.25-8.26c1.17-1.32,2.6-2.4,3.71-3.77,1.34-1.65,2.21-3.73,3.92-5a10.18,10.18,0,0,0,2.46-1.87,10.62,10.62,0,0,0,1-2.91c.65-2,3.33-3.19,4.48-5a7.89,7.89,0,0,0,.85-2,19.53,19.53,0,0,1,.79-3.07,17.15,17.15,0,0,1,2.28-2.78,11,11,0,0,0,.77-1c1.15-1.87,1.64-4.36,2.21-6.45a15.78,15.78,0,0,0-1-10.73c-.87-1.86-4.29-8-6.43-7.13.47,5.31,2.17,10.77,2.91,16.14A15.18,15.18,0,0,1,113.33,27.09ZM77,118.49a5.37,5.37,0,0,1,1.71-.56c1.55-.21,3.06.45,4.61.56a10.1,10.1,0,0,0,5.34-1.35,19.63,19.63,0,0,0,5.2-3.94,13.25,13.25,0,0,1,1.93-1.89c1.89-1.34,4.49-1.24,6.44-2.5,2.43-1.56,3.17-4.74,5-7,1.26-1.62,3.1-2.88,3.67-4.84,1.08-3.65-.85-8.33-.32-12.26A26.9,26.9,0,0,1,115.74,72a17.91,17.91,0,0,1,2.63-2.8c3.73-3.1,8.5-5.15,12.47-8a47.75,47.75,0,0,0,9.86-10,10.62,10.62,0,0,0,1.79-2.9c.48-1.39,0-2.84.35-4.15.49-1.76,2.59-3.66,3.69-5.1a9.78,9.78,0,0,0,1.93-3.42,10.07,10.07,0,0,0-.44-4.88q-1.56-6.12-2.65-12.33c-.62-3.51,0-7.33-4.12-8.26-.88,5.32.27,11.27.34,16.65s-.5,10.85-2.4,15.31a18.64,18.64,0,0,1-3.65,5.72,21.61,21.61,0,0,1-4.86,3.78c-1.69,1-3.38,1.86-4.88,2.65s-2.85,1.51-4,2.18c-.54.32-1,.65-1.45.91l-1.06.74-.86.66-.22.18-.6.54c-.27.24-.6.53-1,.9l-.58.59-.62.7a34.58,34.58,0,0,0-5.6,9,66.93,66.93,0,0,0-2.44,6.47c-.75,2.32-1.43,4.75-2.16,7.23-1.45,5-3,10.16-5.85,14.66l-1.08,1.67-1.2,1.59a16.76,16.76,0,0,1-1.27,1.52c-.44.49-.85,1-1.34,1.46s-.93.93-1.4,1.38-1,.86-1.47,1.29a17.51,17.51,0,0,1-1.51,1.22c-.51.39-1,.8-1.52,1.16a71.68,71.68,0,0,1-12.17,6.85c-2.55,1.15-4.84,2.09-6.76,2.84-.34.14,1.49.79,1.72.81a5,5,0,0,0,2.51-.68C75,119.73,76,119,77,118.49Z"/><g class="cls-18"><path class="cls-19" d="M68.15,108.35a13.84,13.84,0,0,0,3.27.25c2.28-.2,4.54-1.51,6.73-.84.75.23,1.51.69,2.27.48a3.52,3.52,0,0,0,1.29-.93c1.53-1.39,3.64-1.88,5.6-2.55s4-1.71,4.8-3.62c1-2.5,2.42-4.68,3.4-7.22a9.19,9.19,0,0,1,2-3.11c1.23-1.25,2.82-2.15,3.88-3.55,2.39-3.15,2.71-8.71,3.87-12.49.83-2.71,1.54-5.53,3.21-7.82A11.26,11.26,0,0,0,110.37,64a13,13,0,0,0,.25-3.69c.14-3.46,3.9-6.28,6-8.68a35.52,35.52,0,0,0,3.58-4.9,53,53,0,0,0,2.7-5.14c.78-1.69,1.49-3.28,2.16-4.88a18.73,18.73,0,0,0,.83-2.46,10.31,10.31,0,0,0,.3-2.48,12.79,12.79,0,0,0-.74-4.17,20.38,20.38,0,0,0-1.25-2.91c-.81-1.53-1.37-2.34-1.51-2.28s.16,1,.69,2.62a29.06,29.06,0,0,1,.81,2.92,12.53,12.53,0,0,1,.29,3.74,11.36,11.36,0,0,1-1.33,4.16c-.14.26-.28.54-.42.81-.54,1.26-1.11,2.53-1.73,3.86a52.75,52.75,0,0,1-2.69,5.13,34.87,34.87,0,0,1-3.59,4.91c-2.08,2.39-5.83,5.22-6,8.68a13,13,0,0,1-.25,3.69,11.52,11.52,0,0,1-1.91,2.91c-1.67,2.29-2.38,5.11-3.21,7.82-1.16,3.78-1.49,9.33-3.88,12.49-1.06,1.4-2.64,2.3-3.87,3.55a9,9,0,0,0-2,3.11c-1,2.54-2.35,4.72-3.4,7.22-.8,1.9-2.85,3-4.8,3.62s-4.07,1.16-5.6,2.55a3.47,3.47,0,0,1-1.3.93c-.75.21-1.51-.25-2.26-.48-2.19-.67-4.45.64-6.73.83a13.29,13.29,0,0,1-3.27-.24C64.46,107,62,107,60,106.36a4.78,4.78,0,0,0,1.18.79C63.24,108.11,66.12,108,68.15,108.35Z"/><path class="cls-20" d="M62.57,73.11c2.52-1.3,5.43-1.58,8.12-2.46l.14,0c10.32-3.45,11.46-12.73,13.9-21.84a46.29,46.29,0,0,1,1.47-4.69c1.34-3.47,3.07-7.41,5.79-10,1-1,2.32-2.07,2.1-3.47a3.54,3.54,0,0,1-.15-1.11,2.47,2.47,0,0,1,.4-.75c.83-1.36.35-3.12-.27-4.59-.33-.8-5.6-10.47-6.36-10.07l-.57.3a94.49,94.49,0,0,1,5,8.69c.61,1.48,1.09,3.24.26,4.6a2.68,2.68,0,0,0-.39.75,3,3,0,0,0,.15,1.11c.22,1.4-1.09,2.49-2.11,3.47-2.72,2.62-4.44,6.56-5.78,10a44.63,44.63,0,0,0-1.47,4.7c-2.45,9.11-3.58,18.38-13.91,21.84l-.14,0c-2.05.67-4.23,1-6.26,1.68-2.47,1.49-4.88,2.75-6.93,3.8-1.29.66-4.18,1.4-4,3C55.75,77.37,58.94,75,62.57,73.11Z"/><path class="cls-21" d="M114.83,130.42c2.68-5.72.52-11.49,5-16.82a16.74,16.74,0,0,1,4.92-3.88c3.12-1.78,4.37-1.39,7.64-1.53a2.61,2.61,0,0,0,2.1-1.71c.38-.88.48-1.84.77-2.75.74-2.3,2.59-4,4.25-5.78a5.17,5.17,0,0,0,1.08-1.47c1.06-2.52-.33-5.2.9-7.88a22.73,22.73,0,0,0,2.35-6.29c.7-4.32.36-7.23.11-7.23s-.61,2.83-1.78,6.85a44.74,44.74,0,0,1-2.55,6.64c-.17.36-.36.72-.54,1.08-.15,2,.4,3.9-.38,5.76a5,5,0,0,1-1.09,1.47c-1.66,1.75-3.5,3.48-4.24,5.78-.29.9-.4,1.87-.78,2.74a2.6,2.6,0,0,1-2.09,1.72c-3.28.14-4.52-.25-7.64,1.52a16.61,16.61,0,0,0-4.92,3.88c-4.45,5.34-2.29,11.11-5,16.82a7.76,7.76,0,0,1-1.62,2.12,40.42,40.42,0,0,1-4.68,4.12,12.2,12.2,0,0,1-5.61,2.51l-.75.6c2.49,1.3,5.57-.1,8.25-2a40.54,40.54,0,0,0,4.68-4.11A7.92,7.92,0,0,0,114.83,130.42Z"/><path class="cls-22" d="M83,81.42a8,8,0,0,0,1.9-1.63c1.26-1.45,1.83-3.27,3-4.8,1.27-1.75,3.35-2.94,3.93-5.15a12.8,12.8,0,0,0,.2-2.91,13.05,13.05,0,0,1,3.25-8.26c1.17-1.32,2.6-2.4,3.71-3.77,1.34-1.65,2.21-3.73,3.92-5a10.18,10.18,0,0,0,2.46-1.87,10.62,10.62,0,0,0,1-2.91c.65-2,3.33-3.19,4.48-5a7.89,7.89,0,0,0,.85-2,19.53,19.53,0,0,1,.79-3.07,17.15,17.15,0,0,1,2.28-2.78,11,11,0,0,0,.77-1c1.15-1.87,1.64-4.36,2.21-6.45a15.78,15.78,0,0,0-1-10.73c-.81-1.73-3.81-7.14-6-7.21A25.26,25.26,0,0,1,114.79,13a15.81,15.81,0,0,1,1,10.72c-.57,2.09-1.07,4.59-2.22,6.46a9.48,9.48,0,0,1-.76,1A17.15,17.15,0,0,0,110.55,34a18.47,18.47,0,0,0-.79,3.07,7.72,7.72,0,0,1-.86,2c-1.14,1.8-3.82,3-4.48,5a10.19,10.19,0,0,1-1,2.91A9.65,9.65,0,0,1,101,48.84c-1.71,1.26-2.59,3.33-3.92,5C96,55.2,94.52,56.28,93.35,57.6a13.11,13.11,0,0,0-3.25,8.26,12.29,12.29,0,0,1-.19,2.91c-.58,2.21-2.66,3.4-3.94,5.15-.17.24-.33.49-.49.75a12.94,12.94,0,0,1-.43,1.76A11.65,11.65,0,0,1,83.87,79a8.79,8.79,0,0,1-1.38,1.7c-.89.86-1.58,1.17-1.52,1.33S81.82,82.14,83,81.42Z"/><path class="cls-23" d="M143.48,17.39q1.08,6.21,2.65,12.32a10.24,10.24,0,0,1,.44,4.89A9.78,9.78,0,0,1,144.64,38c-1.1,1.44-3.21,3.34-3.7,5.1-.36,1.31.14,2.76-.34,4.15a10.81,10.81,0,0,1-1.8,2.9,47.94,47.94,0,0,1-9.85,10c-4,2.86-8.74,4.9-12.47,8a17.36,17.36,0,0,0-2.63,2.79,26.8,26.8,0,0,0-5.24,12.69c-.54,3.92,1.4,8.61.32,12.25-.58,2-2.42,3.23-3.67,4.84-1.78,2.29-2.52,5.46-5,7-1.94,1.25-4.54,1.16-6.43,2.49a13.32,13.32,0,0,0-1.94,1.89,19.4,19.4,0,0,1-5.19,3.95,10.1,10.1,0,0,1-5.34,1.35c-1.33-.1-2.64-.59-4-.6-.31.15-.63.3-.94.43-1.59.72-3.07,1.35-4.44,1.91a11.05,11.05,0,0,1-1.28.52l-1,.41c-.34.14,1.49.79,1.72.81a5,5,0,0,0,2.51-.68c1-.49,2-1.22,3-1.73a5.37,5.37,0,0,1,1.71-.56c1.55-.21,3.06.45,4.61.56a10.1,10.1,0,0,0,5.34-1.35,19.63,19.63,0,0,0,5.2-3.94,13.25,13.25,0,0,1,1.93-1.89c1.89-1.34,4.49-1.24,6.44-2.5,2.43-1.56,3.17-4.74,5-7,1.26-1.62,3.1-2.88,3.67-4.84,1.08-3.65-.85-8.33-.32-12.26A26.9,26.9,0,0,1,115.74,72a17.91,17.91,0,0,1,2.63-2.8c3.73-3.1,8.5-5.15,12.47-8a47.75,47.75,0,0,0,9.86-10,10.62,10.62,0,0,0,1.79-2.9c.48-1.39,0-2.84.35-4.15.49-1.76,2.59-3.66,3.69-5.1a9.78,9.78,0,0,0,1.93-3.42,10.07,10.07,0,0,0-.44-4.88q-1.56-6.12-2.65-12.33c-.6-3.39-.07-7.06-3.73-8.14C143.24,12,143,14.75,143.48,17.39Z"/><path class="cls-24" d="M166.67,26.67l.34.43a7,7,0,0,1,1.23,3.64,10.08,10.08,0,0,1-2.58,7.42c-1.58,1.73-3.68,4.27-3.59,6.79a8.8,8.8,0,0,1-.15,3.32c-.37,1-1.24,1.89-1.37,3s.69,2.35,1,3.56A7,7,0,0,1,160.31,60a20.26,20.26,0,0,1-1.6,2.28q0,.43,0,.84c0,2.48-.75,4.06-.46,4.26s1.77-3.31,2-3.61a19.37,19.37,0,0,0,2-2.7,7.09,7.09,0,0,0,1.23-5.16c-.3-1.21-1.14-2.33-1-3.56s1-1.95,1.36-3A9,9,0,0,0,164,46c-.1-2.51,2-5.06,3.58-6.79a10,10,0,0,0,2.58-7.42,7,7,0,0,0-1.23-3.64C168,26.91,167.24,26.51,166.67,26.67Z"/><path class="cls-25" d="M176.64,58.38a42,42,0,0,0-1.79,5c-.23,2.16-.52,4.53-2.13,6-.48.43-1.05.76-1.5,1.21a5.66,5.66,0,0,0-1.31,2.36c-1,3.17-.67,7.48.2,10.65.49,1.78,1.25,3.59.93,5.4s-1.84,3.46-2.39,5.35c-.63,2.21.13,4.65-.56,6.85-.76,2.42-2.83,3.33-4.51,4.95a25.68,25.68,0,0,0-3.58,4.84c-.9,1.44-2.26,2.88-3.95,2.78-.6,0-1.17-.27-1.76-.25a4.28,4.28,0,0,0-1.89.71c-2.53,1.44-9.35,4.65-10.48,7.67a7.48,7.48,0,0,0-.29,2.22c-.11,2.31-1.06,5-3.28,5.6a4.78,4.78,0,0,0-1.85.63,3,3,0,0,0-.76,1.68,6.32,6.32,0,0,1-1.43,3.11,7.36,7.36,0,0,1-2.09,1.33,55.69,55.69,0,0,1-6.51,2.89c-.91.71-1.82,1.37-2.7,2,4.25-.25,7.29-1.95,11.1-3.79a7,7,0,0,0,2.09-1.33,6.24,6.24,0,0,0,1.43-3.11,3,3,0,0,1,.76-1.68,4.77,4.77,0,0,1,1.85-.62c2.23-.65,3.18-3.3,3.29-5.61a7.16,7.16,0,0,1,.28-2.22c1.14-3,7.95-6.23,10.48-7.67a4.15,4.15,0,0,1,1.89-.7c.59,0,1.17.21,1.76.24,1.69.1,3.05-1.34,3.95-2.77a25.06,25.06,0,0,1,3.58-4.84c1.69-1.63,3.75-2.54,4.51-5,.69-2.2-.07-4.64.57-6.85.54-1.88,2-3.42,2.39-5.34s-.45-3.63-.93-5.41c-.87-3.17-1.2-7.48-.2-10.65a5.71,5.71,0,0,1,1.3-2.36c.46-.45,1-.77,1.5-1.2,1.61-1.46,1.91-3.84,2.14-6,.12-1.19,5-12.91,5.25-12.69C181.8,51.57,179.49,54,176.64,58.38Z"/></g><path class="cls-26" d="M128.81,124.67c2,2,1,5-.82,6.73a6.59,6.59,0,0,1-5.93,1.86,2.94,2.94,0,0,1-2.16-3.35,4.19,4.19,0,0,1-.1-2.38,5.29,5.29,0,0,1,2.47-3C124.28,123.25,127,122.81,128.81,124.67Zm16.3-28.48a12.47,12.47,0,0,0-3.65,5.76,3.13,3.13,0,0,0-.44.64c-2.18,4.18,1,8.66,5.75,7,4.19-1.44,8.61-6.66,8-11.25a4.87,4.87,0,0,0-3.61-4.33C149,93.52,146.77,94.78,145.11,96.19Zm8.37-7.12-.23.4a3.06,3.06,0,0,0-.27,2.22,2.92,2.92,0,0,0,3.59,2,3,3,0,0,0,1.77-1.37l.22-.4a3,3,0,0,0,.28-2.22A3,3,0,0,0,157.46,88a2.9,2.9,0,0,0-2.21-.28A3.05,3.05,0,0,0,153.48,89.07ZM96.13,125.3l-1,.5a2.92,2.92,0,0,0,.75,5.36,3.21,3.21,0,0,0,2.19-.31l1-.5a2.91,2.91,0,0,0-.76-5.35A3.24,3.24,0,0,0,96.13,125.3Zm32.49-33.79c.77-1.94,1.52-4.43.26-6.36a3.82,3.82,0,0,0-4.56-1.53c-2.09.7-2.8,2.15-4.17,3.65a15.77,15.77,0,0,0-3.08,4.12,3.14,3.14,0,0,0-.43.75c-.78,1.9-2.55,4.63-2,6.78s2.92,2.88,4.86,2.49C124,100.52,127.11,95.3,128.62,91.51Zm-16,12.72a3.07,3.07,0,0,0-2.22-.28l-.63.18a2.9,2.9,0,0,0-2,3.59,2.92,2.92,0,0,0,1.37,1.76,3,3,0,0,0,2.22.28l.63-.18a2.9,2.9,0,0,0,2-3.59A2.92,2.92,0,0,0,112.59,104.23Zm35.9,18.38c-1.85,3.27,3.23,6.16,5.08,2.88S150.35,119.33,148.49,122.61Zm-16-92.49c.15,1.57,1,3,2.79,2.9a2.93,2.93,0,0,0,2-.86,4.22,4.22,0,0,0,1.08-2,4.13,4.13,0,0,0-.07-2.18,3.05,3.05,0,0,0-1.37-1.76,3,3,0,0,0-2.22-.28A2.9,2.9,0,0,0,133,27.36,5.29,5.29,0,0,0,132.48,30.12Zm-1.26-7.56a7.75,7.75,0,0,0,1.61-4.62c.15-2.85-1.06-6.84-4.11-7.76a3.51,3.51,0,0,0-4.44,2.29,11.77,11.77,0,0,0,0,7.07c.4,1.32.92,2.92,2.09,3.76A3.54,3.54,0,0,0,131.22,22.56ZM153.57,48.4a2.16,2.16,0,0,0,.24-1.12,2.92,2.92,0,0,0-3-2.88,2.82,2.82,0,0,0-2,.86l-.68.85a2.16,2.16,0,0,0-.62,1,2.12,2.12,0,0,0-.24,1.11,3,3,0,0,0,.86,2,2.92,2.92,0,0,0,2.1.85,2.84,2.84,0,0,0,2-.85l.68-.85A2.16,2.16,0,0,0,153.57,48.4Zm1.85-22.89c-3,0-4.45,3-5,5.53a13.33,13.33,0,0,0,1,8.14c.72,1.68,3.77,1.92,5.26,1.3,2.38-1,3.55-6.34,3.58-8.56C160.3,29,158.8,25.53,155.42,25.51Zm20,23.94c1,2.42-.31,6.2-2,8.11a4.81,4.81,0,0,1-5.58.88c-1.51-.82-1.55-2.74-1.4-4.23.2-2,.18-4.18,1.44-5.81A4.34,4.34,0,0,1,175.42,49.45Zm-5.52,2.07.07,0c0-.11.06-.19,0-.16S169.87,51.45,169.9,51.52Zm-2.1,2.61,0,0,0,0C167.62,54.42,167.63,54.42,167.8,54.13Zm8,22.71-.52.59a3.11,3.11,0,0,0-.85,2.11,2.92,2.92,0,0,0,3,2.88,2.91,2.91,0,0,0,2-.86l.52-.59a3.11,3.11,0,0,0,.85-2.1,3,3,0,0,0-.85-2,2.94,2.94,0,0,0-4.14,0ZM75.32,96.5c-.55-2.33-3.53-2.23-5.42-2.22a10.21,10.21,0,0,0-5.82,1.77A3.41,3.41,0,0,0,63,97.32a.74.74,0,0,0-.13.12c-1.38,1.38-.82,3.9.56,5.12,1.21,1.06,3.82.71,5.28.49C72,102.56,76.27,100.57,75.32,96.5Zm11.43-3.41a2.23,2.23,0,0,0-.6-1,2.93,2.93,0,0,0-1.35-.76,3.9,3.9,0,0,0-2.57,0,4.48,4.48,0,0,0-2.49,2,2.89,2.89,0,0,0-.27.71,2.85,2.85,0,0,0-.29,2.22,3,3,0,0,0,3.6,2,5.55,5.55,0,0,0,1.91-.8,6.92,6.92,0,0,0,1.93-1.92A2.73,2.73,0,0,0,86.75,93.09ZM105,38.15a2.92,2.92,0,1,0-5.09-2.88L99,36.88A2.92,2.92,0,1,0,104,39.76C104.35,39.22,104.65,38.68,105,38.15Zm-.69-11.73a3,3,0,0,1-4.61-1.54,24.09,24.09,0,0,1-1.53-6.73c-.06-2.44,1.45-5.34,4.27-4.91,2.3.35,3.46,3.13,3.93,5.16a11.86,11.86,0,0,1-.16,6.06A2.75,2.75,0,0,1,104.27,26.42Zm-3.78-4.25a.41.41,0,0,1,0-.11l-.07,0C100.33,22.13,100.49,22.16,100.49,22.17ZM78.38,37.09l-.52.6a3.11,3.11,0,0,0-.85,2.1,3,3,0,0,0,.85,2,2.94,2.94,0,0,0,2.11.85,2.9,2.9,0,0,0,2-.85l.51-.6a3.11,3.11,0,0,0,.85-2.1,3,3,0,0,0-.85-2,2.94,2.94,0,0,0-2.11-.85A2.88,2.88,0,0,0,78.38,37.09Zm7.69-3.26a3,3,0,0,1-2.54,1.47c-1.4,0-2.11-.92-3-1.88a10,10,0,0,1-1.39-1.85c-1.23-2.36-1.32-6.36,1.89-7.06a3.76,3.76,0,0,1,5.12.08C88.61,26.92,87.55,31.3,86.07,33.83Zm-.24-6.28a0,0,0,0,0,0,0C85.87,27.14,85.61,27,85.83,27.55Z"/><g class="cls-27"><g class="cls-27"><path class="cls-28" d="M150.72,90.33a.9.9,0,0,0-1.57-.88.9.9,0,0,0,1.57.88Z"/></g><g class="cls-27"><path class="cls-29" d="M158.67,96.44a.9.9,0,0,0-1.57-.89.9.9,0,0,0,1.57.89Z"/></g><g class="cls-27"><path class="cls-30" d="M163.73,85.94a.9.9,0,0,0-1.57-.89.9.9,0,0,0,1.57.89Z"/></g><g class="cls-27"><path class="cls-31" d="M153.54,54.84A.9.9,0,0,0,152,54a.9.9,0,0,0,1.57.89Z"/></g><g class="cls-27"><path class="cls-32" d="M156.32,50.89a.9.9,0,0,0-1.57-.89.9.9,0,0,0,1.57.89Z"/></g><g class="cls-27"><path class="cls-33" d="M151.24,25.55a.9.9,0,0,0-1.57-.89.9.9,0,0,0,1.57.89Z"/></g><g class="cls-27"><path class="cls-34" d="M93.58,125.71a.9.9,0,0,0-1.57-.89.9.9,0,0,0,1.57.89Z"/></g><g class="cls-27"><path class="cls-35" d="M104.28,125.71a.9.9,0,0,0-1.57-.89.9.9,0,0,0,1.57.89Z"/></g><g class="cls-27"><path class="cls-36" d="M132.57,130.87A.9.9,0,0,0,131,130a.9.9,0,0,0,1.57.89Z"/></g><g class="cls-27"><path class="cls-37" d="M133.35,123.82a.9.9,0,0,0-1.57-.89.9.9,0,0,0,1.57.89Z"/></g><g class="cls-27"><path class="cls-38" d="M156.51,120.72a.9.9,0,0,0-1.57-.89.9.9,0,0,0,1.57.89Z"/></g><g class="cls-27"><path class="cls-39" d="M177.88,86.47a.9.9,0,0,0-1.57-.89.9.9,0,0,0,1.57.89Z"/></g><g class="cls-27"><path class="cls-40" d="M183.12,83.2a.9.9,0,0,0-1.57-.89.9.9,0,0,0,1.57.89Z"/></g><g class="cls-27"><path class="cls-41" d="M97.09,40.86A.9.9,0,0,0,95.52,40a.9.9,0,0,0,1.57.89Z"/></g><g class="cls-27"><path class="cls-42" d="M97.4,35a.9.9,0,0,0-1.57-.89A.9.9,0,0,0,97.4,35Z"/></g><g class="cls-27"><path class="cls-43" d="M77.58,99.52A.9.9,0,0,0,76,98.63a.9.9,0,0,0,1.57.89Z"/></g><g class="cls-27"><path class="cls-44" d="M66.92,93.48a.9.9,0,0,0-1.57-.89.9.9,0,0,0,1.57.89Z"/></g><g class="cls-27"><path class="cls-45" d="M85.49,90.28a.9.9,0,0,0-1.57-.89.9.9,0,0,0,1.57.89Z"/></g><g class="cls-27"><path class="cls-46" d="M89.31,91.73a.9.9,0,0,0-1.57-.89.9.9,0,0,0,1.57.89Z"/></g><g class="cls-27"><path class="cls-47" d="M76.45,49a.9.9,0,0,0-1.56-.89.9.9,0,0,0,1.56.89Z"/></g><g class="cls-27"><path class="cls-48" d="M72.23,46a.9.9,0,0,0-1.57-.89.9.9,0,0,0,1.57.89Z"/></g><g class="cls-27"><path class="cls-49" d="M78.24,36.06a.9.9,0,0,0-1.57-.89.9.9,0,0,0,1.57.89Z"/></g><g class="cls-27"><path class="cls-50" d="M77.2,31.91A.9.9,0,0,0,75.63,31a.9.9,0,0,0,1.57.89Z"/></g></g><g class="cls-51"><path class="cls-52" d="M224.92,52.85C218.71,50.92,210,49.46,199,48.52c-5.49-.47-11.42-.79-17.69-1A37.47,37.47,0,0,1,183,53.06c3.51.29,6.88.63,10.09,1,24.6,3.06,30.56,8.27,30.78,10s-4.31,7.76-27.67,14.44c-19.66,5.62-46.24,9.91-74.85,12.07S65.56,92.54,44.85,90c-24.59-3.06-30.56-8.27-30.78-10s4.32-7.75,27.67-14.44q3.38-1,7-1.87l.9-.22a26.27,26.27,0,0,1,.59-4.51C44.79,60,39.64,61.22,34.85,62.47c-10.65,2.77-19,5.67-24.79,8.62C3,74.7-.32,78.43,0,82.49S4.23,89.68,11.84,92c6.22,1.93,14.93,3.38,25.89,4.32,22.28,1.9,51.61,1.5,82.59-1.13,27.43-2.33,53.29-6.16,73.87-10.92q4-.93,7.72-1.89c10.65-2.78,19-5.68,24.79-8.63,7.1-3.61,10.38-7.34,10-11.4h0C236.39,58.33,232.53,55.21,224.92,52.85Z"/></g><g class="cls-51"><path class="cls-53" d="M198.4,2.65h0C196-.1,191.57-.31,184.84,2c-5.51,1.89-12.55,5.45-21,10.57-2,1.21-4,2.51-6.14,3.87a19.69,19.69,0,0,1,4.76,3.3h0C181.87,9,188.93,9.56,190,10.71s1,7.87-12.32,25c-11.2,14.45-28.1,31.59-47.58,48.26s-39.19,30.86-55.48,39.94c-19.35,10.79-26.4,10.18-27.49,9s-1-7.87,12.32-25l.12-.15a29.16,29.16,0,0,1-2.21-3.74c-1.56,1.82-3.06,3.6-4.48,5.34C46.68,117,42.2,123.52,39.58,128.71c-3.21,6.36-3.61,10.78-1.21,13.53s6.83,2.95,13.56.63c5.5-1.89,12.55-5.45,20.95-10.56,17.06-10.4,38-26.19,58.94-44.46C150.37,71.67,167,55.24,179.31,40.93c1.59-1.85,3.12-3.66,4.56-5.44,6.21-7.63,10.69-14.13,13.32-19.32C200.4,9.82,200.79,5.39,198.4,2.65Z"/></g></g></g></g></svg>