<svg xmlns="http://www.w3.org/2000/svg" xmlns:xlink="http://www.w3.org/1999/xlink" viewBox="0 0 222.44 182.77"><defs><style>.cls-1{isolation:isolate;}.cls-2{fill:#babcbf;}.cls-3{fill:#e9ecf0;}.cls-4{fill:url(#Áåçûìÿííûé_ãðàäèåíò_441);}.cls-5{fill:url(#Áåçûìÿííûé_ãðàäèåíò_443);}.cls-6{fill:url(#Áåçûìÿííûé_ãðàäèåíò_443-2);}.cls-7{fill:url(#Áåçûìÿííûé_ãðàäèåíò_443-3);}.cls-8{fill:url(#Áåçûìÿííûé_ãðàäèåíò_443-4);}.cls-9{fill:url(#Áåçûìÿííûé_ãðàäèåíò_443-5);}.cls-10{fill:url(#Áåçûìÿííûé_ãðàäèåíò_443-6);}.cls-11{fill:url(#Áåçûìÿííûé_ãðàäèåíò_443-7);}.cls-12{fill:url(#Áåçûìÿííûé_ãðàäèåíò_443-8);}.cls-13{fill:url(#Áåçûìÿííûé_ãðàäèåíò_443-9);}.cls-14{fill:url(#Áåçûìÿííûé_ãðàäèåíò_443-10);}.cls-15{fill:url(#Áåçûìÿííûé_ãðàäèåíò_443-11);}.cls-16{fill:url(#Áåçûìÿííûé_ãðàäèåíò_443-12);}.cls-17{fill:url(#Áåçûìÿííûé_ãðàäèåíò_443-13);}.cls-18{fill:url(#Áåçûìÿííûé_ãðàäèåíò_443-14);}.cls-19{fill:url(#Áåçûìÿííûé_ãðàäèåíò_441-2);}.cls-20{fill:url(#Áåçûìÿííûé_ãðàäèåíò_443-15);}.cls-21{fill:url(#Áåçûìÿííûé_ãðàäèåíò_443-16);}.cls-22{fill:url(#Áåçûìÿííûé_ãðàäèåíò_443-17);}.cls-23{fill:url(#Áåçûìÿííûé_ãðàäèåíò_443-18);}.cls-24{fill:url(#Áåçûìÿííûé_ãðàäèåíò_443-19);}.cls-25{fill:url(#Áåçûìÿííûé_ãðàäèåíò_443-20);}.cls-26{fill:url(#Áåçûìÿííûé_ãðàäèåíò_443-21);}.cls-27{fill:url(#Áåçûìÿííûé_ãðàäèåíò_443-22);}.cls-28{fill:url(#Áåçûìÿííûé_ãðàäèåíò_443-23);}.cls-29{fill:url(#Áåçûìÿííûé_ãðàäèåíò_443-24);}.cls-30{fill:url(#Áåçûìÿííûé_ãðàäèåíò_443-25);}.cls-31{fill:url(#Áåçûìÿííûé_ãðàäèåíò_443-26);}.cls-32{fill:url(#Áåçûìÿííûé_ãðàäèåíò_443-27);}.cls-33{fill:url(#Áåçûìÿííûé_ãðàäèåíò_443-28);}.cls-34{fill:#779b9b;}.cls-35{fill:#cadfe0;}.cls-36{fill:#669fa1;}.cls-37{fill:#dceaeb;}.cls-38{fill:#bed8d9;}.cls-39{fill:#cde1e2;}.cls-40{fill:#83b4b6;}.cls-41{fill:#d1e3e4;}.cls-42{fill:#adc2c2;}.cls-43{fill:#9fb5c2;}.cls-44{fill:#ddeaeb;}.cls-45{fill:#bed6d7;}.cls-46{fill:#d3e4e5;}.cls-47{fill:#e3eeef;}.cls-48,.cls-54{fill:#c6dbdb;}.cls-48,.cls-53,.cls-83{mix-blend-mode:multiply;}.cls-49{fill:#d5e4e4;}.cls-50{fill:#ebf4f5;}.cls-51{fill:#9d9d9d;}.cls-52{fill:#bcbcbc;}.cls-55{fill:#82b3b9;}.cls-56{fill:#cce0e2;}.cls-57{fill:#a7cacd;}.cls-58{fill:#00a9da;}.cls-59{fill:#0072a9;}.cls-60{fill:#62cae9;}.cls-61{fill:#93bbbd;}.cls-62{fill:#629d9e;}.cls-63{fill:#a6c7c9;}.cls-64{fill:#78aaad;}.cls-65{fill:#8db7b7;}.cls-66{fill:#62cffa;}.cls-67{fill:#ff6154;}.cls-68{fill:#84a9ad;}.cls-69{fill:#c8d7d7;}.cls-70{fill:#a4c6c7;}.cls-71{fill:#d2e3e3;}.cls-72{fill:#b0cece;}.cls-73{fill:#e4eff0;}.cls-74{fill:#87b6b9;}.cls-75{fill:#bcd6d7;}.cls-76{fill:#8bb8ba;}.cls-77{fill:#d4e5e6;}.cls-78{fill:#3e8482;}.cls-79{fill:#3e676e;}.cls-80{fill:#104f46;mix-blend-mode:screen;}.cls-81{fill:#345c5a;}.cls-82{fill:#f0f6f7;}.cls-83{fill:#ecf3f3;}.cls-84{fill:#bad7d9;}.cls-85{fill:#f5f9fa;}.cls-86{fill:#e2f1f2;}.cls-87{fill:#ecf6f7;}.cls-88{fill:#a0c3c5;}.cls-89{fill:#b5d0d2;}.cls-90{fill:#adcbcd;}.cls-91{fill:#7a7e87;}.cls-92{fill:#898d97;}.cls-93{fill:#585a61;}.cls-94{fill:#dce2f2;}.cls-95{fill:#e8eeff;}.cls-96{fill:#a9adba;}.cls-97{fill:#9d9fa1;}.cls-98{fill:#ff8e3d;}.cls-99{fill:url(#Áåçûìÿííûé_ãðàäèåíò_441-3);}.cls-100{fill:url(#Áåçûìÿííûé_ãðàäèåíò_443-29);}.cls-101{fill:url(#Áåçûìÿííûé_ãðàäèåíò_443-30);}.cls-102{fill:url(#Áåçûìÿííûé_ãðàäèåíò_443-31);}.cls-103{fill:url(#Áåçûìÿííûé_ãðàäèåíò_443-32);}.cls-104{fill:url(#Áåçûìÿííûé_ãðàäèåíò_443-33);}.cls-105{fill:url(#Áåçûìÿííûé_ãðàäèåíò_443-34);}.cls-106{fill:url(#Áåçûìÿííûé_ãðàäèåíò_443-35);}.cls-107{fill:url(#Áåçûìÿííûé_ãðàäèåíò_443-36);}.cls-108{fill:url(#Áåçûìÿííûé_ãðàäèåíò_443-37);}.cls-109{fill:url(#Áåçûìÿííûé_ãðàäèåíò_443-38);}.cls-110{fill:url(#Áåçûìÿííûé_ãðàäèåíò_443-39);}.cls-111{fill:url(#Áåçûìÿííûé_ãðàäèåíò_443-40);}.cls-112{fill:url(#Áåçûìÿííûé_ãðàäèåíò_443-41);}.cls-113{fill:url(#Áåçûìÿííûé_ãðàäèåíò_443-42);}.cls-114{fill:url(#Áåçûìÿííûé_ãðàäèåíò_441-4);}.cls-115{fill:url(#Áåçûìÿííûé_ãðàäèåíò_443-43);}.cls-116{fill:url(#Áåçûìÿííûé_ãðàäèåíò_443-44);}.cls-117{fill:url(#Áåçûìÿííûé_ãðàäèåíò_443-45);}.cls-118{fill:url(#Áåçûìÿííûé_ãðàäèåíò_443-46);}.cls-119{fill:url(#Áåçûìÿííûé_ãðàäèåíò_443-47);}.cls-120{fill:url(#Áåçûìÿííûé_ãðàäèåíò_443-48);}.cls-121{fill:url(#Áåçûìÿííûé_ãðàäèåíò_443-49);}.cls-122{fill:url(#Áåçûìÿííûé_ãðàäèåíò_443-50);}.cls-123{fill:url(#Áåçûìÿííûé_ãðàäèåíò_443-51);}.cls-124{fill:url(#Áåçûìÿííûé_ãðàäèåíò_443-52);}.cls-125{fill:url(#Áåçûìÿííûé_ãðàäèåíò_443-53);}.cls-126{fill:url(#Áåçûìÿííûé_ãðàäèåíò_443-54);}.cls-127{fill:url(#Áåçûìÿííûé_ãðàäèåíò_443-55);}.cls-128{fill:url(#Áåçûìÿííûé_ãðàäèåíò_443-56);}.cls-129{fill:#c4a243;}.cls-130{fill:#ceab47;}.cls-131{fill:#9e8636;}.cls-132{fill:#e6c560;}.cls-133{fill:#ac983f;}.cls-134{fill:#c9af4f;}.cls-135{fill:#e8d765;}.cls-136{fill:#e5d464;}.cls-137{fill:#f4e26b;}.cls-138{fill:#ffec6f;}.cls-139{fill:#6dd4ec;}.cls-140{fill:#9afff6;}.cls-141{fill:#2b3f59;}.cls-142{fill:#88b6b8;}.cls-143{fill:#536378;}.cls-144{fill:#cfe8e9;}.cls-145{fill:#5ec7eb;}</style><linearGradient id="Áåçûìÿííûé_ãðàäèåíò_441" x1="164.59" y1="109.9" x2="136.69" y2="-16.06" gradientTransform="translate(30.25)" gradientUnits="userSpaceOnUse"><stop offset="0" stop-color="#101426"/><stop offset="0.08" stop-color="#1a1e30"/><stop offset="0.74" stop-color="#6d6f82"/></linearGradient><linearGradient id="Áåçûìÿííûé_ãðàäèåíò_443" x1="138.23" y1="30.27" x2="132.63" y2="4.99" gradientTransform="translate(30.25)" gradientUnits="userSpaceOnUse"><stop offset="0" stop-color="#101426"/><stop offset="0.19" stop-color="#15192b"/><stop offset="0.41" stop-color="#222638"/><stop offset="0.64" stop-color="#393c4f"/><stop offset="0.87" stop-color="#595b6e"/><stop offset="1" stop-color="#6d6f82"/></linearGradient><linearGradient id="Áåçûìÿííûé_ãðàäèåíò_443-2" x1="141.01" y1="33.95" x2="135.41" y2="8.68" xlink:href="#Áåçûìÿííûé_ãðàäèåíò_443"/><linearGradient id="Áåçûìÿííûé_ãðàäèåíò_443-3" x1="143.79" y1="37.64" x2="138.19" y2="12.36" xlink:href="#Áåçûìÿííûé_ãðàäèåíò_443"/><linearGradient id="Áåçûìÿííûé_ãðàäèåíò_443-4" x1="146.57" y1="41.33" x2="140.97" y2="16.05" xlink:href="#Áåçûìÿííûé_ãðàäèåíò_443"/><linearGradient id="Áåçûìÿííûé_ãðàäèåíò_443-5" x1="149.35" y1="45.01" x2="143.75" y2="19.74" xlink:href="#Áåçûìÿííûé_ãðàäèåíò_443"/><linearGradient id="Áåçûìÿííûé_ãðàäèåíò_443-6" x1="152.13" y1="48.7" x2="146.53" y2="23.42" xlink:href="#Áåçûìÿííûé_ãðàäèåíò_443"/><linearGradient id="Áåçûìÿííûé_ãðàäèåíò_443-7" x1="154.91" y1="52.38" x2="149.31" y2="27.11" xlink:href="#Áåçûìÿííûé_ãðàäèåíò_443"/><linearGradient id="Áåçûìÿííûé_ãðàäèåíò_443-8" x1="157.69" y1="56.07" x2="152.09" y2="30.8" xlink:href="#Áåçûìÿííûé_ãðàäèåíò_443"/><linearGradient id="Áåçûìÿííûé_ãðàäèåíò_443-9" x1="160.47" y1="59.76" x2="154.87" y2="34.48" xlink:href="#Áåçûìÿííûé_ãðàäèåíò_443"/><linearGradient id="Áåçûìÿííûé_ãðàäèåíò_443-10" x1="163.25" y1="63.44" x2="157.65" y2="38.17" xlink:href="#Áåçûìÿííûé_ãðàäèåíò_443"/><linearGradient id="Áåçûìÿííûé_ãðàäèåíò_443-11" x1="139.44" y1="35.68" x2="165.99" y2="19.56" xlink:href="#Áåçûìÿííûé_ãðàäèåíò_443"/><linearGradient id="Áåçûìÿííûé_ãðàäèåíò_443-12" x1="131.72" y1="40.16" x2="158.27" y2="24.04" xlink:href="#Áåçûìÿííûé_ãðàäèåíò_443"/><linearGradient id="Áåçûìÿííûé_ãðàäèåíò_443-13" x1="123.99" y1="44.64" x2="150.55" y2="28.52" xlink:href="#Áåçûìÿííûé_ãðàäèåíò_443"/><linearGradient id="Áåçûìÿííûé_ãðàäèåíò_443-14" x1="116.27" y1="49.11" x2="142.83" y2="32.99" xlink:href="#Áåçûìÿííûé_ãðàäèåíò_443"/><linearGradient id="Áåçûìÿííûé_ãðàäèåíò_441-2" x1="128.23" y1="130.89" x2="100.33" y2="4.93" xlink:href="#Áåçûìÿííûé_ãðàäèåíò_441"/><linearGradient id="Áåçûìÿííûé_ãðàäèåíò_443-15" x1="101.87" y1="51.26" x2="96.27" y2="25.99" xlink:href="#Áåçûìÿííûé_ãðàäèåíò_443"/><linearGradient id="Áåçûìÿííûé_ãðàäèåíò_443-16" x1="104.65" y1="54.95" x2="99.05" y2="29.67" xlink:href="#Áåçûìÿííûé_ãðàäèåíò_443"/><linearGradient id="Áåçûìÿííûé_ãðàäèåíò_443-17" x1="107.43" y1="58.63" x2="101.83" y2="33.36" xlink:href="#Áåçûìÿííûé_ãðàäèåíò_443"/><linearGradient id="Áåçûìÿííûé_ãðàäèåíò_443-18" x1="110.21" y1="62.32" x2="104.61" y2="37.04" xlink:href="#Áåçûìÿííûé_ãðàäèåíò_443"/><linearGradient id="Áåçûìÿííûé_ãðàäèåíò_443-19" x1="112.99" y1="66" x2="107.39" y2="40.73" xlink:href="#Áåçûìÿííûé_ãðàäèåíò_443"/><linearGradient id="Áåçûìÿííûé_ãðàäèåíò_443-20" x1="115.77" y1="69.69" x2="110.17" y2="44.42" xlink:href="#Áåçûìÿííûé_ãðàäèåíò_443"/><linearGradient id="Áåçûìÿííûé_ãðàäèåíò_443-21" x1="118.55" y1="73.38" x2="112.95" y2="48.1" xlink:href="#Áåçûìÿííûé_ãðàäèåíò_443"/><linearGradient id="Áåçûìÿííûé_ãðàäèåíò_443-22" x1="121.33" y1="77.06" x2="115.73" y2="51.79" xlink:href="#Áåçûìÿííûé_ãðàäèåíò_443"/><linearGradient id="Áåçûìÿííûé_ãðàäèåíò_443-23" x1="124.11" y1="80.75" x2="118.51" y2="55.47" xlink:href="#Áåçûìÿííûé_ãðàäèåíò_443"/><linearGradient id="Áåçûìÿííûé_ãðàäèåíò_443-24" x1="126.89" y1="84.43" x2="121.29" y2="59.16" xlink:href="#Áåçûìÿííûé_ãðàäèåíò_443"/><linearGradient id="Áåçûìÿííûé_ãðàäèåíò_443-25" x1="103.08" y1="56.68" x2="129.63" y2="40.56" xlink:href="#Áåçûìÿííûé_ãðàäèåíò_443"/><linearGradient id="Áåçûìÿííûé_ãðàäèåíò_443-26" x1="95.36" y1="61.15" x2="121.91" y2="45.03" xlink:href="#Áåçûìÿííûé_ãðàäèåíò_443"/><linearGradient id="Áåçûìÿííûé_ãðàäèåíò_443-27" x1="87.63" y1="65.63" x2="114.19" y2="49.51" xlink:href="#Áåçûìÿííûé_ãðàäèåíò_443"/><linearGradient id="Áåçûìÿííûé_ãðàäèåíò_443-28" x1="79.91" y1="70.11" x2="106.47" y2="53.99" xlink:href="#Áåçûìÿííûé_ãðàäèåíò_443"/><linearGradient id="Áåçûìÿííûé_ãðàäèåíò_441-3" x1="57.8" y1="171.75" x2="29.9" y2="45.79" xlink:href="#Áåçûìÿííûé_ãðàäèåíò_441"/><linearGradient id="Áåçûìÿííûé_ãðàäèåíò_443-29" x1="31.44" y1="92.12" x2="25.85" y2="66.84" xlink:href="#Áåçûìÿííûé_ãðàäèåíò_443"/><linearGradient id="Áåçûìÿííûé_ãðàäèåíò_443-30" x1="34.22" y1="95.8" x2="28.63" y2="70.53" xlink:href="#Áåçûìÿííûé_ãðàäèåíò_443"/><linearGradient id="Áåçûìÿííûé_ãðàäèåíò_443-31" x1="37" y1="99.49" x2="31.41" y2="74.22" xlink:href="#Áåçûìÿííûé_ãðàäèåíò_443"/><linearGradient id="Áåçûìÿííûé_ãðàäèåíò_443-32" x1="39.78" y1="103.18" x2="34.18" y2="77.9" xlink:href="#Áåçûìÿííûé_ãðàäèåíò_443"/><linearGradient id="Áåçûìÿííûé_ãðàäèåíò_443-33" x1="42.56" y1="106.86" x2="36.96" y2="81.59" xlink:href="#Áåçûìÿííûé_ãðàäèåíò_443"/><linearGradient id="Áåçûìÿííûé_ãðàäèåíò_443-34" x1="45.34" y1="110.55" x2="39.74" y2="85.27" xlink:href="#Áåçûìÿííûé_ãðàäèåíò_443"/><linearGradient id="Áåçûìÿííûé_ãðàäèåíò_443-35" x1="48.12" y1="114.23" x2="42.52" y2="88.96" xlink:href="#Áåçûìÿííûé_ãðàäèåíò_443"/><linearGradient id="Áåçûìÿííûé_ãðàäèåíò_443-36" x1="50.9" y1="117.92" x2="45.3" y2="92.65" xlink:href="#Áåçûìÿííûé_ãðàäèåíò_443"/><linearGradient id="Áåçûìÿííûé_ãðàäèåíò_443-37" x1="53.68" y1="121.61" x2="48.08" y2="96.33" xlink:href="#Áåçûìÿííûé_ãðàäèåíò_443"/><linearGradient id="Áåçûìÿííûé_ãðàäèåíò_443-38" x1="56.46" y1="125.29" x2="50.86" y2="100.02" xlink:href="#Áåçûìÿííûé_ãðàäèåíò_443"/><linearGradient id="Áåçûìÿííûé_ãðàäèåíò_443-39" x1="32.65" y1="97.53" x2="59.2" y2="81.42" xlink:href="#Áåçûìÿííûé_ãðàäèåíò_443"/><linearGradient id="Áåçûìÿííûé_ãðàäèåíò_443-40" x1="24.93" y1="102.01" x2="51.48" y2="85.89" xlink:href="#Áåçûìÿííûé_ãðàäèåíò_443"/><linearGradient id="Áåçûìÿííûé_ãðàäèåíò_443-41" x1="17.21" y1="106.49" x2="43.76" y2="90.37" xlink:href="#Áåçûìÿííûé_ãðàäèåíò_443"/><linearGradient id="Áåçûìÿííûé_ãðàäèåíò_443-42" x1="9.48" y1="110.96" x2="36.04" y2="94.84" xlink:href="#Áåçûìÿííûé_ãðàäèåíò_443"/><linearGradient id="Áåçûìÿííûé_ãðàäèåíò_441-4" x1="21.44" y1="192.74" x2="-6.46" y2="66.78" xlink:href="#Áåçûìÿííûé_ãðàäèåíò_441"/><linearGradient id="Áåçûìÿííûé_ãðàäèåíò_443-43" x1="-4.92" y1="113.11" x2="-10.51" y2="87.84" xlink:href="#Áåçûìÿííûé_ãðàäèåíò_443"/><linearGradient id="Áåçûìÿííûé_ãðàäèåíò_443-44" x1="-2.14" y1="116.8" x2="-7.73" y2="91.52" xlink:href="#Áåçûìÿííûé_ãðàäèåíò_443"/><linearGradient id="Áåçûìÿííûé_ãðàäèåíò_443-45" x1="0.64" y1="120.48" x2="-4.96" y2="95.21" xlink:href="#Áåçûìÿííûé_ãðàäèåíò_443"/><linearGradient id="Áåçûìÿííûé_ãðàäèåíò_443-46" x1="3.42" y1="124.17" x2="-2.18" y2="98.89" xlink:href="#Áåçûìÿííûé_ãðàäèåíò_443"/><linearGradient id="Áåçûìÿííûé_ãðàäèåíò_443-47" x1="6.2" y1="127.85" x2="0.6" y2="102.58" xlink:href="#Áåçûìÿííûé_ãðàäèåíò_443"/><linearGradient id="Áåçûìÿííûé_ãðàäèåíò_443-48" x1="8.98" y1="131.54" x2="3.38" y2="106.27" xlink:href="#Áåçûìÿííûé_ãðàäèåíò_443"/><linearGradient id="Áåçûìÿííûé_ãðàäèåíò_443-49" x1="11.76" y1="135.23" x2="6.16" y2="109.95" xlink:href="#Áåçûìÿííûé_ãðàäèåíò_443"/><linearGradient id="Áåçûìÿííûé_ãðàäèåíò_443-50" x1="14.54" y1="138.91" x2="8.94" y2="113.64" xlink:href="#Áåçûìÿííûé_ãðàäèåíò_443"/><linearGradient id="Áåçûìÿííûé_ãðàäèåíò_443-51" x1="17.32" y1="142.6" x2="11.72" y2="117.32" xlink:href="#Áåçûìÿííûé_ãðàäèåíò_443"/><linearGradient id="Áåçûìÿííûé_ãðàäèåíò_443-52" x1="20.1" y1="146.29" x2="14.5" y2="121.01" xlink:href="#Áåçûìÿííûé_ãðàäèåíò_443"/><linearGradient id="Áåçûìÿííûé_ãðàäèåíò_443-53" x1="-3.71" y1="118.53" x2="22.84" y2="102.41" xlink:href="#Áåçûìÿííûé_ãðàäèåíò_443"/><linearGradient id="Áåçûìÿííûé_ãðàäèåíò_443-54" x1="-11.43" y1="123" x2="15.12" y2="106.88" xlink:href="#Áåçûìÿííûé_ãðàäèåíò_443"/><linearGradient id="Áåçûìÿííûé_ãðàäèåíò_443-55" x1="-19.15" y1="127.48" x2="7.4" y2="111.36" xlink:href="#Áåçûìÿííûé_ãðàäèåíò_443"/><linearGradient id="Áåçûìÿííûé_ãðàäèåíò_443-56" x1="-26.88" y1="131.96" x2="-0.32" y2="115.84" xlink:href="#Áåçûìÿííûé_ãðàäèåíò_443"/></defs><title>satelite</title><g class="cls-1"><g id="Camada_2" data-name="Camada 2"><g id="Layer_1" data-name="Layer 1"><polygon class="cls-2" points="143.15 20.24 176.31 0.97 208.15 43.2 174.99 62.47 143.15 20.24"/><polygon class="cls-3" points="144.81 19.27 177.97 0 209.82 42.23 176.65 61.5 144.81 19.27"/><polygon class="cls-4" points="177.41 2.81 147.97 19.91 177.22 58.69 206.65 41.59 177.41 2.81"/><polygon class="cls-5" points="150.05 22.67 150.45 23.2 179.89 6.1 179.49 5.57 150.05 22.67"/><polygon class="cls-6" points="152.83 26.36 153.23 26.89 182.67 9.79 182.26 9.25 152.83 26.36"/><polygon class="cls-7" points="155.61 30.04 156.01 30.58 185.44 13.47 185.04 12.94 155.61 30.04"/><polygon class="cls-8" points="158.39 33.73 158.79 34.26 188.22 17.16 187.82 16.63 158.39 33.73"/><polygon class="cls-9" points="161.17 37.42 161.57 37.95 191 20.84 190.6 20.31 161.17 37.42"/><polygon class="cls-10" points="163.95 41.1 164.35 41.63 193.78 24.53 193.38 24 163.95 41.1"/><polygon class="cls-11" points="166.73 44.79 167.13 45.32 196.56 28.22 196.16 27.68 166.73 44.79"/><polygon class="cls-12" points="169.51 48.47 169.91 49.01 199.34 31.9 198.94 31.37 169.51 48.47"/><polygon class="cls-13" points="172.29 52.16 172.69 52.69 202.12 35.59 201.72 35.06 172.29 52.16"/><polygon class="cls-14" points="175.07 55.85 175.47 56.38 204.9 39.27 204.5 38.74 175.07 55.85"/><polygon class="cls-15" points="203.82 43.23 204.49 42.84 175.25 4.05 174.57 4.44 203.82 43.23"/><polygon class="cls-16" points="196.09 47.7 196.77 47.31 167.52 8.53 166.85 8.92 196.09 47.7"/><polygon class="cls-17" points="188.37 52.18 189.04 51.79 159.8 13.01 159.13 13.4 188.37 52.18"/><polygon class="cls-18" points="180.65 56.66 181.32 56.27 152.08 17.48 151.41 17.87 180.65 56.66"/><polygon class="cls-2" points="106.79 41.23 139.95 21.96 171.79 64.19 138.63 83.46 106.79 41.23"/><polygon class="cls-3" points="108.45 40.26 141.62 20.99 173.46 63.22 140.29 82.49 108.45 40.26"/><polygon class="cls-19" points="141.05 23.8 111.61 40.9 140.86 79.69 170.29 62.58 141.05 23.8"/><polygon class="cls-20" points="113.69 43.66 114.09 44.2 143.53 27.09 143.13 26.56 113.69 43.66"/><polygon class="cls-21" points="116.47 47.35 116.87 47.88 146.31 30.78 145.9 30.25 116.47 47.35"/><polygon class="cls-22" points="119.25 51.04 119.65 51.57 149.09 34.47 148.68 33.93 119.25 51.04"/><polygon class="cls-23" points="122.03 54.72 122.43 55.25 151.86 38.15 151.46 37.62 122.03 54.72"/><polygon class="cls-24" points="124.81 58.41 125.21 58.94 154.64 41.84 154.24 41.3 124.81 58.41"/><polygon class="cls-25" points="127.59 62.09 127.99 62.63 157.42 45.52 157.02 44.99 127.59 62.09"/><polygon class="cls-26" points="130.37 65.78 130.77 66.31 160.2 49.21 159.8 48.68 130.37 65.78"/><polygon class="cls-27" points="133.15 69.47 133.55 70 162.98 52.9 162.58 52.36 133.15 69.47"/><polygon class="cls-28" points="135.93 73.15 136.33 73.69 165.76 56.58 165.36 56.05 135.93 73.15"/><polygon class="cls-29" points="138.71 76.84 139.11 77.37 168.54 60.27 168.14 59.73 138.71 76.84"/><polygon class="cls-30" points="167.46 64.22 168.13 63.83 138.88 25.05 138.21 25.44 167.46 64.22"/><polygon class="cls-31" points="159.74 68.7 160.41 68.31 131.16 29.52 130.49 29.91 159.74 68.7"/><polygon class="cls-32" points="152.01 73.17 152.69 72.78 123.44 34 122.77 34.39 152.01 73.17"/><polygon class="cls-33" points="144.29 77.65 144.96 77.26 115.72 38.48 115.05 38.87 144.29 77.65"/><path class="cls-34" d="M181.81,82.72s-.58,1.07,1.34,3.78,4.66,4.33,10,4.75,9.8,8.12,12.88,2.66-3.27-15.72-7.45-15S182.62,75.64,181.81,82.72Z"/><path class="cls-35" d="M186.34,116.06c-.56.47-3.09,2.24-3.24,3s-4.32,5.82-5.83,6.14a4.7,4.7,0,0,1-1,.06c-1.8-.07-4.51-.94-4.44-2.45,0-1-.46-1.55,0-2.61a10.64,10.64,0,0,1,1-1.78,17.53,17.53,0,0,1,3.15-3.59,5.65,5.65,0,0,0,1.53-2l.16-.36a6.39,6.39,0,0,0,.27-.8l3.08.13,2.25.09,1.23.05,1.1,0s.11.29.24.71c.06.2.14.43.21.68C186.36,114.44,186.67,115.79,186.34,116.06Z"/><path class="cls-36" d="M182.88,117.62c-.16.74-4.33,5.82-5.83,6.14-1.24.26-4.58-.41-5.22-1.55a2.44,2.44,0,0,1,0,.55c-.08,1.83,3.91,2.71,5.41,2.39s5.67-5.4,5.83-6.14,2.68-2.48,3.24-3c.23-.19.21-.87,0-1.58C185.79,115,183,116.91,182.88,117.62Z"/><path class="cls-35" d="M200.69,123.48c-.33.72-.48,2.66-.94,4a15.41,15.41,0,0,1-4.32,5.65l-.38.25a4,4,0,0,1-.84.34,11,11,0,0,1-6.56-.66c-.6-.34-.83-2.83-.48-4.25.29-1.17,3.69-5.58,4.87-7.08l.24-.3.15-.21s2.85-2,5.11-3.36a10.34,10.34,0,0,1,2.34-1.13h0c.91-.17,1.42.6,1.74,1.55a9.13,9.13,0,0,1,.26,1,13.88,13.88,0,0,0,.37,1.8C202.75,121.81,201,122.75,200.69,123.48Z"/><path class="cls-36" d="M202,119.94c-.27.6-1.34,1.28-1.59,1.83-.33.72-.48,2.66-.94,4s-2.8,4.81-4.7,5.9-6,.45-7.4-.32a1,1,0,0,1-.36-.58c0,1.08.27,2.08.63,2.29,1.38.76,5.49,1.42,7.4.32s4.25-4.54,4.7-5.9.61-3.3.94-4,2.06-1.67,1.57-2.35A5,5,0,0,1,202,119.94Z"/><path class="cls-37" d="M197,124.65s-.76,3.21-3,4.62-5.93.47-6.49-.08,1.5-2.84,2.63-4.35,2-1.69,2-1.69S192.86,124.53,197,124.65Z"/><path class="cls-37" d="M181.4,115.26s-1.81,2.43-4.16,5.28c-.91,1.1-4.22.93-4.77.38s.82-2.2,2-3.71S177,114,177,114,177.25,115.15,181.4,115.26Z"/><path class="cls-38" d="M222.44,69.39c-.18,2.65-4.55,5.49-5.71,5.73-3.79.76-10.8-.62-10.8-.62L189.24,36.26l-1.75-3.86c.11-.36,2.16-4.79,8.38-3.44,1.79.39,3.24.32,5.61.66a50.88,50.88,0,0,1,11.15,3.07C214.27,37.49,222.59,67.16,222.44,69.39Z"/><path class="cls-39" d="M219,62.61s-.52,3.3-1.25,4.34A3.93,3.93,0,0,1,216,68.36s.74,4.7.79,5,1.72,1,3.7-1.52,1.45-3.33,1.45-3.33l-2-7.4Z"/><path class="cls-40" d="M212.84,41c-2.78-11.38-7-33.78-7.78-37.73a.61.61,0,0,1,.49-.71h0a.6.6,0,0,1,.71.48C207,7,211.25,29.35,214,40.7Z"/><path class="cls-41" d="M217,42c.17,1.36-3.76,5-7.33,6.6s-.1,30-.1,30L189.83,35.11l-1.82-4c.12-.38,2.24-5,8.68-3.57,1.85.4,3.36.34,5.81.68A53.08,53.08,0,0,1,214,31.42,60.5,60.5,0,0,1,217,42Z"/><polygon class="cls-42" points="215.68 33.84 214.69 43.44 213.74 43.23 211.5 36.46 214.73 33.63 215.68 33.84"/><polygon class="cls-37" points="217.92 40.61 214.69 43.44 212.45 36.67 215.68 33.84 217.92 40.61"/><path class="cls-43" d="M216.73,75.12c-3.65,1.63-10.83-1-10.83-1l-16.07-39,.62-.21c8.5-2.69,17.3,2.23,17.3,2.23Z"/><path class="cls-41" d="M213.55,32.92l-4.18,4.28a3.66,3.66,0,0,1-3.61,1,60.69,60.69,0,0,0-7-1.6c-2.21-.33,3-6.84,3.72-8.33,3.7.54,7.59,1.18,10.16,1.72A1.77,1.77,0,0,1,213.55,32.92Z"/><path class="cls-44" d="M213,32.4l-3.77,3.33a3.7,3.7,0,0,1-3.21.79,60.47,60.47,0,0,0-6.13-1.08c-1.94-.21,2.83-5.24,3.45-6.39,3.26.34,6.67.75,8.93,1.11A1.26,1.26,0,0,1,213,32.4Z"/><path class="cls-45" d="M218.61,46.23a2.83,2.83,0,0,1-.66,3.2c-.8.65-2.31,0-2.81-1.17a3,3,0,0,1,.56-3.3C216.5,44.31,218.12,45.06,218.61,46.23Z"/><path class="cls-37" d="M218.91,46.28a2.67,2.67,0,0,1-.49,2.92c-.71.57-1.64.19-2.07-.84a2.61,2.61,0,0,1,.49-2.91C217.55,44.87,218.47,45.25,218.91,46.28Z"/><path class="cls-46" d="M200,73.77c.4,2.4-1.6,7.19-3.41,10.56a26.12,26.12,0,0,1-1.8,2.94c-1.82,2.46-6,8.84-6.15,10s-1.36,6.28-1.32,8.7-.35,6-.35,6a4.71,4.71,0,0,1-.87,1.38A4.17,4.17,0,0,1,182,114.6h0c-3.69-.75-3.92-1.56-4.23-2.13h0c-.32-.57.08-2.68-.37-4.08s.4-14.79,1-17.24,6.29-12.2,7.39-14.77,5.07-6.62,5.07-6.62S199.4,70.5,200,73.77Z"/><path class="cls-47" d="M190,83.47s-6.22,8-6.64,12.19-1,15.44-1.75,17.07l-.74,1.63s-2-.31-2.62-1.1-1.24-14.4,0-17.87,1.17-5.82,5.31-12.71C187.93,81.9,190,83.47,190,83.47Z"/><path class="cls-48" d="M196.55,84.33a26.12,26.12,0,0,1-1.8,2.94c-1.82,2.46-6,8.84-6.15,10s-1.36,6.28-1.32,8.7-.35,6-.35,6a4.71,4.71,0,0,1-.87,1.38c.3,1.07.61,2.42.28,2.69-.56.47-3.09,2.24-3.24,3s-4.32,5.82-5.83,6.14a4.7,4.7,0,0,1-1,.06,24.77,24.77,0,0,1-.48-2.75c-.14-1.34,4-5.19,5.58-7.2l.51-.67a7.68,7.68,0,0,0,1.37-2.71,26.79,26.79,0,0,0,.73-4.66c.49-5.28.48-9.55,2.08-13.1s5.47-10,5.47-10C195.06,77.79,196.16,79.12,196.55,84.33Z"/><path class="cls-49" d="M208.22,74.57c-.11,1.19.45,7.29-.67,12.85a17.61,17.61,0,0,1-2.08,5.7c-3.72,6-3.21,7.53-3.45,9.18a14.94,14.94,0,0,0-.37,4.68c.12,3,0,9.1.07,10.45a4.59,4.59,0,0,1-.09.87,4.89,4.89,0,0,1-2.15,3.22,6.45,6.45,0,0,1-2.14.93,5.65,5.65,0,0,1-3-.11,8.85,8.85,0,0,1-2-.89,3.72,3.72,0,0,1-1.65-2.39c-.46-1.43-.59-10.44-.77-14.77s.54-9.15,1.32-11.05,3-8.66,3-8.66.43-3.12.47-3.63a7,7,0,0,1,1.66-4.4c1.71-2.16,9.9-4.81,10.65-4.46S208.37,73,208.22,74.57Z"/><path class="cls-47" d="M194.31,87.08s-3.16,6.62-3.4,10,0,10.91.19,14.88a52,52,0,0,0,.81,8.3c.37,1.18,2,1.81,3.1,2.07,0,0-.61-14.7-.32-17.64s1.2-9.38,3.21-12.42,3.29-4.75,3.29-4.75A7.8,7.8,0,0,0,194.31,87.08Z"/><path class="cls-48" d="M207.55,87.42a17.61,17.61,0,0,1-2.08,5.7c-3.72,6-3.21,7.53-3.45,9.18a14.94,14.94,0,0,0-.37,4.68c.12,3,0,9.1.07,10.45a4.59,4.59,0,0,1-.09.87,9.13,9.13,0,0,1,.26,1,13.88,13.88,0,0,0,.37,1.8c.49.68-1.24,1.62-1.57,2.35s-.48,2.66-.94,4a15.41,15.41,0,0,1-4.32,5.65l-.38.25a4,4,0,0,1-.84.34,31.11,31.11,0,0,1-.17-4.47c.1-2.15,2.3-5.14,3.3-6.82a3.34,3.34,0,0,0,.48-1.08c0-.28-.13-1.6-.28-3.49-.35-4.53-.76-12.34.76-16.86a78.43,78.43,0,0,1,5.35-12C205.23,87.39,206.52,87,207.55,87.42Z"/><path class="cls-37" d="M212.39,80.81C211,85.72,206,93.91,206,93.91a13.19,13.19,0,0,0-1.88-4.29,8.48,8.48,0,0,0-3.51-3,7.37,7.37,0,0,0-8.09.87,2,2,0,0,0-.08-1.53s-1.63-6.56-10.64-3.2c.17-6.08,5.66-10,5.66-10s11.45,1.06,15.77.82c2.6-.15,5.09-.26,6.66-.33l1.68-.07S213.78,75.91,212.39,80.81Z"/><path class="cls-48" d="M212.39,80.81C211,85.72,206,93.91,206,93.91a13.19,13.19,0,0,0-1.88-4.29,7,7,0,0,1,1.25-1.33c-.24-1,1.37-2.61,2.55-4.55s2.39-7.22,2.39-7.22c-.21-1.24-.35-2.32-.42-3.26l1.68-.07S213.78,75.91,212.39,80.81Z"/><path class="cls-36" d="M207,92.22c0-1-1.77-5.42-5.41-7a7.36,7.36,0,0,0-8.08.87,2,2,0,0,0-.09-1.53s-2.14-6.72-11.15-3.37c0-.4-.93,1.07-.46,1.56,9-3.36,10.64,3.2,10.64,3.2a2,2,0,0,1,.08,1.53,7.37,7.37,0,0,1,8.09-.87c4.29,1.91,5.39,7.33,5.39,7.33S206.4,93.26,207,92.22Z"/><path class="cls-39" d="M214.3,46.88,211.14,49s3.51,13.73,3.71,14.28-.28.74.35.36,2.29-4,2.45-5.39c.25-2.33-1.32-7.31-1.32-7.31A18.19,18.19,0,0,1,214.3,46.88Z"/><path class="cls-35" d="M188,55.49a7.62,7.62,0,0,1-.6,3.12c-.1.21-.24.43-.33.65a3.94,3.94,0,0,0-.13.7,10.51,10.51,0,0,1-.4,1.46,9.47,9.47,0,0,1-1.46,2.64,2.32,2.32,0,0,1-1.22.81c-.25.08-.51.14-.77.2-.48.09-.91.3-1.4.4a20.85,20.85,0,0,1-2.58.57c-.62,0-1.24.06-1.86.08l-2.92.09a14,14,0,0,1-1.83,0c-.44,0-.89-.13-1.34-.13a2.13,2.13,0,0,1-1.27-.4,1.09,1.09,0,0,1-.36-1,4,4,0,0,1,0-.51c.1-.63,0-1.31,0-1.95s0-1.73.6-2.14a2.44,2.44,0,0,1,.82-.29c1.38-.27,2.78-.28,4.17-.45a18.65,18.65,0,0,0,4.43-1.09.75.75,0,0,0,.2-.1.72.72,0,0,0,.17-.41c.05-.32.1-.64.17-.95s.12-.59.19-.88q.2-.87.48-1.74a3.25,3.25,0,0,1,.33-.77,2,2,0,0,0,.34-.54c.13-.48.14-1,.25-1.52a7.6,7.6,0,0,1,1.34-3.23C186,47.62,188,51.79,188,55.49Z"/><path class="cls-50" d="M170.94,60.19s1.15.52,1.29,1.18a12.21,12.21,0,0,1,.05,2.28s3.85.1,4.93-.78,1.17-1.49,2-2l1.71-1s-.15-1.51-.88-1.54-2.3,1.63-5.15,1.62S171.46,60,170.94,60.19Z"/><path class="cls-48" d="M188,55.49a7.62,7.62,0,0,1-.6,3.12c-.1.21-.24.43-.33.65a3.94,3.94,0,0,0-.13.7,10.51,10.51,0,0,1-.4,1.46,9.47,9.47,0,0,1-1.46,2.64,2.32,2.32,0,0,1-1.22.81c-.25.08-.51.14-.77.2-.48.09-.91.3-1.4.4a20.85,20.85,0,0,1-2.58.57c-.62,0-1.24.06-1.86.08l-2.92.09a14,14,0,0,1-1.83,0c-.44,0-.89-.13-1.34-.13a2.13,2.13,0,0,1-1.27-.4,1.09,1.09,0,0,1-.36-1c2.16.59,5.21.32,7,.22S178.3,63,179,62.6s3.59-2,2.84-2.54a10.52,10.52,0,0,1-1.65-3.25c.05-.29.12-.59.19-.88C183,53.06,185.72,53.57,188,55.49Z"/><path class="cls-47" d="M189.11,48.05l.09.73v0c.67,5.45.53,12.42-2.92,11.54a10.66,10.66,0,0,1-3.72-1.67,8.06,8.06,0,0,1-1.37-1.25h0a5.7,5.7,0,0,1-1.32-2.4s-.11-.37-.21-.92a12.41,12.41,0,0,1,1-7.09,7.2,7.2,0,0,1,5.13-4.12,7.75,7.75,0,0,1,1.86-.22.27.27,0,0,1,.11.09C188.19,43.23,188.74,45.39,189.11,48.05Z"/><path class="cls-37" d="M211.17,58.76c.45,3.18,1.13,13.64.68,14.39s-6.93,3.91-13.11,3.39-9.74-2-10.75-2.93c-.67-.63-1.72-2.33-3.07-6.38a87.18,87.18,0,0,1-2.35-8.56,35.06,35.06,0,0,1-.66-4,22.28,22.28,0,0,1,0-4.41h0a10.5,10.5,0,0,1,.89-3.86,25,25,0,0,1,3-3.55,6.06,6.06,0,0,1,2-1.24,6.45,6.45,0,0,1,1.16-.27,41.55,41.55,0,0,1,9.24.07,29.26,29.26,0,0,1,5.17.93c2.27.71,3.56,1.13,4.28,1.42a2,2,0,0,1,.77.42S210.72,55.59,211.17,58.76Z"/><path class="cls-51" d="M211.88,71.36h0s-1,1.68-4.75,2.93c-1.32.44-3.08.66-5.32,1.14-10.57,2.3-16-3.49-16-3.49l-1.13-5.5s2.26,3.54,12.52,3.69a30.71,30.71,0,0,0,9.88-1.59,13,13,0,0,0,3.79-1.71,3,3,0,0,0,.31-.23C212,67.92,211.89,71.21,211.88,71.36Z"/><path class="cls-52" d="M212.05,72.43h0s-1,1.68-4.75,2.93c-1.32.44-3.08.66-5.32,1.14C191.41,78.8,186,73,186,73l-1.13-5.5s2.26,3.54,12.52,3.69a30.64,30.64,0,0,0,9.87-1.59A12.94,12.94,0,0,0,211,67.9a3,3,0,0,0,.31-.23C212.18,69,212.06,72.28,212.05,72.43Z"/><path class="cls-48" d="M207.68,43.8a20.52,20.52,0,0,1-3.73.55,7.91,7.91,0,0,0-3.5-1.67c-1.79-.37-3.48-.75-2.22-1.23a29.26,29.26,0,0,1,5.17.93C205.67,43.09,207,43.51,207.68,43.8Z"/><path class="cls-50" d="M183.62,49s-1,1.53-1,5.59.65,5.85,1.2,6.22,12.85,1.12,13.34.41A13,13,0,0,0,198.84,57c.1-1.22-.5-6.63,1.7-7.78s3.23-4.71,3.23-4.71l.82.26s-4.46-2-7.07-1.74S186.57,47.87,183.62,49Z"/><path class="cls-48" d="M189.11,48.05l-.14.11a3.53,3.53,0,0,1-3.08.49A3.62,3.62,0,0,0,182,50.3h0c-.29.73-.71,3.45-2.28,3.8a12.41,12.41,0,0,1,1-7.09,7.2,7.2,0,0,1,5.13-4.12,6.06,6.06,0,0,1,2-1.24,6.45,6.45,0,0,1,1.16-.27,7.84,7.84,0,0,1,.23.95C190,46.2,190.36,47.06,189.11,48.05Z"/><g class="cls-53"><path class="cls-54" d="M207.36,70.67a7.11,7.11,0,0,1-5.66-1.17c-3.46-2.66-3.2-8.4-3.19-8.64,0,0-.07-1.15.86-1a.93.93,0,0,1,.82,1.13s-.22,5.1,2.54,7.22c1.45,1.12,3.54,1.25,6.22.39,4.47-1.43,7.4-3.8,8.74-7.05,1.95-4.76-.06-10.19-.86-12a1.72,1.72,0,0,1,0-1.3h0a.59.59,0,0,1,.83-.31l.05,0a1.25,1.25,0,0,1,.53.56c.76,1.6,3.39,7.9,1,13.66-1.52,3.73-4.81,6.43-9.78,8A15.2,15.2,0,0,1,207.36,70.67Z"/></g><path class="cls-55" d="M202.14,58.27a2.53,2.53,0,0,1-.29,3.59,2.58,2.58,0,0,1-3.6-.44,2.53,2.53,0,0,1,.29-3.59A2.58,2.58,0,0,1,202.14,58.27Z"/><path class="cls-56" d="M201.84,58.62a2.54,2.54,0,0,1-.29,3.59,2.59,2.59,0,0,1-3.61-.43,2.54,2.54,0,0,1,.29-3.59A2.59,2.59,0,0,1,201.84,58.62Z"/><path class="cls-57" d="M201,59.32a1.42,1.42,0,0,1-.17,2,1.44,1.44,0,0,1-2-.24,1.42,1.42,0,0,1,.17-2A1.44,1.44,0,0,1,201,59.32Z"/><path class="cls-58" d="M208,69.64a7.11,7.11,0,0,1-5.66-1.17c-3.46-2.67-3.2-8.4-3.19-8.64,0,0-.07-1.16.86-1a.93.93,0,0,1,.82,1.13s-.22,5.1,2.54,7.22c1.45,1.12,3.54,1.25,6.22.39,4.47-1.43,7.41-3.8,8.74-7.05,2-4.76-.06-10.2-.86-12a1.72,1.72,0,0,1,0-1.3h0a.59.59,0,0,1,.83-.31l.05,0a1.2,1.2,0,0,1,.53.56c.76,1.6,3.39,7.9,1,13.66-1.52,3.73-4.81,6.43-9.78,8A15.2,15.2,0,0,1,208,69.64Z"/><path class="cls-59" d="M210.51,68.66a14.38,14.38,0,0,1-2.11.52A7.11,7.11,0,0,1,202.74,68c-3.46-2.67-3.2-8.4-3.19-8.64a1.65,1.65,0,0,1,.08-.53c-.5.21-.46,1-.46,1,0,.24-.27,6,3.19,8.64A7.11,7.11,0,0,0,208,69.64a15.2,15.2,0,0,0,2.1-.51,16.46,16.46,0,0,0,8.14-5.19A16.8,16.8,0,0,1,210.51,68.66Z"/><path class="cls-59" d="M218.73,60c2-4.76-.06-10.2-.85-12a1.63,1.63,0,0,1-.07-1.17.59.59,0,0,0-.35.34,1.72,1.72,0,0,0,0,1.3c.8,1.8,2.81,7.24.86,12a10.69,10.69,0,0,1-1.4,2.4A10.38,10.38,0,0,0,218.73,60Z"/><path class="cls-60" d="M208.31,68.57a6.53,6.53,0,0,1-5.2-1c-3.21-2.47-3-7.89-3-8.12v-.07a.73.73,0,0,1,.09-.4h.08a.39.39,0,0,1,.25.1.57.57,0,0,1,0,.31v.08c0,.06-.24,5.42,2.78,7.74a6.1,6.1,0,0,0,4.84,1,14.69,14.69,0,0,0,1.94-.47c4.64-1.49,7.71-4,9.11-7.4,2-4.91.07-10.36-.86-12.48a1.11,1.11,0,0,1,0-.82l0,0a.57.57,0,0,1,.26.27c.81,1.71,3.26,7.7,1,13.17-1.45,3.56-4.62,6.14-9.4,7.67a13,13,0,0,1-2,.49Z"/><path class="cls-55" d="M200.68,51.28a2.53,2.53,0,0,1-.3,3.59,2.58,2.58,0,0,1-3.6-.43,2.54,2.54,0,0,1,.29-3.59A2.59,2.59,0,0,1,200.68,51.28Z"/><path class="cls-56" d="M200.37,51.64a2.53,2.53,0,0,1-.29,3.59,2.58,2.58,0,0,1-3.6-.44,2.53,2.53,0,0,1,.29-3.59A2.58,2.58,0,0,1,200.37,51.64Z"/><path class="cls-57" d="M199.51,52.34a1.41,1.41,0,0,1-.16,2,1.45,1.45,0,0,1-2-.25,1.41,1.41,0,0,1,.16-2A1.45,1.45,0,0,1,199.51,52.34Z"/><path class="cls-34" d="M198.83,42.84s2.92,4.43-3.07,5.69-7.46,0-8.61-1.24-.07-4.81,1.77-5.54S195.37,39.21,198.83,42.84Z"/><path class="cls-61" d="M172,64.78a2.85,2.85,0,0,1-2.07.82,4.65,4.65,0,0,0-1.44,0s-1.84-.28-2.31-1.22-.43-4.38.61-4.42,1-.56,2.51,0,2.75,1.1,2.95,1.61A4.28,4.28,0,0,1,172,64.78Z"/><path class="cls-62" d="M169.06,63.73a.59.59,0,0,1,.42.4c.06.31-.53.66-.53.66a.57.57,0,0,1-.34.8A7.73,7.73,0,0,1,167,66c-.25,0-.34,0-.66-.3a2.35,2.35,0,0,1-.68-1c-.12-.41-.27-.85-.27-.85a4.18,4.18,0,0,1-.15-1c0-.2-.59-.66-.63-.84s-.38-.38-.1-.63a8.32,8.32,0,0,1,2.18-1.68c.8-.25.87.27.92.64s-.52,1-.52,1a9.34,9.34,0,0,1,.69.85c.2.32.4.55.29.72l-.11.18S169.53,62.31,169.06,63.73Z"/><path class="cls-63" d="M171.38,63.32s-.31.38-1.12,0a5.33,5.33,0,0,1-1.82-1.23,4.48,4.48,0,0,0-.39-.58,10.19,10.19,0,0,1-1.74.28c-.59,0-.9-.07-1.18-.61s.89-.94,1.26-1a5.21,5.21,0,0,1,2-.49,4.66,4.66,0,0,1,2.61,1C171.23,60.92,173.27,62.51,171.38,63.32Z"/><path class="cls-48" d="M199.78,52.93s-.48,8.07-1.41,9a12.23,12.23,0,0,0-1.79,2.9l-.74,1s-2.78,2-3.39,1.94-3.75,1.65-4,3.23-1.68.53-1.68.53c-.76.84-1.95,2.19-1.94,3.39s2,.79,2.83.89c1.37.18,2.72.43,4.07.68a8,8,0,0,1,2.92,1,2.59,2.59,0,0,0,1.24.59,2.4,2.4,0,0,0,.83-.2c.69-.25,1.42-.36,2.11-.6s1.12-.48,1.68-.71a10.69,10.69,0,0,1,4.71-.75,3.51,3.51,0,0,0,2-.18,2.71,2.71,0,0,0,.67-.59,15.1,15.1,0,0,0,1.57-2.1,3.9,3.9,0,0,0,.65-1.58,18.29,18.29,0,0,0-.28-2.33c0-.69.27-1.34.27-2.07a14.14,14.14,0,0,0-.38-3.1Z"/><path class="cls-46" d="M212,59.91c.72,3.1-.67,5.8-2.16,7.84a21.39,21.39,0,0,1-5.19,4.09,38.26,38.26,0,0,1-7.11,2.51c-.65.18-1.36.87-2.47-.81-.08-.11-.15-.23-.23-.36a6.68,6.68,0,0,1-.68-2.4,1.8,1.8,0,0,1,.42-1.47,3.58,3.58,0,0,1,.47-.49,9.29,9.29,0,0,1,1.71-1.11q2-1.12,4-2.35a6,6,0,0,0,1.49-1.11c.22-.25.19-.3.11-.62-.37-1.49-.57-3.05-1.08-4.49,0,0,0,0,0,0a20.11,20.11,0,0,1-1.1-7c.25-2.52,1.72-6,3.83-5.06s6.14,2.53,6.51,3.3a49,49,0,0,1,.85,5.7C211.52,57.46,211.73,58.84,212,59.91Z"/><path class="cls-48" d="M211.48,57.13v-.06c-.05-.32-.09-.66-.14-1h0a49,49,0,0,0-.85-5.7c-.37-.77-4.4-2.39-6.51-3.3s-3.58,2.54-3.84,5.06a20.31,20.31,0,0,0,1.11,7v0c.08.24.17.47.26.7a12.29,12.29,0,0,0,8.27-1.16l.33-.19a10.53,10.53,0,0,1,0,5.47c-.87,2.62-4.81,8.17-14.15,9.45l-.93.13c1.11,1.68,1.82,1,2.47.81a38.26,38.26,0,0,0,7.11-2.51,21.39,21.39,0,0,0,5.19-4.09c1.49-2,2.88-4.74,2.16-7.84C211.79,59.11,211.63,58.15,211.48,57.13Z"/><path class="cls-64" d="M196.7,73.79a7.66,7.66,0,0,1-1.91,1.81c-1,.53-2.18,1.38-2.79,1.36a2,2,0,0,1-1.16-.65,2.19,2.19,0,0,1-.73-.51,3,3,0,0,1-.46-.89,1.09,1.09,0,0,1-.78-.53.88.88,0,0,1,0-.82,7.06,7.06,0,0,1-.58-1,2.83,2.83,0,0,1,1.38-1.75c.74-.27,4.2-1.38,5.1-1.09S196.85,73.25,196.7,73.79Z"/><path class="cls-65" d="M191.66,70.48s-2,.85-2.3,1-.7.75-1.35.6-.87-.14-.8-.72.92-.22,1.28-.4a14.52,14.52,0,0,1,2.27-1,19.65,19.65,0,0,1,2.65-.26C193.83,69.86,192.66,70.47,191.66,70.48Z"/><path class="cls-37" d="M196.51,43.74a5.11,5.11,0,0,1-.23-2.92c.44-1.13,1.21-1,1.15-5.16s-2.68-4.37-2.68-4.37a5.49,5.49,0,0,0-5-.46c-2.82,1.14-3.28,2.49-3.77,3.65a2.27,2.27,0,0,0,0,2s.08,2.82.12,3.05a6.31,6.31,0,0,1,.62,1.35c.1.62,1.12,5.5,2.06,6.05a2.44,2.44,0,0,0,1.52.43l.4,1.31a4.42,4.42,0,0,0,2.72-.95C194.33,46.77,196.56,44.51,196.51,43.74Z"/><path class="cls-47" d="M211.87,55.84a4.84,4.84,0,0,1-2.23,1.91,12,12,0,0,1-9.1.93c-.71-2.89-1.7-9.06,1.13-12.36a9.21,9.21,0,0,1,2.1-1.85,5.2,5.2,0,0,1,3.42-.95C211.23,44.74,212.48,54.2,211.87,55.84Z"/><path class="cls-50" d="M203,45.09a6.36,6.36,0,0,0-2.39,3.39c-.71,2.35,2.07,6.64,2.4,8.68l.33,2a9.79,9.79,0,0,0,5.56-1.09S208.79,51,207.25,48A4.7,4.7,0,0,0,203,45.09Z"/><path class="cls-66" d="M210.63,51.52A2.92,2.92,0,0,1,208,54.74a3,3,0,0,1-3-3,2.92,2.92,0,0,1,2.63-3.21A3,3,0,0,1,210.63,51.52Z"/><path class="cls-67" d="M209.14,49.5l-2.92,3,1.43-.14s.12,1.53.15,1.46S209.14,49.5,209.14,49.5Z"/><path class="cls-48" d="M211.87,55.84a4.84,4.84,0,0,1-2.23,1.91A32.8,32.8,0,0,0,208,47.6c-.78-2-3.26-2.87-4.22-3.13a5.2,5.2,0,0,1,3.42-.95C211.23,44.74,212.48,54.2,211.87,55.84Z"/><path class="cls-34" d="M180.36,35.25s-1.64,0-1.23,1.9.44,3.26,1.6,3.83a5,5,0,0,0,2.45.43Z"/><path class="cls-68" d="M179.55,35.45a2.12,2.12,0,0,0,1.07,1.71c1,.56,17.62,4,16.38.2s-14.25-5.48-15.67-4S180,33,179.55,35.45Z"/><path class="cls-69" d="M198.28,39.91s5.47,3.08.44,7.19-12.84,2.25-13.81-.59c-.59-1.74-.86-3.75,2.35-5.61S193.66,37.3,198.28,39.91Z"/><path class="cls-34" d="M196.93,38.71s6.64,3.19,1.62,7.3-12.85,2.25-13.81-.59c-.6-1.75-.87-3.76,2.35-5.61S192.3,36.1,196.93,38.71Z"/><path class="cls-47" d="M202.12,34.66a12.44,12.44,0,0,1,.14,1.34h0c0,.11-.86,3.69-2.21,5s-1.3,4.23-5.4,6.07h0a14.4,14.4,0,0,1-1.42.42,10.63,10.63,0,0,1-8.7-2.57,11.46,11.46,0,0,1-3.76-6.87,12.35,12.35,0,0,1-.11-2.84,14.06,14.06,0,0,1,.22-1.47,10.88,10.88,0,0,1,7.91-8.33,9.18,9.18,0,0,1,.91-.19,10.47,10.47,0,0,1,5.46.59A11.36,11.36,0,0,1,202.12,34.66Z"/><path class="cls-56" d="M191.34,24.52a11,11,0,0,0-2.59.89,9.13,9.13,0,0,0-5.52,7.52,11.34,11.34,0,0,0,0,2c.53,7.62,3.32,10.48,1.29,10a11.46,11.46,0,0,1-3.76-6.87,12.35,12.35,0,0,1-.11-2.84,14.06,14.06,0,0,1,.22-1.47c-.7.47-.77.93-.93,1s-.27-.06-.27-.06S180.23,24.11,191.34,24.52Z"/><path class="cls-47" d="M202.26,36h0c0,.11-.86,3.69-2.21,5s-1.3,4.23-5.4,6.07h0l0,0c-3.45-.55-7.42-3-7.41-10.65a15.83,15.83,0,0,1,.43-3.74h0a8.72,8.72,0,0,1,7.49-6.88,8.54,8.54,0,0,1,1.41-.1h0C202.43,28.6,202.27,35.71,202.26,36Z"/><path class="cls-35" d="M201.87,38.05a3.76,3.76,0,0,1-1.15,3.33l-1.09-2.07-1.36-2.6a12.45,12.45,0,0,0,2-1.16l.88-.65A10.67,10.67,0,0,1,201.87,38.05Z"/><path class="cls-47" d="M201.87,38.05a3.76,3.76,0,0,1-1.15,3.33l-1.09-2.07a3,3,0,0,1,.59-2.21,2.72,2.72,0,0,0,1-2.2A10.67,10.67,0,0,1,201.87,38.05Z"/><path class="cls-70" d="M198.27,36.71s2.08.12,2.36.73a5.57,5.57,0,0,1,.23,3.68c-.22.89-2.23.7-2.23.7A11.46,11.46,0,0,0,198.27,36.71Z"/><path class="cls-71" d="M198.62,37.13s1.49.13,1.7.63a5.36,5.36,0,0,1,.23,3c-.15.72-1.59.54-1.59.54A10.87,10.87,0,0,0,198.62,37.13Z"/><path class="cls-72" d="M199.9,39.34c0-.34-.16-1.05.6-1q-.08-.27-.18-.54c-.21-.5-1.7-.63-1.7-.63a10.87,10.87,0,0,1,.34,4.19A7.48,7.48,0,0,0,199.9,39.34Z"/><path class="cls-73" d="M199.43,39.06c0,.61.22,1.14.47,1.17s.45-.44.44-1.06-.22-1.14-.47-1.18S199.42,38.44,199.43,39.06Z"/><path class="cls-47" d="M202.26,36h0s-7.49-3.14-14.57-3.33h-.06a23,23,0,0,0-4.4.24,6.2,6.2,0,0,0-2.39.81c-.7.47-.77.93-.93,1s-.27-.06-.27-.06.59-10.58,11.7-10.17a12.86,12.86,0,0,1,5.19,1.19h0C202.37,28.57,202.27,35.56,202.26,36Z"/><path class="cls-56" d="M191.34,24.52a11,11,0,0,0-2.59.89,11.59,11.59,0,0,0-1.64.94,9.2,9.2,0,0,0-2.78,3,8,8,0,0,0-.88,2.26c-.17.77-1.06,1.09-1.75,1.3a5.06,5.06,0,0,1-.77.18c-.18,0-.86.08-1-.11s.05-.33.08-.43c.07-.27.15-.53.24-.8a11.07,11.07,0,0,1,3.21-4.88A11.42,11.42,0,0,1,191.34,24.52Z"/><path class="cls-34" d="M187.21,31.73c-5.59-.15-6.46,1.36-7,1.75a6.87,6.87,0,0,0-.52,2.7s.07-.57.35-.7-.11-1.91,7.42-1.71a43.78,43.78,0,0,1,13.46,2.77s.1.49-.15-.92C199.54,35.27,193.59,31.9,187.21,31.73Z"/><path class="cls-74" d="M187.1,31c-5.59-.15-6.46,1.37-7,1.75a7.13,7.13,0,0,0-.52,2.7s.08-.56.36-.7-.34-1.61,7.19-1.41a51.94,51.94,0,0,1,13.68,2.47s.1.49-.14-.91C199.42,34.54,193.47,31.17,187.1,31Z"/><path class="cls-75" d="M200.73,35.48a53.34,53.34,0,0,0-10.57-2.26c-1-.11-2.06-.18-3.11-.21-.76,0-1.43,0-2,0a20.76,20.76,0,0,0-2.18.12c-3,.32-2.72,1.17-3,1.3s-.3.87-.3.87a6.69,6.69,0,0,1,.47-2.87,5.54,5.54,0,0,1,3.06-1.49,14.84,14.84,0,0,1,2.64-.26c.41,0,.85,0,1.33,0a23,23,0,0,1,3.65.42c4.86.95,8.91,3.19,9.89,3.48C200.83,36,200.73,35.48,200.73,35.48Z"/><path class="cls-76" d="M183.08,30.93a14.42,14.42,0,0,0-.24,2.07.49.49,0,0,1,0,.12c-3,.32-2.72,1.17-3,1.3s-.3.87-.3.87a6.69,6.69,0,0,1,.47-2.87A5.54,5.54,0,0,1,183.08,30.93Z"/><path class="cls-77" d="M190.7,31.09a6.3,6.3,0,0,0-.54,2.13c-1-.11-2.06-.18-3.11-.21-.76,0-1.43,0-2,0a9.65,9.65,0,0,1,.69-2.33c.41,0,.85,0,1.33,0A23,23,0,0,1,190.7,31.09Z"/><path class="cls-70" d="M202.31,34a2.87,2.87,0,0,1-1,2.4,1,1,0,0,1-1.7-.67,2.89,2.89,0,0,1,.95-2.47A1.1,1.1,0,0,1,202.31,34Z"/><path class="cls-37" d="M202.42,34.19a2.58,2.58,0,0,1-.83,2.17c-.58.47-1.14.26-1.26-.47a2.59,2.59,0,0,1,.84-2.17C201.75,33.25,202.31,33.46,202.42,34.19Z"/><path class="cls-78" d="M189.43,47.07a8.33,8.33,0,0,1-1.37-.23,10.42,10.42,0,0,1-6-4.85,11.49,11.49,0,0,1-1.49-6.61s1-1,5.76-.84a67.69,67.69,0,0,1,11.25,1.53C197.88,36.12,200.25,47.88,189.43,47.07Z"/><path class="cls-79" d="M188.83,46.72c-4-1-6.73-4.73-6.73-4.73a11.49,11.49,0,0,1-1.49-6.61,7,7,0,0,1,4.39-.62C184.37,36,184.71,43.8,188.83,46.72Z"/><path class="cls-80" d="M188.35,34.8c-.95-.09-1.81-.14-2.56-.17s-1.59,0-2.22,0c-.34.39-.56.66-.56.66a15.67,15.67,0,0,0,3.35,10.88,8.21,8.21,0,0,0,1.7.65,8.33,8.33,0,0,0,1.37.23c.64,0,3.44-.73,4-.76-2.36-.92-4.43-5.5-3.34-11.27C190.1,34.94,188.34,34.89,188.35,34.8Z"/><path class="cls-81" d="M197.72,36.66a1.34,1.34,0,0,1,.13.39c-.1-.94-.17-1-.23-1-14.63-3-17-.69-17-.69s-.15-.13-.12.59C181,35.63,184.46,33.93,197.72,36.66Z"/><path class="cls-34" d="M189.31,46.3c-4.87-.37-7.33-5.08-7.33-5.08a11.38,11.38,0,0,1-1.29-3.41c0-.12-.05-.23-.07-.33,0,.3.1.66.19,1.1A11.38,11.38,0,0,0,182.1,42s2.46,4.71,7.33,5.08c9.4.71,8.83-8.18,8.36-10.47C198.16,39.65,197.85,46.94,189.31,46.3Z"/><path class="cls-82" d="M192.68,25.13A7.37,7.37,0,0,0,188,27c-.11.1-.21.15-.31.24a1.36,1.36,0,0,0,.44,2.45l.41.13a6.46,6.46,0,0,0,5-1.32l.55-.44C194.86,27.33,196.85,25.91,192.68,25.13Z"/><path class="cls-83" d="M196.13,66.73s-8.48-8.9-11.16-9.25c-.75-.1-1.4,1.78-1.4,1.78s.72,6.5,1.2,7.62,9.75,1.75,10,1.64A18.73,18.73,0,0,0,196.13,66.73Z"/><path class="cls-84" d="M195.32,58.43s1,8.18.81,8.3c0,0-.56,1.28-1,1-2.5-1.42-10.74-8.28-11.16-9.25l1-1.05,2.64.54A47.78,47.78,0,0,0,195.32,58.43Z"/><path class="cls-85" d="M195.32,58.43l-1,1s-6.43,1.82-10.35-.95l1-1.05,2.64.54A47.78,47.78,0,0,0,195.32,58.43Z"/><path class="cls-86" d="M194.36,59.48a47.78,47.78,0,0,1-7.71-.41L184,58.53s.72,6.49,1.2,7.62,9.75,1.75,10,1.63S194.36,59.48,194.36,59.48Z"/><path class="cls-87" d="M194.14,59.86a34.94,34.94,0,0,1-5.66-.3l-1.94-.39a46.56,46.56,0,0,0,.89,5.59c.35.82,7.16,1.29,7.31,1.2S194.14,59.86,194.14,59.86Z"/><path class="cls-67" d="M188.62,51.41a2.81,2.81,0,0,0-.11.36c0,.09,0,.2-.07.33s0,.22-.07.35,0,.21-.05.33,0,0,0,.06,0,.19,0,.3,0,.21,0,.33,0,.24,0,.36l0,.33q0,.2,0,.36c0,.13,0,.24,0,.33s0,.28,0,.28A29,29,0,0,1,183.33,54c0-.1,0-.2,0-.3s0-.25,0-.38a2.28,2.28,0,0,1,0-.37c0-.12,0-.23,0-.35s0-.25,0-.37,0-.22.05-.33l.06-.35c0-.12,0-.22.08-.32s.06-.24.09-.34l.1-.32.06-.16Z"/><path class="cls-85" d="M188.14,54.52c0,.13,0,.24,0,.33a20.54,20.54,0,0,1-4.83-1.18c0-.13,0-.25,0-.38A23.86,23.86,0,0,0,188.14,54.52Z"/><path class="cls-85" d="M188.2,53.83l0,.33a20.13,20.13,0,0,1-4.87-1.22l0,0c0-.12,0-.23,0-.35l0,0A24.09,24.09,0,0,0,188.2,53.83Z"/><path class="cls-85" d="M188.27,53.14q0,.15,0,.33a20.36,20.36,0,0,1-4.83-1.22l-.09,0c0-.11,0-.22.05-.33l.07,0A23.72,23.72,0,0,0,188.27,53.14Z"/><path class="cls-85" d="M188.37,52.45c0,.1,0,.21-.05.33a20.3,20.3,0,0,1-4.8-1.21l-.09,0c0-.12,0-.22.08-.32l0,0A23.86,23.86,0,0,0,188.37,52.45Z"/><path class="cls-85" d="M188.51,51.77c0,.09,0,.2-.07.33a20.19,20.19,0,0,1-4.81-1.22l0,0,.1-.32A23.77,23.77,0,0,0,188.51,51.77Z"/><path class="cls-58" d="M183.33,52l2.18.53s.1-.52.2-1a4.49,4.49,0,0,1,.21-.71l-2.16-.46A5.88,5.88,0,0,0,183.33,52Z"/><path class="cls-50" d="M203.8,60.44s.42,2.27.45,2.83-2.28,1.81-3.83,2.8a56.11,56.11,0,0,0-5.15,3.41c-.24.4,1.07,1.69,1.26,2.91s8.52-3.34,10.39-5.8,1.84-2.31,2-4a11,11,0,0,0-.1-3.19A7,7,0,0,1,203.8,60.44Z"/><path class="cls-88" d="M198.27,101.73c.21-1.1-3.53-4.54-5.67-5.22l-.07,0c-1.6-.49-2.36,0-2.45.26-1.27,3.75-1.21,6.69-.38,7.61,1,1.11,6.25,2,8-.92A3.53,3.53,0,0,0,198.27,101.73Z"/><path class="cls-89" d="M195.07,101.37c.14-.71-2.29-2.94-3.68-3.38h0c-1-.32-1.53,0-1.59.17-.82,2.43-.79,4.33-.25,4.93s4.06,1.32,5.19-.59A2.4,2.4,0,0,0,195.07,101.37Z"/><path class="cls-88" d="M185.74,96.65c.21-1.1-3.32-4.88-5.36-5.75l-.06,0c-1.52-.63-2.25-.21-2.34.06-1.22,3.68-1.19,6.66-.41,7.65,1,1.22,5.94,2.58,7.61-.25A3.54,3.54,0,0,0,185.74,96.65Z"/><path class="cls-90" d="M183.5,96.19c.15-.81-2.46-3.62-4-4.26l-.05,0c-1.12-.46-1.66-.15-1.73,0-.91,2.73-.88,4.93-.3,5.67.7.9,4.39,1.91,5.63-.19A2.63,2.63,0,0,0,183.5,96.19Z"/><path class="cls-50" d="M196.67,78.3a34.09,34.09,0,0,0-2.38,5.43l-.24,1.38a6.55,6.55,0,0,1,6-1l3.47,1.15a14.66,14.66,0,0,0,2.83-5.51c.47-2.66.53-3.5.53-3.5S198,77.26,196.67,78.3Z"/><path class="cls-50" d="M194.59,82.74s0-1.84-1-2.12S192.22,82,192.22,82a6,6,0,0,0-5.53-2.1l-1.43.23a20,20,0,0,1,1.52-3.19l.62-.84s5.31.45,7.29,1.34l2,.88Z"/><path class="cls-55" d="M189.76,63.08c.91,1.11.89,2.45,0,3a2.88,2.88,0,0,1-3.36-1c-.92-1.12-.89-2.45.05-3A2.9,2.9,0,0,1,189.76,63.08Z"/><path class="cls-56" d="M189.5,63.32c.91,1.12.89,2.45-.05,3a2.9,2.9,0,0,1-3.36-1c-.92-1.12-.89-2.45,0-3A2.9,2.9,0,0,1,189.5,63.32Z"/><path class="cls-57" d="M189.11,64.53a.81.81,0,0,1-.4.88.9.9,0,0,1-.36.12,1.83,1.83,0,0,1-1.51-.7,1.57,1.57,0,0,1-.37-.87.82.82,0,0,1,.4-.79.94.94,0,0,1,.28-.1,1.73,1.73,0,0,1,1.59.68A1.64,1.64,0,0,1,189.11,64.53Z"/><path class="cls-91" d="M77.65,47.16a14.32,14.32,0,0,1,0,2.69.38.38,0,0,1,0,.18,25.41,25.41,0,0,1-8.27,16.23,14.62,14.62,0,0,1-1.59,1.19v0c-.76.45.94,2.21.18,2.51a8,8,0,0,1-6.15.12l-.13-.06c-2.7-1.43-4.23-5-3.85-10a.65.65,0,0,1,0-.24,25.89,25.89,0,0,1,5-12.77,19.89,19.89,0,0,1,2.83-3.19l1.37-1.14A13.46,13.46,0,0,1,70,41a6.89,6.89,0,0,1,5.28-.15l.86.48.15.09C78.16,42.75,77.46,43.76,77.65,47.16Z"/><path class="cls-92" d="M85.19,45.82,84,53.55,77.59,50l-.8,2.83L62.74,47.05a19.89,19.89,0,0,1,2.83-3.19l1.37-1.14A13.46,13.46,0,0,1,70,41a6.89,6.89,0,0,1,5.28-.15l.86.48.15.09Z"/><path class="cls-93" d="M79.08,71.87l-8.36,2.56-9-4.32-.13-.06c-2.7-1.43-4.23-5-3.85-10l11.54,6.2Z"/><path class="cls-93" d="M89.55,56.34c-.7,8-6.15,16.43-12.16,18.76s-10.32-2.29-9.62-10.32S73.91,48.32,79.93,46,90.25,48.29,89.55,56.34Z"/><path class="cls-94" d="M136.87,71.35a21.5,21.5,0,0,1,0,3.75.43.43,0,0,1-.05.25C136,84,131.23,93,125.24,98A20.45,20.45,0,0,1,123,99.68v0c-1.06.62,1.31,3.09.25,3.5-3,1.17-48.8-19.59-51-20.71l-.18-.09c-3.77-2-5.9-7-5.37-14,0-.12,0-.21,0-.33a36.14,36.14,0,0,1,6.92-17.83,28.84,28.84,0,0,1,4-4.45l1.91-1.59a18.63,18.63,0,0,1,4.22-2.37,9.7,9.7,0,0,1,7.37-.21l1.19.67.23.12C95.2,44.31,136.6,66.61,136.87,71.35Z"/><path class="cls-95" d="M147.39,69.48l-1.73,10.79-8.88-4.92-1.11,4-62-29a28.84,28.84,0,0,1,4-4.45l1.91-1.59a18.63,18.63,0,0,1,4.22-2.37,9.7,9.7,0,0,1,7.37-.21l1.19.67.23.12Z"/><path class="cls-96" d="M138.87,105.84l-11.68,3.58L72.3,82.51l-.18-.09c-3.77-2-5.9-7-5.37-14L125.24,98Z"/><path class="cls-97" d="M120.28,104.66l-17.84-8.21,0-.18c-.05-.22-1.13-5.6.8-14.3A40.15,40.15,0,0,1,110,67.18l.18-.23L126,74.36l-.33.38s-2.81,3.26-6,14.09c-3,10.07-.08,14.69,0,14.74ZM103.1,95.93,118.45,103c-.76-1.89-1.9-6.51.44-14.38,2.7-9.07,5.06-12.86,5.89-14l-14.43-6.75a39.86,39.86,0,0,0-6.41,14.26A37.77,37.77,0,0,0,103.1,95.93Z"/><path class="cls-98" d="M117.35,93.67c0,.36.31.81.71.77s.59-.58.62-.92a3,3,0,0,1,.26-1.33,5.31,5.31,0,0,0,.68-1.26,4.67,4.67,0,0,0,0-1.06c0-1.49,1-2.8,1.28-4.27.08-.37.11-.75.19-1.12a8.15,8.15,0,0,1,.65-1.63c.56-1.21,1-2.48,1.56-3.65a20.57,20.57,0,0,1,2.08-3.27,5,5,0,0,0,1-1.63,27.88,27.88,0,0,1-3.92-1.83,7.45,7.45,0,0,0-4.15-1,14,14,0,0,0,3.85,2.23,7,7,0,0,1,2.58,1,6.09,6.09,0,0,0-.94,1.09,10.4,10.4,0,0,0-.65,1.66,20,20,0,0,1-1,1.94,19.31,19.31,0,0,0-.81,2.12c-.85,2.39-1.94,4.67-2.93,7a7.72,7.72,0,0,0-.5,1.47,21.38,21.38,0,0,1-.25,2.41A3.92,3.92,0,0,0,117.35,93.67Z"/><path class="cls-96" d="M153.47,84.16c-1,11.21-8.57,22.94-17,26.2s-14.41-3.21-13.43-14.42,8.58-23,17-26.22S154.46,72.92,153.47,84.16Z"/><path class="cls-91" d="M148.74,82.87a14.32,14.32,0,0,1,0,2.69.38.38,0,0,1,0,.18A25.41,25.41,0,0,1,140.41,102a15,15,0,0,1-1.59,1.19v0c-.76.45.94,2.21.18,2.51a8,8,0,0,1-6.15.12l-.13-.06c-2.7-1.43-4.23-5-3.85-10a.65.65,0,0,1,0-.24,26,26,0,0,1,5-12.77,20.79,20.79,0,0,1,2.83-3.19L138,78.43a13.29,13.29,0,0,1,3-1.7,6.89,6.89,0,0,1,5.28-.15l.86.48.16.09C149.25,78.46,148.55,79.47,148.74,82.87Z"/><path class="cls-92" d="M156.28,81.53,155,89.26l-6.36-3.52-.79,2.83-14.06-5.82a20.79,20.79,0,0,1,2.83-3.19L138,78.43a13.29,13.29,0,0,1,3-1.7,6.89,6.89,0,0,1,5.28-.15l.86.48.16.09Z"/><path class="cls-93" d="M150.18,107.58l-8.37,2.56-9-4.32-.13-.06c-2.7-1.43-4.23-5-3.85-10L140.41,102Z"/><path class="cls-93" d="M160.64,92c-.7,8-6.14,16.44-12.16,18.77s-10.32-2.3-9.62-10.32S145,84,151,81.7,161.34,84,160.64,92Z"/><polygon class="cls-2" points="36.36 82.09 69.52 62.82 101.36 105.05 68.2 124.32 36.36 82.09"/><polygon class="cls-3" points="38.02 81.12 71.19 61.85 103.03 104.08 69.87 123.35 38.02 81.12"/><polygon class="cls-99" points="70.62 64.66 41.19 81.76 70.43 120.55 99.86 103.44 70.62 64.66"/><polygon class="cls-100" points="43.26 84.52 43.66 85.05 73.1 67.95 72.7 67.42 43.26 84.52"/><polygon class="cls-101" points="46.04 88.21 46.44 88.74 75.88 71.64 75.48 71.11 46.04 88.21"/><polygon class="cls-102" points="48.82 91.89 49.22 92.43 78.66 75.32 78.26 74.79 48.82 91.89"/><polygon class="cls-103" points="51.6 95.58 52 96.11 81.44 79.01 81.03 78.48 51.6 95.58"/><polygon class="cls-104" points="54.38 99.27 54.78 99.8 84.22 82.69 83.81 82.16 54.38 99.27"/><polygon class="cls-105" points="57.16 102.95 57.56 103.48 87 86.38 86.59 85.85 57.16 102.95"/><polygon class="cls-106" points="59.94 106.64 60.34 107.17 89.78 90.07 89.37 89.53 59.94 106.64"/><polygon class="cls-107" points="62.72 110.33 63.12 110.86 92.55 93.75 92.15 93.22 62.72 110.33"/><polygon class="cls-108" points="65.5 114.01 65.9 114.54 95.33 97.44 94.93 96.91 65.5 114.01"/><polygon class="cls-109" points="68.28 117.7 68.68 118.23 98.11 101.13 97.71 100.59 68.28 117.7"/><polygon class="cls-110" points="97.03 105.08 97.7 104.69 68.46 65.9 67.78 66.3 97.03 105.08"/><polygon class="cls-111" points="89.31 109.56 89.98 109.17 60.73 70.38 60.06 70.77 89.31 109.56"/><polygon class="cls-112" points="81.58 114.03 82.26 113.64 53.01 74.86 52.34 75.25 81.58 114.03"/><polygon class="cls-113" points="73.86 118.51 74.54 118.12 45.29 79.33 44.62 79.72 73.86 118.51"/><polygon class="cls-2" points="0 103.08 33.16 83.81 65 126.04 31.84 145.31 0 103.08"/><polygon class="cls-3" points="1.66 102.11 34.83 82.84 66.67 125.08 33.51 144.34 1.66 102.11"/><polygon class="cls-114" points="34.26 85.65 4.83 102.75 34.07 141.54 63.51 124.43 34.26 85.65"/><polygon class="cls-115" points="6.9 105.52 7.3 106.05 36.74 88.94 36.34 88.41 6.9 105.52"/><polygon class="cls-116" points="9.68 109.2 10.08 109.73 39.52 92.63 39.12 92.1 9.68 109.2"/><polygon class="cls-117" points="12.46 112.89 12.86 113.42 42.3 96.31 41.9 95.78 12.46 112.89"/><polygon class="cls-118" points="15.24 116.57 15.64 117.11 45.08 100 44.67 99.47 15.24 116.57"/><polygon class="cls-119" points="18.02 120.26 18.42 120.79 47.86 103.69 47.45 103.16 18.02 120.26"/><polygon class="cls-120" points="20.8 123.94 21.2 124.48 50.63 107.37 50.23 106.84 20.8 123.94"/><polygon class="cls-121" points="23.58 127.63 23.98 128.16 53.41 111.06 53.01 110.53 23.58 127.63"/><polygon class="cls-122" points="26.36 131.32 26.76 131.85 56.19 114.75 55.79 114.21 26.36 131.32"/><polygon class="cls-123" points="29.14 135 29.54 135.54 58.97 118.43 58.57 117.9 29.14 135"/><polygon class="cls-124" points="31.92 138.69 32.32 139.22 61.75 122.12 61.35 121.59 31.92 138.69"/><polygon class="cls-125" points="60.67 126.07 61.34 125.68 32.1 86.9 31.42 87.29 60.67 126.07"/><polygon class="cls-126" points="52.95 130.55 53.62 130.16 24.37 91.37 23.7 91.76 52.95 130.55"/><polygon class="cls-127" points="45.23 135.03 45.9 134.63 16.65 95.85 15.98 96.24 45.23 135.03"/><polygon class="cls-128" points="37.5 139.5 38.17 139.11 8.93 100.33 8.26 100.72 37.5 139.5"/><path class="cls-129" d="M157.6,84.32a19.9,19.9,0,0,1,0,3.26.43.43,0,0,1,0,.22c-.7,7.55-4.83,15.35-10.06,19.74a15.44,15.44,0,0,1-1.93,1.45v0c-.93.54,1.14,2.69.21,3-2.63,1-5.58,1.13-7.48.15l-.15-.08c-3.29-1.74-5.15-6.13-4.68-12.15,0-.11,0-.18,0-.29a31.52,31.52,0,0,1,6-15.54,24.82,24.82,0,0,1,3.44-3.88l1.66-1.38a16.58,16.58,0,0,1,3.68-2.07,8.44,8.44,0,0,1,6.42-.18l1,.58.19.11C158.22,79,157.36,80.18,157.6,84.32Z"/><path class="cls-130" d="M166.76,82.68l-1.51,9.4-7.73-4.28-1,3.45-17.09-7.08a24.82,24.82,0,0,1,3.44-3.88l1.66-1.38a16.58,16.58,0,0,1,3.68-2.07c1.44-.56,17.88-2.59,17.88-2.59Z"/><path class="cls-131" d="M159.34,114.36l-10.17,3.12-6,5.39s-10.84-12.12-9.78-22.87l14,7.54Z"/><path class="cls-132" d="M177.74,93.28c-1.21,14-10.67,28.56-21.13,32.61s-17.93-4-16.72-17.94S150.57,79.35,161,75.3,179,79.29,177.74,93.28Z"/><path class="cls-133" d="M175.55,94.12c-1.07,12.34-9.44,25.26-18.68,28.84S141,119.43,142.08,107.1s9.45-25.29,18.69-28.88S176.63,81.76,175.55,94.12Z"/><path class="cls-134" d="M162,94.3c-.56,6.49-5,13.28-9.82,15.16s-8.34-1.85-7.77-8.34,5-13.29,9.82-15.18S162.55,87.8,162,94.3Z"/><path class="cls-135" d="M184.32,113,153.47,98.25a2.91,2.91,0,0,1,.22-.6,3.15,3.15,0,0,1,.38-.59l30.37,15.31a3.84,3.84,0,0,0-.47.58C183.87,113.16,184.37,112.77,184.32,113Z"/><path class="cls-136" d="M183.91,113.48l-30.1-13.79c-.36-.17-.49-.69-.37-1.29a.8.8,0,0,1,0-.15L184.32,113a.8.8,0,0,0,0,.15C184.17,113.72,183.55,113.3,183.91,113.48Z"/><path class="cls-137" d="M184.51,112.29l-.07.08L154.07,97.06l.06-.08c.41-.46.9-.67,1.26-.49l29.31,15.38C184.34,111.7,184.92,111.83,184.51,112.29Z"/><path class="cls-138" d="M184.84,112.5a2.14,2.14,0,0,1-.13.38,1.9,1.9,0,0,1-.22.33l0,0-.06.06a.53.53,0,0,1-.54.16c-.18-.09-.24-.35-.18-.65a1.39,1.39,0,0,1,.12-.38,1.72,1.72,0,0,1,.22-.33c.21-.23.45-.34.63-.25S184.89,112.2,184.84,112.5Z"/><path class="cls-36" d="M58.63,157.26c-.22.77-.57,1.89-1.41,2.21S52,162,51.61,162.21a12.92,12.92,0,0,1-3.94,1.41,12.41,12.41,0,0,1-1.5.09,3,3,0,0,1-1.83-.68c-1.06-.78-2.35-2.42-2.18-3.05s.4-1.51.4-1.51S43.91,157.06,44,157c1-.85,5-2.12,8.36-2.94,2.53-.62,4.69-1,4.91-.71s.51.42.82.7C58.65,154.57,59.17,155.38,58.63,157.26Z"/><path class="cls-67" d="M103.91,97.36s-2.74-.73-4.63,2.5c-1.35,2.31-6.66,13.49-6.85,15.16s5.88,4.57,7.15,2.46c.6-1,6.53-12.17,6.8-13.57S109,98.34,103.91,97.36Z"/><path class="cls-139" d="M111.26,89.42a2.46,2.46,0,0,1,1.31-.24,8,8,0,0,1,2.54.64c.38.19,4.22,2.24,4.22,2.24s-4.6.3-7-.81c-1.1-.52-2.55-1.08-2.37-1.34S110.65,89.62,111.26,89.42Z"/><path class="cls-140" d="M116.29,91.12a3.88,3.88,0,0,1-2.43.15,8.6,8.6,0,0,1-3.32-1.42c-.84-.59,1.11-.53,2-.42A12.11,12.11,0,0,1,116.29,91.12Z"/><path class="cls-47" d="M75.5,87.09s-1.3-2.5-5.74-1-5.27,6.37-5.2,8.74,3.69,5,8,3.14S78.44,88.56,75.5,87.09Z"/><path class="cls-78" d="M98,80.19s.25,8.6-5,11.16S93,83.38,98,80.19Z"/><path class="cls-64" d="M98.51,102a6.35,6.35,0,0,1-1.39-.87,5.12,5.12,0,0,0-3.49,0c-1.61.51-2.18-.75-2,1.52s1.29,3.54,2,3.65A6.27,6.27,0,0,0,96.64,105c.07-.27,0-.92-.26-1s-.57-.55-.39-.53,1.65.53,1.65.53.49-.8.17-1a3.91,3.91,0,0,1-.6-.56l1.08.31Z"/><path class="cls-64" d="M97,100.44s.22.75-.23.84-1.47-.07-1.84,0-1.2,1-2.27,1S90.81,101.18,91,101a8.12,8.12,0,0,1,2.67-.87A5.51,5.51,0,0,1,97,100.44Z"/><path class="cls-141" d="M105,92.46s-2.56,5.08-2.47,5.58A3.09,3.09,0,0,0,105,99.23c.67-.2,3.07-5.16,3.07-5.16A2.14,2.14,0,0,0,105,92.46Z"/><path class="cls-35" d="M59,155.74c-.22.78-.57,1.9-1.41,2.22S52.36,160.5,52,160.7a12.82,12.82,0,0,1-3.94,1.41,12.41,12.41,0,0,1-1.5.09,3,3,0,0,1-1.83-.68c-1.06-.78-2.35-2.42-2.18-3.05a19.79,19.79,0,0,1,1.66-2.8.94.94,0,0,1,.17-.18c1-.85,5-2.12,8.36-2.94,2.53-.62,4.69-1,4.91-.71s.51.42.82.7C59.05,153.06,59.57,153.87,59,155.74Z"/><path class="cls-35" d="M79.16,181.87c-.25.15-.56.22-1,.4-2.15,1-7.41.14-8.08,0s-5.92.78-7.76-.36a2.53,2.53,0,0,1-.93-3.47c.24-.49,1.48-3.22,1.76-3.85l.06-.13,4.15-.71c1.85-.3,3.71-.58,4.2-.59a6.36,6.36,0,0,1,1.11.12c.54.09,1.19.23,1.83.38a24.81,24.81,0,0,1,3,.81c.71.32,2.46,1.45,2.46,2.28s0,1.77,0,2.41C79.85,181.08,79.61,181.61,79.16,181.87Z"/><path class="cls-36" d="M79.54,180.42c-.24.15-.55.21-.94.4-2.16,1-7.41.14-8.08,0s-5.92.78-7.77-.36a2.38,2.38,0,0,1-1.26-2.13l-.05.11a2.53,2.53,0,0,0,.93,3.47c1.84,1.14,7.09.19,7.76.36s5.93,1.09,8.08,0c.39-.18.7-.25,1-.4s.58-.59.71-1.75A1,1,0,0,1,79.54,180.42Z"/><path class="cls-49" d="M81.92,156.91c-1.62,4.7-3.23,8.67-3.74,9.67s-2.41,4.27-3.09,5.86c-.14.33-.33.74-.54,1.18-.75,1.6-1.76,3.53-1.76,3.53a7.08,7.08,0,0,1-1,1,9,9,0,0,1-1,.72,4.27,4.27,0,0,1-3.8.4,7.36,7.36,0,0,1-3.78-4.33s0-.14,0-.37a7.5,7.5,0,0,1,.4-2.28,30.89,30.89,0,0,0,1.72-4.4l2.16-8.12a16.93,16.93,0,0,0,.11-6.91,42.25,42.25,0,0,0-3.11-10.62c-.16-.3-.31-.57-.46-.81a21.4,21.4,0,0,1-2.89-9.55,11.4,11.4,0,0,1,1.77-6.68c1.28-2.27,15.41,1.86,15.85,2.74s1.66,6.46,2.85,11.78c.14.64.28,1.31.41,2C82.94,146.72,83.35,152.78,81.92,156.91Z"/><path class="cls-48" d="M79.94,179.12c-3.71-1.32-9.82.29-10.44-.06-.28-.16,3.23-6.1,4.74-8.94,2.46-4.61,3.33-6.75,3.37-7.34.09-1,.38-3,.51-6.67a57.78,57.78,0,0,0-1.05-10.6A27.49,27.49,0,0,1,82,141.7c.93,5,1.34,11.08-.09,15.21-1.62,4.7-3.23,8.67-3.74,9.67s-2.41,4.27-3.09,5.86c-.14.33-.33.74-.54,1.18a24.81,24.81,0,0,1,3,.81c.71.32,2.46,1.45,2.46,2.28S80,178.48,79.94,179.12Z"/><path class="cls-46" d="M65.2,141.42c-1.16,2.15-1.84,3.43-4.38,7.59-.77,1.26-1.6,2.5-2.34,3.53a19.88,19.88,0,0,1-1.76,2.17c-.79.76-2,1.95-3.12,3.08a6.69,6.69,0,0,1-4.12,1.72,6,6,0,0,1-1.5-.45c-1.26-.51-2.82-1.37-3.2-2.14a3.62,3.62,0,0,1-.39-1.43,2.54,2.54,0,0,1,.42-1.51,14.43,14.43,0,0,1,2.07-3c1-1,1.94-3.57,2.43-4.29s2.87-6.38,4.22-8.08.24-4,.67-5.34,2.22-2.71,2.65-6.26a9.32,9.32,0,0,1,2.1-5.21s9.58,4.82,9.72,6.5-2.6,9.79-2.6,9.79a1.93,1.93,0,0,1,0,.39A6.42,6.42,0,0,1,65.2,141.42Z"/><path class="cls-48" d="M65.2,141.42c-1.16,2.15-1.84,3.43-4.38,7.59-.77,1.26-1.6,2.5-2.34,3.53.57.52,1.09,1.33.55,3.2-.22.78-.57,1.9-1.41,2.22S52.36,160.5,52,160.7a12.82,12.82,0,0,1-3.94,1.41,12.41,12.41,0,0,1-1.5.09A16.31,16.31,0,0,1,48,159.13l0-.07c.41-.71,2.51-3,4.77-6.51.62-1,1.26-2,1.88-3.2a46.76,46.76,0,0,0,4-10.21s4-1.89,7.46-.67A6.42,6.42,0,0,1,65.2,141.42Z"/><path class="cls-47" d="M83.6,142.78A14.35,14.35,0,0,1,78,148.21a7.25,7.25,0,0,1-2.77.69,15,15,0,0,1-9.5-2.53c-1.42-1-1.91-4.47-1.91-4.47s-.31-.4-4.82-2.1-5.2-4.67-5.2-4.67a14.79,14.79,0,0,1-.24-7.83c0-.13.07-.25.1-.38a17.58,17.58,0,0,1,2.4-5.46c.26-.37.42-.56.42-.56,3.09-1.31,12.13.8,18.52,2.95,1.64.55,3.11,1.1,4.26,1.6a7.37,7.37,0,0,1,2.47,1.44,11.65,11.65,0,0,1,.88,1.53C85.73,134.76,83.6,142.78,83.6,142.78Z"/><path class="cls-36" d="M84,140.94c0,.18-.07.28-.07.28s-3.28,5.92-8.39,6.12a15,15,0,0,1-9.5-2.53c-1.42-1-1.91-4.47-1.91-4.47s-.31-.4-4.83-2.11a10.12,10.12,0,0,1-5.86-5.38h0a17.15,17.15,0,0,0,.37,2.28s.68,3,5.2,4.67,4.82,2.1,4.82,2.1.49,3.51,1.91,4.47a15,15,0,0,0,9.5,2.53c5.11-.2,8.39-6.12,8.39-6.12S83.79,142.08,84,140.94Z"/><path class="cls-37" d="M92.1,106.16A79.62,79.62,0,0,1,89.22,114c-1.11,2.44-2.31,6.32-3.93,8.93a49.49,49.49,0,0,0-2.7,5.47,23.41,23.41,0,0,1-1.27,2.45,13.29,13.29,0,0,1-4.13.62,20.89,20.89,0,0,1-6.53-1,46.07,46.07,0,0,1-11.1-5.13c-1-.51-3.53-3.46-3.52-3.93.06-3.73,1.84-7.42,3.82-12.89,3.07-8.43,4.26-11.9,4.7-13.72s1.89-6,5.51-7.09c3.78-1.11,5.89-1.26,8-.17,1.33.7,4.45-.92,13,7.11,2.88,2.7,1.79,5.18,2.07,6.51C93.25,102,92.78,104,92.1,106.16Z"/><path class="cls-48" d="M82.59,128.42a49.49,49.49,0,0,1,2.7-5.47c1.62-2.61,2.82-6.49,3.93-8.93a79.62,79.62,0,0,0,2.88-7.86c-7.48,1.69-6.64,1.62-6.64,1.62S81.82,118,79.24,125.45c-.59,1.69-1.12,3.23-1.54,4.48C77,128,75.92,125.77,75,123.85c-6.39-2.15-15.43-4.26-18.52-2.95,0,0-.16.19-.42.56a17.58,17.58,0,0,0-2.4,5.46c.3.37.64.77,1,1.21,4.81,5.61,12.48,7.57,15.16,10.33,2.08,2.14,5.44,3.45,7.5,4.27a37.92,37.92,0,0,1,.67,5.48,14.35,14.35,0,0,0,5.62-5.43S85.73,134.76,82.59,128.42Z"/><path class="cls-35" d="M86.05,93.66l1.3-1.42,2.19-1.73s2-4.42,2.24-4.79,1.31-3.36,1.36-3.72,1.12-2.44.22-3.82-5.5-3.39-7.63-3.58a4.93,4.93,0,0,0-3.68,1.46S81,76,79.43,78.19s-1.59,6.31-1.26,7.41,1.36,2,.92,3.05-.32,1.16-.32,1.16A10.68,10.68,0,0,0,86.05,93.66Z"/><path class="cls-35" d="M102.47,112.74c-1.4,1.88-2.43,4.09-7.55,2.73a41.82,41.82,0,0,1-5-2.33l-.58-.3c-1.13-.58-2.31-3.14-.26-7.87s4-4.11,4-4.11a8.45,8.45,0,0,1,4.58,5.34,27.16,27.16,0,0,0,2.6-3.6c.5-1.09,1.79-3.4,1.79-3.4s1.18-1.62,2.35-1.27a24.64,24.64,0,0,1,2.82,1.14,2.5,2.5,0,0,1,.85,1.34h0a2.28,2.28,0,0,1,0,1A66.74,66.74,0,0,1,102.47,112.74Z"/><path class="cls-48" d="M102.47,112.74c-1.4,1.88-2.43,4.09-7.55,2.73a41.82,41.82,0,0,1-5-2.33c.5-.11,1-.21,1.63-.3,0,0,5.16,2.94,7.6,2s7.36-10.34,8.89-14.45a2.28,2.28,0,0,1,0,1A66.74,66.74,0,0,1,102.47,112.74Z"/><path class="cls-64" d="M102.91,99.18l.61-2.27c.13-.49,1-3.39,1.6-3.58a1,1,0,0,1,1.1,1.24,5.45,5.45,0,0,0-.41,2.1c.11.08.85.21,1-.27a15.67,15.67,0,0,1,.71-1.73c.08-.06,1-.22,1,.51a11.82,11.82,0,0,1-.41,3.49c-.26.45-1.67,3.19-2.85,2.42A22.23,22.23,0,0,1,102.91,99.18Z"/><path class="cls-34" d="M75.85,76.35s-1.6-.71-2,1.32-1,3.37-.1,4.42a5.27,5.27,0,0,0,2.21,1.47Z"/><path class="cls-69" d="M90.39,88.77s4,5.37-2.67,7.21-13.49-3.36-13.21-6.54c.18-2,.78-4,4.72-4.45S87,84.23,90.39,88.77Z"/><path class="cls-34" d="M89.59,87s5.1,6-1.57,7.81S74.53,91.48,74.81,88.3c.18-2,.78-4,4.72-4.45S86.2,82.48,89.59,87Z"/><path class="cls-47" d="M96.09,82.8c-.06.21-.31.78-.59,1.4-.37.82-.79,1.73-.88,2l-.41.82c-.07.1-.72,4.9-3.6,6.43-.34.18-.68.33-1,.47a12,12,0,0,1-14.79-6.08c-.61-1.31-.82-5.33-.69-6.69l-.55-1.8a12.59,12.59,0,0,1,1.12-2.81,13.05,13.05,0,0,1,.85-1.33.64.64,0,0,1,.1-.13,11.58,11.58,0,0,1,11.2-4.59c.32,0,.65.13,1,.21a11.84,11.84,0,0,1,2.09.78,11.57,11.57,0,0,1,3,2.15C95.75,76.51,97.24,78.45,96.09,82.8Z"/><path class="cls-47" d="M98.11,80.56A12.64,12.64,0,0,1,95.5,84.2c-.55.43-1.12.58-1.62.14C91.51,82.23,88.1,78.92,84.1,77L84,77h0a26.76,26.76,0,0,0-3.62-1.45c-.28-.09-.54-.16-.78-.22A6.45,6.45,0,0,0,77,75.09c-.89.15-1.16.57-1.35.57s-.23-.17-.23-.17.08-.16.25-.43c1.13-1.86,6.23-9,15.54-4.44a16,16,0,0,1,2.54,1.53,12.05,12.05,0,0,1,2,1.87h0A10.21,10.21,0,0,1,98.11,80.56Z"/><path class="cls-56" d="M89.6,93.9a12,12,0,0,1-14.79-6.08c-.61-1.31-.82-5.33-.69-6.69l-.55-1.8a12.59,12.59,0,0,1,1.12-2.81,13.05,13.05,0,0,1,.85-1.33.64.64,0,0,1,.1-.13c1.13-1.86,6.23-9,15.54-4.44a16,16,0,0,1,2.54,1.53,11.75,11.75,0,0,0-4.58-1.44,10.32,10.32,0,0,0-9.5,4.61,6.81,6.81,0,0,0-.88,2.28C76.06,87.76,85.43,89.51,86,90.31,86.44,90.87,88.78,92.45,89.6,93.9Z"/><path class="cls-35" d="M95.13,88.16c-.73,2.29-4.73,5.33-4.73,5.33L90.24,91,90,87.89a13.64,13.64,0,0,0,2.49-.25l1.14-.26Z"/><path class="cls-47" d="M93.78,92.37c-.64.84-3.38,1.12-3.38,1.12L90.24,91c.38-.92.93-1.73,1.52-1.9,1.47-.44,3.37-1,3.37-1A7.27,7.27,0,0,1,93.78,92.37Z"/><path class="cls-70" d="M90,87.89s2,1,2,1.72a6,6,0,0,1-1.36,3.69c-.61.77-2.48-.28-2.48-.28A12.31,12.31,0,0,0,90,87.89Z"/><path class="cls-142" d="M93.77,85.88s5.13-3.71,4.78-6.67a8.07,8.07,0,0,0-2.77-5.12,13.78,13.78,0,0,1,1.3,2.51,8.53,8.53,0,0,1-4.89,7.78C92.49,86,93.77,85.88,93.77,85.88Z"/><path class="cls-75" d="M94.06,86.24s5.13-3.7,4.78-6.66a8.07,8.07,0,0,0-2.77-5.12A13.78,13.78,0,0,1,97.37,77a8.54,8.54,0,0,1-4.89,7.78C92.78,86.38,94.06,86.24,94.06,86.24Z"/><path class="cls-70" d="M94.35,85.08a3.44,3.44,0,0,1-1.68,2.71,1.27,1.27,0,0,1-1.93-1.13,3.58,3.58,0,0,1,1.63-2.81A1.35,1.35,0,0,1,94.35,85.08Z"/><path class="cls-37" d="M94.45,85.33A3.17,3.17,0,0,1,93,87.8c-.79.45-1.43.09-1.43-.82A3.14,3.14,0,0,1,93,84.51C93.81,84.05,94.45,84.42,94.45,85.33Z"/><path class="cls-36" d="M53.43,127.81a13.8,13.8,0,0,0,0,5A14.15,14.15,0,0,1,53.43,127.81Z"/><path class="cls-47" d="M92.09,97.83a7.11,7.11,0,0,0-8.33,2.74c-3,4.28-.73,9.68,5.32,12.94a4.26,4.26,0,0,0,5.18-.87c2.06-2.27,3.9-6.13,3.38-8.59C97.22,102.06,92.09,97.83,92.09,97.83Z"/><path class="cls-52" d="M84,125.21s-7.19,2.89-16.41-1.35c-11.27-5.18-10.53-7.67-10.53-7.67a35.91,35.91,0,0,0-1.78,6.52c-.08,1.15,4.68,4.85,12.2,7.64s13.26,2.91,16,.49A52.42,52.42,0,0,0,84,125.21Z"/><path class="cls-66" d="M94.3,105.38a3.12,3.12,0,0,1-3,3.25,3.18,3.18,0,0,1-3-3.33,3.12,3.12,0,0,1,3-3.25A3.18,3.18,0,0,1,94.3,105.38Z"/><path class="cls-67" d="M92.84,103.13l-3.3,3,1.53-.06s0,1.65.07,1.57S92.84,103.13,92.84,103.13Z"/><path class="cls-143" d="M111.65,89.19s-3-.56-3.66,0a16.71,16.71,0,0,0-1.89,3.34.52.52,0,0,0,.28.72.84.84,0,0,0,.8,0s1.61-2.85,1.74-3a6,6,0,0,1,1.48.17S112,89.61,111.65,89.19Z"/><path class="cls-85" d="M88,101.44,78,133.36a2.43,2.43,0,0,1-1.9,1.67h0a2.6,2.6,0,0,1-.56,0,2.46,2.46,0,0,1-1.33-.5l-6-2.57L54.64,121.57a4.35,4.35,0,0,1-1.51-4.77l9.33-29.63,1.22-3.88a2.42,2.42,0,0,1,2.09-1.69h0a2.4,2.4,0,0,1,1.68.49l19,14.58a2.32,2.32,0,0,1,.25.21,4.39,4.39,0,0,1,.87,1.06h0A4.37,4.37,0,0,1,88,101.44Z"/><path class="cls-85" d="M87.65,98l-8.52.77c-1.87.17-10.72-6.57-16.67-11.55-3.39-2.83-5.84-5.09-5.54-5.19.78-.26,8.38-.37,8.85-.38h0a2.4,2.4,0,0,1,1.68.49l19,14.58a2.32,2.32,0,0,1,.25.21l.87,1.06Z"/><path class="cls-84" d="M88,101.44,78,133.36a2.43,2.43,0,0,1-1.9,1.67h0l-.56,0-9.08-.3L68.25,132,79.13,98.72,87.65,98A4.37,4.37,0,0,1,88,101.44Z"/><path class="cls-144" d="M65.15,134.24,47.59,120.81a4,4,0,0,1-1.39-4.41l9.72-30.87a2.25,2.25,0,0,1,3.5-1.11L77,97.86a4,4,0,0,1,1.39,4.4l-9.72,30.87A2.25,2.25,0,0,1,65.15,134.24Z"/><path class="cls-48" d="M54,91.58l-.87,2.77,22.32,17.13,9.7-.89,1.31-4.16Z"/><path class="cls-85" d="M89.09,95.38l-8.48.77c-1.86.17-10.67-6.55-16.59-11.5-3.37-2.82-5.81-5.06-5.52-5.16.78-.26,8.34-.38,8.82-.38h0a2.44,2.44,0,0,1,1.66.49L88,94.1l.25.21c.53.64.83,1,.86,1.06Z"/><path class="cls-84" d="M89.48,98.86,86.6,108a2.42,2.42,0,0,1-1.89,1.65h0l-.56,0-8.41.48L77.4,105l3.21-8.86,8.48-.77A4.35,4.35,0,0,1,89.48,98.86Z"/><path class="cls-86" d="M74.13,109.52,55.17,95a4.37,4.37,0,0,1-1.51-4.76l2.88-9.09A2.42,2.42,0,0,1,60.32,80l19,14.51a4.35,4.35,0,0,1,1.5,4.76l-2.88,9.09A2.42,2.42,0,0,1,74.13,109.52Z"/><path class="cls-82" d="M93.41,72.92a7.87,7.87,0,0,0-5.29-1.1c-.16,0-.27,0-.41,0-1.32.23-1.9,1.49-1,2.45l.29.35a6.86,6.86,0,0,0,5.25,1.71l.75-.08C94.09,76.14,96.7,76,93.41,72.92Z"/><path class="cls-40" d="M50.56,113.35C53.7,101.26,69.4,51.53,70.69,47.44a.65.65,0,0,1,.82-.42h0a.65.65,0,0,1,.42.82c-1.29,4.07-17,53.78-20.11,65.84Z"/><polygon class="cls-42" points="87.81 100.56 80.9 108.17 80.22 107.39 82.57 100.17 87.13 99.78 87.81 100.56"/><polygon class="cls-37" points="85.46 107.78 80.9 108.17 83.25 100.95 87.81 100.56 85.46 107.78"/><path class="cls-36" d="M82.57,154.24a4.28,4.28,0,0,1,.72,1.59c.16.84-2.28,8.58-4.36,9-.6-2.27-.23-4.56.71-5.38C81.41,158,82,155.21,82.57,154.24Z"/><path class="cls-50" d="M103.08,100.09s-3.6,7.73-4.4,8.39a1.28,1.28,0,0,1-1.6,0,19.41,19.41,0,0,1-2.28,4.08l-1,1s4.47,1.46,5.38.58a41.24,41.24,0,0,0,5.08-8.35,31.65,31.65,0,0,0,1.67-4S103.58,101.07,103.08,100.09Z"/><path class="cls-55" d="M76.74,114.43c-1,1.22-.9,2.78.19,3.48a3,3,0,0,0,3.74-.92c1-1.22.9-2.78-.18-3.48A3,3,0,0,0,76.74,114.43Z"/><path class="cls-56" d="M77.05,114.74a2.32,2.32,0,0,0,.18,3.48,3,3,0,0,0,3.74-.93c1-1.21.9-2.77-.18-3.48A3,3,0,0,0,77.05,114.74Z"/><path class="cls-57" d="M80.1,116.73a1.83,1.83,0,0,1-1.5.7,1.29,1.29,0,0,1-.58-.19,1.07,1.07,0,0,1-.47-.72,1.58,1.58,0,0,1,.36-1.22,1.81,1.81,0,0,1,1.71-.67,1.14,1.14,0,0,1,.38.16,1,1,0,0,1,.43.57A1.51,1.51,0,0,1,80.1,116.73Z"/><path class="cls-55" d="M72.76,127c-1,1.22-.9,2.78.18,3.48a3,3,0,0,0,3.75-.92c1-1.22.9-2.78-.19-3.48A3,3,0,0,0,72.76,127Z"/><path class="cls-56" d="M73.06,127.32c-1,1.21-.9,2.77.19,3.48a3,3,0,0,0,3.74-.93c1-1.21.9-2.77-.18-3.48A3,3,0,0,0,73.06,127.32Z"/><path class="cls-57" d="M76.12,129.31a1.89,1.89,0,0,1-1,.64,1.42,1.42,0,0,1-.79,0,1.11,1.11,0,0,1-.31-.15,1.29,1.29,0,0,1-.11-1.94,2,2,0,0,1,.86-.61,1.55,1.55,0,0,1,.79-.07h0a1.12,1.12,0,0,1,.44.17A1.29,1.29,0,0,1,76.12,129.31Z"/><path class="cls-58" d="M82.57,124.42A8,8,0,0,1,75.14,130c-.27,0-.53,0-.79,0a1.11,1.11,0,0,1-.31-.15,1.29,1.29,0,0,1-.11-1.94,2,2,0,0,1,.86-.61,7.7,7.7,0,0,0,.79-.07h0l.56-.11A5.36,5.36,0,0,0,80,123.46a5.54,5.54,0,0,0-1.37-6,9.33,9.33,0,0,0-1-.91,1.58,1.58,0,0,1,.36-1.22,1.81,1.81,0,0,1,1.71-.67c.25.21.53.45.81.73a12.36,12.36,0,0,1,.88,1A8.06,8.06,0,0,1,82.57,124.42Z"/><path class="cls-40" d="M53.82,106.54s-2.47-.57-3.13,1.73-1.55,4.55-1.27,4.78a11.84,11.84,0,0,0,2.72,1.83,3.54,3.54,0,0,0,1.62,0l2.05-6.56Z"/><polygon class="cls-84" points="57.81 124.21 56.6 123.05 62.38 106.59 63.74 107.52 57.81 124.21"/><polygon class="cls-84" points="60.36 126.31 59.15 125.14 64.93 108.69 66.29 109.62 60.36 126.31"/><polygon class="cls-84" points="62.91 128.4 61.7 127.24 67.48 110.78 68.84 111.71 62.91 128.4"/><path class="cls-145" d="M80,115.43s-1.89.88-1.53,1.29,4.12,2.74,1.61,7.76c-1.27,2.88-5.22,3.16-5.22,3.16s-1.32.44-.72,1.38,5.82-.51,7.38-4.66S82.57,118.7,80,115.43Z"/><path class="cls-140" d="M120.57,89.36c-.08.58-.15,1.17-.23,1.76a20.48,20.48,0,0,0,3.13-.3,10.75,10.75,0,0,1-1.88,1.1c.69.53,1.76.41,2.37,1A12.71,12.71,0,0,1,121,94.73c1.72.22,3,1.73,4.58,2.38a4.56,4.56,0,0,1-1.79-.66c-.38-.25-.72-.55-1.11-.78a7.44,7.44,0,0,0-1.37-.56l-2.46-.79a9.46,9.46,0,0,1-.48,2.89,2.53,2.53,0,0,1-.37-2,12,12,0,0,1-3,0c.56-.67,1.31-.65,2.09-.76.56-.08,1.59-.76,1.09-1.43a2.89,2.89,0,0,1,1.38.45c.08,0,1.3.38,1.25.22a1.78,1.78,0,0,0-1-1,5.44,5.44,0,0,0-1.39-.34,6.85,6.85,0,0,1,2.36-.52l-1,.23c-.13,0-.29.06-.36,0a.28.28,0,0,1,0-.2c.06-.63.46-1.28.17-1.85a4.29,4.29,0,0,0-1.06,1.47,7.1,7.1,0,0,0-.2-1.9A2.32,2.32,0,0,0,117.23,88c.52.37,1.32.42,1.77.88s.11.77.14,1.24A3.78,3.78,0,0,0,120.57,89.36Z"/></g></g></g></svg>